<svg width="39" height="34" viewBox="0 0 39 34" fill="none" xmlns="http://www.w3.org/2000/svg">
<path d="M15.1461 27.0002V20.7502H12.5419V15.1252C12.5419 14.5349 12.9499 14.0401 13.7659 13.6408C14.5818 13.2415 15.6322 13.0418 16.9169 13.0418C18.2016 13.0418 19.252 13.2415 20.068 13.6408C20.8839 14.0401 21.2919 14.5349 21.2919 15.1252V20.7502H18.6877V27.0002H15.1461ZM16.9169 11.5835C16.2919 11.5835 15.7537 11.3578 15.3023 10.9064C14.8509 10.455 14.6252 9.91683 14.6252 9.29183C14.6252 8.66683 14.8509 8.12864 15.3023 7.67725C15.7537 7.22586 16.2919 7.00016 16.9169 7.00016C17.5419 7.00016 18.0801 7.22586 18.5315 7.67725C18.9829 8.12864 19.2086 8.66683 19.2086 9.29183C19.2086 9.91683 18.9829 10.455 18.5315 10.9064C18.0801 11.3578 17.5419 11.5835 16.9169 11.5835ZM16.9169 33.0418C12.4725 33.0418 8.68774 31.4793 5.56274 28.3543C2.43774 25.2293 0.875244 21.4446 0.875244 17.0002C0.875244 14.7779 1.29191 12.6946 2.12524 10.7502C2.95858 8.80572 4.10441 7.10433 5.56274 5.646C7.02108 4.18766 8.72247 3.04183 10.6669 2.2085C12.6114 1.37516 14.6947 0.958496 16.9169 0.958496C19.1391 0.958496 21.2225 1.37516 23.1669 2.2085C25.1114 3.04183 26.8127 4.18766 28.2711 5.646C29.7294 7.10433 30.8752 8.80572 31.7086 10.7502C32.5419 12.6946 32.9586 14.7779 32.9586 17.0002V20.6981L37.1773 16.4793C37.2468 16.4099 37.3249 16.3578 37.4117 16.3231C37.4985 16.2884 37.5853 16.271 37.6721 16.271C37.7589 16.271 37.8457 16.2797 37.9325 16.297C38.0193 16.3144 38.0975 16.3578 38.1669 16.4272C38.3405 16.5661 38.4186 16.7397 38.4013 16.9481C38.3839 17.1564 38.3058 17.33 38.1669 17.4689L33.3232 22.3127C33.0107 22.6252 32.6461 22.7814 32.2294 22.7814C31.8127 22.7814 31.4482 22.6252 31.1357 22.3127L26.2919 17.4689C26.153 17.33 26.0749 17.1564 26.0575 16.9481C26.0402 16.7397 26.1183 16.5661 26.2919 16.4272C26.4308 16.2884 26.6044 16.2276 26.8127 16.245C27.0211 16.2623 27.1947 16.3404 27.3336 16.4793L31.5002 20.646V17.0002C31.5002 12.9724 30.0766 9.53489 27.2294 6.68766C24.3822 3.84044 20.9447 2.41683 16.9169 2.41683C12.8891 2.41683 9.45163 3.84044 6.60441 6.68766C3.75719 9.53489 2.33358 12.9724 2.33358 17.0002C2.33358 21.0627 3.74851 24.5088 6.57837 27.3387C9.40823 30.1686 12.8544 31.5835 16.9169 31.5835C18.6877 31.5835 20.3284 31.297 21.8388 30.7241C23.3492 30.1512 24.7641 29.3439 26.0836 28.3022C26.2572 28.1634 26.4482 28.0852 26.6565 28.0679C26.8648 28.0505 27.0558 28.1286 27.2294 28.3022C27.403 28.4411 27.4898 28.6147 27.4898 28.8231C27.4898 29.0314 27.403 29.205 27.2294 29.3439C25.7711 30.5245 24.1565 31.4359 22.3857 32.0783C20.6148 32.7207 18.7919 33.0418 16.9169 33.0418Z" fill="#1656A5"/>
</svg>
