<svg width="35" height="37" viewBox="0 0 35 37" fill="none" xmlns="http://www.w3.org/2000/svg">
<path d="M0.041748 19.3214C0.041748 17.3293 0.415012 15.5347 1.16154 13.9375C1.90807 12.3403 2.88897 10.8819 4.10425 9.5625L12.3855 1.48958C12.6286 1.24653 12.889 1.07292 13.1667 0.96875C13.4445 0.864583 13.7223 0.8125 14.0001 0.8125C14.2779 0.8125 14.5556 0.864583 14.8334 0.96875C15.1112 1.07292 15.3716 1.24653 15.6147 1.48958L23.8959 9.5625C24.7629 10.4882 25.518 11.5096 26.161 12.6266C26.8037 13.7436 27.2813 14.9271 27.5938 16.1771C27.6633 16.3507 27.6286 16.5069 27.4897 16.6458C27.3508 16.7847 27.1945 16.8715 27.0209 16.9063C26.8473 16.941 26.6737 16.8976 26.5001 16.776C26.3265 16.6545 26.2049 16.4549 26.1355 16.1771C25.8577 15.1354 25.4411 14.1632 24.8855 13.2604C24.3299 12.3576 23.6529 11.5069 22.8542 10.7083L14.0001 1.95833L5.14592 10.7083C3.93064 11.8611 3.01918 13.1623 2.41154 14.612C1.8039 16.062 1.50008 17.6253 1.50008 19.3021C1.50008 22.184 2.42022 24.7361 4.2605 26.9583C6.10078 29.1806 8.4098 30.6042 11.1876 31.2292C11.4654 31.2986 11.665 31.4201 11.7865 31.5938C11.9081 31.7674 11.9515 31.941 11.9167 32.1146C11.882 32.2882 11.7952 32.4444 11.6563 32.5833C11.5174 32.7222 11.3612 32.7743 11.1876 32.7396C7.95842 32.0799 5.29348 30.5087 3.19279 28.026C1.0921 25.5434 0.041748 22.6418 0.041748 19.3214ZM25.5105 25.5521C24.8161 25.2743 24.1303 25.0226 23.4532 24.7969C22.7761 24.5712 22.0518 24.4583 21.2803 24.4583C20.6629 24.4583 20.0765 24.5278 19.5209 24.6667C18.9654 24.8056 18.4098 24.9965 17.8542 25.2396C17.6806 25.309 17.4933 25.3109 17.2923 25.2453C17.0909 25.1793 16.9483 25.0559 16.8647 24.875C16.7952 24.7014 16.7961 24.5212 16.8673 24.3344C16.9381 24.1476 17.0588 24.0153 17.2292 23.9375C17.8779 23.6597 18.5426 23.434 19.2235 23.2604C19.9048 23.0868 20.5858 23 21.2668 23C22.0126 23 22.7501 23.0868 23.4792 23.2604C24.2084 23.434 24.9202 23.6597 25.6147 23.9375C26.3091 24.2153 26.9949 24.467 27.672 24.6927C28.349 24.9184 29.0739 25.0313 29.8464 25.0313C30.4645 25.0313 31.0633 24.9611 31.6428 24.8208C32.222 24.6806 32.782 24.4903 33.323 24.25C33.4966 24.1806 33.6963 24.1806 33.922 24.25C34.1477 24.3194 34.2952 24.4455 34.3647 24.6281C34.4341 24.8274 34.4254 25.0205 34.3386 25.2073C34.2518 25.3941 34.1043 25.5264 33.8959 25.6042C33.2431 25.8667 32.5742 26.0799 31.8891 26.2438C31.2037 26.4076 30.5185 26.4896 29.8334 26.4896C29.0935 26.4896 28.3617 26.4028 27.6381 26.2292C26.9141 26.0556 26.2049 25.8299 25.5105 25.5521ZM25.5105 30.7604C24.8161 30.4826 24.1303 30.2309 23.4532 30.0052C22.7761 29.7795 22.0518 29.6667 21.2803 29.6667C20.6629 29.6667 20.0765 29.7361 19.5209 29.875C18.9654 30.0139 18.4098 30.2049 17.8542 30.4479C17.6806 30.5174 17.4933 30.5193 17.2923 30.4536C17.0909 30.3877 16.9483 30.2642 16.8647 30.0833C16.7952 29.9097 16.7961 29.7295 16.8673 29.5427C16.9381 29.3559 17.0588 29.2236 17.2292 29.1458C17.8779 28.8681 18.5426 28.6424 19.2235 28.4688C19.9048 28.2951 20.5858 28.2083 21.2668 28.2083C22.0126 28.2083 22.7501 28.2951 23.4792 28.4688C24.2084 28.6424 24.9202 28.8681 25.6147 29.1458C26.3091 29.4236 26.9949 29.6754 27.672 29.901C28.349 30.1267 29.0739 30.2396 29.8464 30.2396C30.4645 30.2396 31.0633 30.1694 31.6428 30.0292C32.222 29.8889 32.782 29.6986 33.323 29.4583C33.4966 29.3889 33.6963 29.3889 33.922 29.4583C34.1477 29.5278 34.2952 29.6538 34.3647 29.8365C34.4341 30.0358 34.4254 30.2288 34.3386 30.4156C34.2518 30.6024 34.1043 30.7347 33.8959 30.8125C33.2431 31.075 32.5742 31.2882 31.8891 31.4521C31.2037 31.616 30.5185 31.6979 29.8334 31.6979C29.0935 31.6979 28.3617 31.6111 27.6381 31.4375C26.9141 31.2639 26.2049 31.0382 25.5105 30.7604ZM25.5105 35.9688C24.8161 35.691 24.1303 35.4392 23.4532 35.2135C22.7761 34.9879 22.0518 34.875 21.2803 34.875C20.6629 34.875 20.0765 34.9445 19.5209 35.0833C18.9654 35.2222 18.4098 35.4132 17.8542 35.6563C17.6806 35.7257 17.4933 35.7276 17.2923 35.662C17.0909 35.596 16.9483 35.4726 16.8647 35.2917C16.7952 35.1181 16.7961 34.9379 16.8673 34.751C16.9381 34.5642 17.0588 34.4319 17.2292 34.3542C17.8779 34.0764 18.5426 33.8507 19.2235 33.6771C19.9048 33.5035 20.5858 33.4167 21.2668 33.4167C22.0126 33.4167 22.7501 33.5035 23.4792 33.6771C24.2084 33.8507 24.9202 34.0764 25.6147 34.3542C26.3091 34.6319 26.9949 34.8837 27.672 35.1094C28.349 35.3351 29.0739 35.4479 29.8464 35.4479C30.4645 35.4479 31.0633 35.3778 31.6428 35.2375C32.222 35.0972 32.782 34.9069 33.323 34.6667C33.4966 34.5972 33.6963 34.5972 33.922 34.6667C34.1477 34.7361 34.2952 34.8622 34.3647 35.0448C34.4341 35.2441 34.4254 35.4372 34.3386 35.624C34.2518 35.8108 34.1043 35.9431 33.8959 36.0208C33.2431 36.2833 32.5742 36.4965 31.8891 36.6604C31.2037 36.8243 30.5185 36.9063 29.8334 36.9063C29.0935 36.9063 28.3617 36.8195 27.6381 36.6458C26.9141 36.4722 26.2049 36.2465 25.5105 35.9688Z" fill="#1656A5"/>
</svg>
