<svg width="32" height="32" viewBox="0 0 32 32" fill="none" xmlns="http://www.w3.org/2000/svg">
<path d="M31.3125 2.25V9.75C31.3125 9.9566 31.2424 10.1297 31.1021 10.2693C30.9622 10.4092 30.7885 10.4792 30.5813 10.4792C30.3743 10.4792 30.2014 10.4092 30.0625 10.2693C29.9236 10.1297 29.8542 9.9566 29.8542 9.75V3.23958L18.4479 14.5417C19.1424 15.5486 19.724 16.6102 20.1927 17.7266C20.6615 18.8429 20.8958 20.0035 20.8958 21.2083C20.8958 24.0253 19.9165 26.4135 17.9578 28.3729C15.9991 30.3326 13.612 31.3125 10.7964 31.3125C7.98073 31.3125 5.59201 30.3332 3.63021 28.3745C1.6684 26.4158 0.6875 24.0286 0.6875 21.213C0.6875 18.3974 1.66736 16.0087 3.62708 14.0469C5.58646 12.0851 7.97465 11.1042 10.7917 11.1042C12.0069 11.1042 13.1615 11.3385 14.2552 11.8073C15.349 12.276 16.3993 12.8576 17.4062 13.5521L28.8125 2.14583H22.25C22.0434 2.14583 21.8703 2.0757 21.7307 1.93542C21.5908 1.79549 21.5208 1.62188 21.5208 1.41458C21.5208 1.20764 21.5908 1.03472 21.7307 0.895833C21.8703 0.756944 22.0434 0.6875 22.25 0.6875H29.75C30.1927 0.6875 30.5639 0.837153 30.8635 1.13646C31.1628 1.43611 31.3125 1.80729 31.3125 2.25ZM10.7833 12.5625C8.39306 12.5625 6.3559 13.4073 4.67188 15.0969C2.98785 16.7865 2.14583 18.8264 2.14583 21.2167C2.14583 23.6069 2.99063 25.6441 4.68021 27.3281C6.36979 29.0122 8.40972 29.8542 10.8 29.8542C13.1903 29.8542 15.2274 29.0094 16.9115 27.3198C18.5955 25.6302 19.4375 23.5903 19.4375 21.2C19.4375 18.8097 18.5927 16.7726 16.9031 15.0885C15.2135 13.4045 13.1736 12.5625 10.7833 12.5625Z" fill="#1656A5"/>
</svg>
