<svg width="38" height="38" viewBox="0 0 38 38" fill="none" xmlns="http://www.w3.org/2000/svg">
<path d="M19 7.17708C18.7222 7.17708 18.4792 7.07292 18.2708 6.86458C18.0625 6.65625 17.9583 6.4132 17.9583 6.13542C17.9583 5.85764 18.0625 5.61458 18.2708 5.40625C18.4792 5.19792 18.7222 5.09375 19 5.09375C19.2778 5.09375 19.5208 5.19792 19.7292 5.40625C19.9375 5.61458 20.0417 5.85764 20.0417 6.13542C20.0417 6.4132 19.9375 6.65625 19.7292 6.86458C19.5208 7.07292 19.2778 7.17708 19 7.17708ZM23.1667 7.17708C22.8889 7.17708 22.6458 7.07292 22.4375 6.86458C22.2292 6.65625 22.125 6.4132 22.125 6.13542C22.125 5.85764 22.2292 5.61458 22.4375 5.40625C22.6458 5.19792 22.8889 5.09375 23.1667 5.09375C23.4444 5.09375 23.6875 5.19792 23.8958 5.40625C24.1042 5.61458 24.2083 5.85764 24.2083 6.13542C24.2083 6.4132 24.1042 6.65625 23.8958 6.86458C23.6875 7.07292 23.4444 7.17708 23.1667 7.17708ZM14.8333 7.17708C14.5556 7.17708 14.3125 7.07292 14.1042 6.86458C13.8958 6.65625 13.7917 6.4132 13.7917 6.13542C13.7917 5.85764 13.8958 5.61458 14.1042 5.40625C14.3125 5.19792 14.5556 5.09375 14.8333 5.09375C15.1111 5.09375 15.3542 5.19792 15.5625 5.40625C15.7708 5.61458 15.875 5.85764 15.875 6.13542C15.875 6.4132 15.7708 6.65625 15.5625 6.86458C15.3542 7.07292 15.1111 7.17708 14.8333 7.17708ZM29.4167 9.26042C29.1389 9.26042 28.8958 9.15625 28.6875 8.94792C28.4792 8.73958 28.375 8.49653 28.375 8.21875C28.375 7.94097 28.4792 7.69792 28.6875 7.48958C28.8958 7.28125 29.1389 7.17708 29.4167 7.17708C29.6944 7.17708 29.9375 7.28125 30.1458 7.48958C30.3542 7.69792 30.4583 7.94097 30.4583 8.21875C30.4583 8.49653 30.3542 8.73958 30.1458 8.94792C29.9375 9.15625 29.6944 9.26042 29.4167 9.26042ZM12.75 9.26042C12.4722 9.26042 12.2292 9.15625 12.0208 8.94792C11.8125 8.73958 11.7083 8.49653 11.7083 8.21875C11.7083 7.94097 11.8125 7.69792 12.0208 7.48958C12.2292 7.28125 12.4722 7.17708 12.75 7.17708C13.0278 7.17708 13.2708 7.28125 13.4792 7.48958C13.6875 7.69792 13.7917 7.94097 13.7917 8.21875C13.7917 8.49653 13.6875 8.73958 13.4792 8.94792C13.2708 9.15625 13.0278 9.26042 12.75 9.26042ZM8.58333 9.26042C8.30556 9.26042 8.0625 9.15625 7.85417 8.94792C7.64583 8.73958 7.54167 8.49653 7.54167 8.21875C7.54167 7.94097 7.64583 7.69792 7.85417 7.48958C8.0625 7.28125 8.30556 7.17708 8.58333 7.17708C8.86111 7.17708 9.10417 7.28125 9.3125 7.48958C9.52083 7.69792 9.625 7.94097 9.625 8.21875C9.625 8.49653 9.52083 8.73958 9.3125 8.94792C9.10417 9.15625 8.86111 9.26042 8.58333 9.26042ZM16.9167 9.26042C16.6389 9.26042 16.3958 9.15625 16.1875 8.94792C15.9792 8.73958 15.875 8.49653 15.875 8.21875C15.875 7.94097 15.9792 7.69792 16.1875 7.48958C16.3958 7.28125 16.6389 7.17708 16.9167 7.17708C17.1944 7.17708 17.4375 7.28125 17.6458 7.48958C17.8542 7.69792 17.9583 7.94097 17.9583 8.21875C17.9583 8.49653 17.8542 8.73958 17.6458 8.94792C17.4375 9.15625 17.1944 9.26042 16.9167 9.26042ZM21.0833 9.26042C20.8056 9.26042 20.5625 9.15625 20.3542 8.94792C20.1458 8.73958 20.0417 8.49653 20.0417 8.21875C20.0417 7.94097 20.1458 7.69792 20.3542 7.48958C20.5625 7.28125 20.8056 7.17708 21.0833 7.17708C21.3611 7.17708 21.6042 7.28125 21.8125 7.48958C22.0208 7.69792 22.125 7.94097 22.125 8.21875C22.125 8.49653 22.0208 8.73958 21.8125 8.94792C21.6042 9.15625 21.3611 9.26042 21.0833 9.26042ZM25.25 9.26042C24.9722 9.26042 24.7292 9.15625 24.5208 8.94792C24.3125 8.73958 24.2083 8.49653 24.2083 8.21875C24.2083 7.94097 24.3125 7.69792 24.5208 7.48958C24.7292 7.28125 24.9722 7.17708 25.25 7.17708C25.5278 7.17708 25.7708 7.28125 25.9792 7.48958C26.1875 7.69792 26.2917 7.94097 26.2917 8.21875C26.2917 8.49653 26.1875 8.73958 25.9792 8.94792C25.7708 9.15625 25.5278 9.26042 25.25 9.26042ZM19 11.3438C18.7222 11.3438 18.4792 11.2396 18.2708 11.0313C18.0625 10.8229 17.9583 10.5799 17.9583 10.3021C17.9583 10.0243 18.0625 9.78125 18.2708 9.57292C18.4792 9.36458 18.7222 9.26042 19 9.26042C19.2778 9.26042 19.5208 9.36458 19.7292 9.57292C19.9375 9.78125 20.0417 10.0243 20.0417 10.3021C20.0417 10.5799 19.9375 10.8229 19.7292 11.0313C19.5208 11.2396 19.2778 11.3438 19 11.3438ZM23.1667 11.3438C22.8889 11.3438 22.6458 11.2396 22.4375 11.0313C22.2292 10.8229 22.125 10.5799 22.125 10.3021C22.125 10.0243 22.2292 9.78125 22.4375 9.57292C22.6458 9.36458 22.8889 9.26042 23.1667 9.26042C23.4444 9.26042 23.6875 9.36458 23.8958 9.57292C24.1042 9.78125 24.2083 10.0243 24.2083 10.3021C24.2083 10.5799 24.1042 10.8229 23.8958 11.0313C23.6875 11.2396 23.4444 11.3438 23.1667 11.3438ZM27.3333 11.3438C27.0556 11.3438 26.8125 11.2396 26.6042 11.0313C26.3958 10.8229 26.2917 10.5799 26.2917 10.3021C26.2917 10.0243 26.3958 9.78125 26.6042 9.57292C26.8125 9.36458 27.0556 9.26042 27.3333 9.26042C27.6111 9.26042 27.8542 9.36458 28.0625 9.57292C28.2708 9.78125 28.375 10.0243 28.375 10.3021C28.375 10.5799 28.2708 10.8229 28.0625 11.0313C27.8542 11.2396 27.6111 11.3438 27.3333 11.3438ZM14.8333 11.3438C14.5556 11.3438 14.3125 11.2396 14.1042 11.0313C13.8958 10.8229 13.7917 10.5799 13.7917 10.3021C13.7917 10.0243 13.8958 9.78125 14.1042 9.57292C14.3125 9.36458 14.5556 9.26042 14.8333 9.26042C15.1111 9.26042 15.3542 9.36458 15.5625 9.57292C15.7708 9.78125 15.875 10.0243 15.875 10.3021C15.875 10.5799 15.7708 10.8229 15.5625 11.0313C15.3542 11.2396 15.1111 11.3438 14.8333 11.3438ZM10.6667 11.3438C10.3889 11.3438 10.1458 11.2396 9.9375 11.0313C9.72917 10.8229 9.625 10.5799 9.625 10.3021C9.625 10.0243 9.72917 9.78125 9.9375 9.57292C10.1458 9.36458 10.3889 9.26042 10.6667 9.26042C10.9444 9.26042 11.1875 9.36458 11.3958 9.57292C11.6042 9.78125 11.7083 10.0243 11.7083 10.3021C11.7083 10.5799 11.6042 10.8229 11.3958 11.0313C11.1875 11.2396 10.9444 11.3438 10.6667 11.3438ZM12.75 13.4271C12.4722 13.4271 12.2292 13.3229 12.0208 13.1146C11.8125 12.9063 11.7083 12.6632 11.7083 12.3854C11.7083 12.1076 11.8125 11.8646 12.0208 11.6563C12.2292 11.4479 12.4722 11.3438 12.75 11.3438C13.0278 11.3438 13.2708 11.4479 13.4792 11.6563C13.6875 11.8646 13.7917 12.1076 13.7917 12.3854C13.7917 12.6632 13.6875 12.9063 13.4792 13.1146C13.2708 13.3229 13.0278 13.4271 12.75 13.4271ZM8.58333 13.4271C8.30556 13.4271 8.0625 13.3229 7.85417 13.1146C7.64583 12.9063 7.54167 12.6632 7.54167 12.3854C7.54167 12.1076 7.64583 11.8646 7.85417 11.6563C8.0625 11.4479 8.30556 11.3438 8.58333 11.3438C8.86111 11.3438 9.10417 11.4479 9.3125 11.6563C9.52083 11.8646 9.625 12.1076 9.625 12.3854C9.625 12.6632 9.52083 12.9063 9.3125 13.1146C9.10417 13.3229 8.86111 13.4271 8.58333 13.4271ZM16.9167 13.4271C16.6389 13.4271 16.3958 13.3229 16.1875 13.1146C15.9792 12.9063 15.875 12.6632 15.875 12.3854C15.875 12.1076 15.9792 11.8646 16.1875 11.6563C16.3958 11.4479 16.6389 11.3438 16.9167 11.3438C17.1944 11.3438 17.4375 11.4479 17.6458 11.6563C17.8542 11.8646 17.9583 12.1076 17.9583 12.3854C17.9583 12.6632 17.8542 12.9063 17.6458 13.1146C17.4375 13.3229 17.1944 13.4271 16.9167 13.4271ZM21.0833 13.4271C20.8056 13.4271 20.5625 13.3229 20.3542 13.1146C20.1458 12.9063 20.0417 12.6632 20.0417 12.3854C20.0417 12.1076 20.1458 11.8646 20.3542 11.6563C20.5625 11.4479 20.8056 11.3438 21.0833 11.3438C21.3611 11.3438 21.6042 11.4479 21.8125 11.6563C22.0208 11.8646 22.125 12.1076 22.125 12.3854C22.125 12.6632 22.0208 12.9063 21.8125 13.1146C21.6042 13.3229 21.3611 13.4271 21.0833 13.4271ZM25.25 13.4271C24.9722 13.4271 24.7292 13.3229 24.5208 13.1146C24.3125 12.9063 24.2083 12.6632 24.2083 12.3854C24.2083 12.1076 24.3125 11.8646 24.5208 11.6563C24.7292 11.4479 24.9722 11.3438 25.25 11.3438C25.5278 11.3438 25.7708 11.4479 25.9792 11.6563C26.1875 11.8646 26.2917 12.1076 26.2917 12.3854C26.2917 12.6632 26.1875 12.9063 25.9792 13.1146C25.7708 13.3229 25.5278 13.4271 25.25 13.4271ZM29.4167 13.4271C29.1389 13.4271 28.8958 13.3229 28.6875 13.1146C28.4792 12.9063 28.375 12.6632 28.375 12.3854C28.375 12.1076 28.4792 11.8646 28.6875 11.6563C28.8958 11.4479 29.1389 11.3438 29.4167 11.3438C29.6944 11.3438 29.9375 11.4479 30.1458 11.6563C30.3542 11.8646 30.4583 12.1076 30.4583 12.3854C30.4583 12.6632 30.3542 12.9063 30.1458 13.1146C29.9375 13.3229 29.6944 13.4271 29.4167 13.4271ZM4.41667 13.4271C4.13889 13.4271 3.89583 13.3229 3.6875 13.1146C3.47917 12.9063 3.375 12.6632 3.375 12.3854C3.375 12.1076 3.47917 11.8646 3.6875 11.6563C3.89583 11.4479 4.13889 11.3438 4.41667 11.3438C4.69444 11.3438 4.9375 11.4479 5.14583 11.6563C5.35417 11.8646 5.45833 12.1076 5.45833 12.3854C5.45833 12.6632 5.35417 12.9063 5.14583 13.1146C4.9375 13.3229 4.69444 13.4271 4.41667 13.4271ZM6.5 11.3438C6.22222 11.3438 5.97917 11.2396 5.77083 11.0313C5.5625 10.8229 5.45833 10.5799 5.45833 10.3021C5.45833 10.0243 5.5625 9.78125 5.77083 9.57292C5.97917 9.36458 6.22222 9.26042 6.5 9.26042C6.77778 9.26042 7.02083 9.36458 7.22917 9.57292C7.4375 9.78125 7.54167 10.0243 7.54167 10.3021C7.54167 10.5799 7.4375 10.8229 7.22917 11.0313C7.02083 11.2396 6.77778 11.3438 6.5 11.3438ZM10.6667 7.17708C10.3889 7.17708 10.1458 7.07292 9.9375 6.86458C9.72917 6.65625 9.625 6.4132 9.625 6.13542C9.625 5.85764 9.72917 5.61458 9.9375 5.40625C10.1458 5.19792 10.3889 5.09375 10.6667 5.09375C10.9444 5.09375 11.1875 5.19792 11.3958 5.40625C11.6042 5.61458 11.7083 5.85764 11.7083 6.13542C11.7083 6.4132 11.6042 6.65625 11.3958 6.86458C11.1875 7.07292 10.9444 7.17708 10.6667 7.17708ZM12.75 5.09375C12.4722 5.09375 12.2292 4.98958 12.0208 4.78125C11.8125 4.57292 11.7083 4.32986 11.7083 4.05208C11.7083 3.77431 11.8125 3.53125 12.0208 3.32292C12.2292 3.11458 12.4722 3.01042 12.75 3.01042C13.0278 3.01042 13.2708 3.11458 13.4792 3.32292C13.6875 3.53125 13.7917 3.77431 13.7917 4.05208C13.7917 4.32986 13.6875 4.57292 13.4792 4.78125C13.2708 4.98958 13.0278 5.09375 12.75 5.09375ZM16.9167 5.09375C16.6389 5.09375 16.3958 4.98958 16.1875 4.78125C15.9792 4.57292 15.875 4.32986 15.875 4.05208C15.875 3.77431 15.9792 3.53125 16.1875 3.32292C16.3958 3.11458 16.6389 3.01042 16.9167 3.01042C17.1944 3.01042 17.4375 3.11458 17.6458 3.32292C17.8542 3.53125 17.9583 3.77431 17.9583 4.05208C17.9583 4.32986 17.8542 4.57292 17.6458 4.78125C17.4375 4.98958 17.1944 5.09375 16.9167 5.09375ZM21.0833 5.09375C20.8056 5.09375 20.5625 4.98958 20.3542 4.78125C20.1458 4.57292 20.0417 4.32986 20.0417 4.05208C20.0417 3.77431 20.1458 3.53125 20.3542 3.32292C20.5625 3.11458 20.8056 3.01042 21.0833 3.01042C21.3611 3.01042 21.6042 3.11458 21.8125 3.32292C22.0208 3.53125 22.125 3.77431 22.125 4.05208C22.125 4.32986 22.0208 4.57292 21.8125 4.78125C21.6042 4.98958 21.3611 5.09375 21.0833 5.09375ZM25.25 5.09375C24.9722 5.09375 24.7292 4.98958 24.5208 4.78125C24.3125 4.57292 24.2083 4.32986 24.2083 4.05208C24.2083 3.77431 24.3125 3.53125 24.5208 3.32292C24.7292 3.11458 24.9722 3.01042 25.25 3.01042C25.5278 3.01042 25.7708 3.11458 25.9792 3.32292C26.1875 3.53125 26.2917 3.77431 26.2917 4.05208C26.2917 4.32986 26.1875 4.57292 25.9792 4.78125C25.7708 4.98958 25.5278 5.09375 25.25 5.09375ZM27.3333 7.17708C27.0556 7.17708 26.8125 7.07292 26.6042 6.86458C26.3958 6.65625 26.2917 6.4132 26.2917 6.13542C26.2917 5.85764 26.3958 5.61458 26.6042 5.40625C26.8125 5.19792 27.0556 5.09375 27.3333 5.09375C27.6111 5.09375 27.8542 5.19792 28.0625 5.40625C28.2708 5.61458 28.375 5.85764 28.375 6.13542C28.375 6.4132 28.2708 6.65625 28.0625 6.86458C27.8542 7.07292 27.6111 7.17708 27.3333 7.17708ZM31.5 11.3438C31.2222 11.3438 30.9792 11.2396 30.7708 11.0313C30.5625 10.8229 30.4583 10.5799 30.4583 10.3021C30.4583 10.0243 30.5625 9.78125 30.7708 9.57292C30.9792 9.36458 31.2222 9.26042 31.5 9.26042C31.7778 9.26042 32.0208 9.36458 32.2292 9.57292C32.4375 9.78125 32.5417 10.0243 32.5417 10.3021C32.5417 10.5799 32.4375 10.8229 32.2292 11.0313C32.0208 11.2396 31.7778 11.3438 31.5 11.3438ZM33.5833 13.4271C33.3056 13.4271 33.0625 13.3229 32.8542 13.1146C32.6458 12.9063 32.5417 12.6632 32.5417 12.3854C32.5417 12.1076 32.6458 11.8646 32.8542 11.6563C33.0625 11.4479 33.3056 11.3438 33.5833 11.3438C33.8611 11.3438 34.1042 11.4479 34.3125 11.6563C34.5208 11.8646 34.625 12.1076 34.625 12.3854C34.625 12.6632 34.5208 12.9063 34.3125 13.1146C34.1042 13.3229 33.8611 13.4271 33.5833 13.4271ZM12.75 23.6875C12.0208 23.6875 11.4045 23.4358 10.901 22.9323C10.3976 22.4288 10.1458 21.8125 10.1458 21.0833C10.1458 20.3542 10.3976 19.7378 10.901 19.2344C11.4045 18.7309 12.0208 18.4792 12.75 18.4792C13.4792 18.4792 14.0955 18.7309 14.599 19.2344C15.1024 19.7378 15.3542 20.3542 15.3542 21.0833C15.3542 21.8125 15.1024 22.4288 14.599 22.9323C14.0955 23.4358 13.4792 23.6875 12.75 23.6875ZM25.25 23.6875C24.5208 23.6875 23.9045 23.4358 23.401 22.9323C22.8976 22.4288 22.6458 21.8125 22.6458 21.0833C22.6458 20.3542 22.8976 19.7378 23.401 19.2344C23.9045 18.7309 24.5208 18.4792 25.25 18.4792C25.9792 18.4792 26.5955 18.7309 27.099 19.2344C27.6024 19.7378 27.8542 20.3542 27.8542 21.0833C27.8542 21.8125 27.6024 22.4288 27.099 22.9323C26.5955 23.4358 25.9792 23.6875 25.25 23.6875ZM19 37.125C16.5 37.125 14.15 36.6504 11.95 35.701C9.75 34.7517 7.82882 33.4559 6.18646 31.8135C4.5441 30.1712 3.24826 28.25 2.29896 26.05C1.34965 23.85 0.875 21.5076 0.875 19.0229C0.875 16.5076 1.35243 14.1476 2.30729 11.9427C3.26215 9.73785 4.55556 7.81076 6.1875 6.16146C7.81945 4.51215 9.73976 3.21875 11.9484 2.28125C14.1571 1.34375 16.5021 0.875 18.9833 0.875C21.4944 0.875 23.8524 1.34375 26.0573 2.28125C28.2622 3.21875 30.1892 4.51215 31.8385 6.16146C33.4879 7.81076 34.7813 9.73681 35.7188 11.9396C36.6563 14.142 37.125 16.4955 37.125 19C37.125 21.4851 36.6563 23.8339 35.7188 26.0464C34.7813 28.2585 33.4879 30.1806 31.8385 31.8125C30.1892 33.4444 28.2632 34.7379 26.0604 35.6927C23.858 36.6476 21.5045 37.125 19 37.125ZM19 35.6667C23.6528 35.6667 27.5938 34.0434 30.8229 30.7969C34.0521 27.5504 35.6667 23.6181 35.6667 19C35.6667 14.3472 34.0521 10.4063 30.8229 7.17708C27.5938 3.94792 23.6528 2.33333 19 2.33333C14.3819 2.33333 10.4497 3.94792 7.20313 7.17708C3.9566 10.4063 2.33333 14.3472 2.33333 19C2.33333 23.6181 3.9566 27.5504 7.20313 30.7969C10.4497 34.0434 14.3819 35.6667 19 35.6667Z" fill="#1656A5"/>
</svg>
