<svg width="34" height="38" viewBox="0 0 34 38" fill="none" xmlns="http://www.w3.org/2000/svg">
<path d="M4.0835 37.125C3.18072 37.125 2.43419 36.8299 1.84391 36.2396C1.25364 35.6493 0.958496 34.9028 0.958496 34V8.16667C0.958496 7.26389 1.25364 6.51736 1.84391 5.92708C2.43419 5.33681 3.18072 5.04167 4.0835 5.04167H8.25016V1.08333C8.25016 0.840278 8.32829 0.640625 8.48454 0.484375C8.64079 0.328125 8.84044 0.25 9.0835 0.25C9.32655 0.25 9.52621 0.328125 9.68246 0.484375C9.83871 0.640625 9.91683 0.840278 9.91683 1.08333V5.04167H24.2918V0.979167C24.2918 0.770833 24.3613 0.597222 24.5002 0.458333C24.6391 0.319444 24.8127 0.25 25.021 0.25C25.2293 0.25 25.4029 0.319444 25.5418 0.458333C25.6807 0.597222 25.7502 0.770833 25.7502 0.979167V5.04167H29.9168C30.8196 5.04167 31.5661 5.33681 32.1564 5.92708C32.7467 6.51736 33.0418 7.26389 33.0418 8.16667V34C33.0418 34.9028 32.7467 35.6493 32.1564 36.2396C31.5661 36.8299 30.8196 37.125 29.9168 37.125H4.0835ZM4.0835 35.6667H29.9168C30.3335 35.6667 30.7154 35.4931 31.0627 35.1458C31.4099 34.7986 31.5835 34.4167 31.5835 34V16.5H2.41683V34C2.41683 34.4167 2.59044 34.7986 2.93766 35.1458C3.28489 35.4931 3.66683 35.6667 4.0835 35.6667ZM2.41683 15.0417H31.5835V8.16667C31.5835 7.75 31.4099 7.36806 31.0627 7.02083C30.7154 6.67361 30.3335 6.5 29.9168 6.5H4.0835C3.66683 6.5 3.28489 6.67361 2.93766 7.02083C2.59044 7.36806 2.41683 7.75 2.41683 8.16667V15.0417ZM17.0002 23.5833C16.6182 23.5833 16.2797 23.4358 15.9845 23.1406C15.6894 22.8455 15.5418 22.5069 15.5418 22.125C15.5418 21.7431 15.6894 21.4045 15.9845 21.1094C16.2797 20.8142 16.6182 20.6667 17.0002 20.6667C17.3821 20.6667 17.7206 20.8142 18.0158 21.1094C18.3109 21.4045 18.4585 21.7431 18.4585 22.125C18.4585 22.5069 18.3109 22.8455 18.0158 23.1406C17.7206 23.4358 17.3821 23.5833 17.0002 23.5833ZM8.66683 23.5833C8.28489 23.5833 7.94634 23.4358 7.65121 23.1406C7.35607 22.8455 7.2085 22.5069 7.2085 22.125C7.2085 21.7431 7.35607 21.4045 7.65121 21.1094C7.94634 20.8142 8.28489 20.6667 8.66683 20.6667C9.04877 20.6667 9.38732 20.8142 9.68246 21.1094C9.97759 21.4045 10.1252 21.7431 10.1252 22.125C10.1252 22.5069 9.97759 22.8455 9.68246 23.1406C9.38732 23.4358 9.04877 23.5833 8.66683 23.5833ZM25.3335 23.5833C24.9516 23.5833 24.613 23.4358 24.3179 23.1406C24.0227 22.8455 23.8752 22.5069 23.8752 22.125C23.8752 21.7431 24.0227 21.4045 24.3179 21.1094C24.613 20.8142 24.9516 20.6667 25.3335 20.6667C25.7154 20.6667 26.054 20.8142 26.3491 21.1094C26.6443 21.4045 26.7918 21.7431 26.7918 22.125C26.7918 22.5069 26.6443 22.8455 26.3491 23.1406C26.054 23.4358 25.7154 23.5833 25.3335 23.5833ZM17.0002 31.5C16.6182 31.5 16.2797 31.3524 15.9845 31.0573C15.6894 30.7622 15.5418 30.4236 15.5418 30.0417C15.5418 29.6597 15.6894 29.3212 15.9845 29.026C16.2797 28.7309 16.6182 28.5833 17.0002 28.5833C17.3821 28.5833 17.7206 28.7309 18.0158 29.026C18.3109 29.3212 18.4585 29.6597 18.4585 30.0417C18.4585 30.4236 18.3109 30.7622 18.0158 31.0573C17.7206 31.3524 17.3821 31.5 17.0002 31.5ZM8.66683 31.5C8.28489 31.5 7.94634 31.3524 7.65121 31.0573C7.35607 30.7622 7.2085 30.4236 7.2085 30.0417C7.2085 29.6597 7.35607 29.3212 7.65121 29.026C7.94634 28.7309 8.28489 28.5833 8.66683 28.5833C9.04877 28.5833 9.38732 28.7309 9.68246 29.026C9.97759 29.3212 10.1252 29.6597 10.1252 30.0417C10.1252 30.4236 9.97759 30.7622 9.68246 31.0573C9.38732 31.3524 9.04877 31.5 8.66683 31.5ZM25.3335 31.5C24.9516 31.5 24.613 31.3524 24.3179 31.0573C24.0227 30.7622 23.8752 30.4236 23.8752 30.0417C23.8752 29.6597 24.0227 29.3212 24.3179 29.026C24.613 28.7309 24.9516 28.5833 25.3335 28.5833C25.7154 28.5833 26.054 28.7309 26.3491 29.026C26.6443 29.3212 26.7918 29.6597 26.7918 30.0417C26.7918 30.4236 26.6443 30.7622 26.3491 31.0573C26.054 31.3524 25.7154 31.5 25.3335 31.5Z" fill="#1656A5"/>
</svg>
