<svg width="38" height="37" viewBox="0 0 38 37" fill="none" xmlns="http://www.w3.org/2000/svg">
<path d="M2.4375 36.0415C1.99479 36.0415 1.62379 35.8917 1.32448 35.592C1.02483 35.2927 0.875 34.9217 0.875 34.479V21.6837C0.875 20.8042 1.18108 20.0606 1.79323 19.453C2.40504 18.8453 3.14063 18.5415 4 18.5415H12.6458C12.8392 18.5415 13.0264 18.5849 13.2073 18.6717C13.3885 18.7585 13.5399 18.8627 13.6615 18.9842C13.783 19.1057 13.8872 19.2571 13.974 19.4384C14.0608 19.6193 14.1042 19.8064 14.1042 19.9998C14.1042 21.3599 14.5795 22.5158 15.5302 23.4675C16.4809 24.4196 17.6354 24.8957 18.9938 24.8957C20.3521 24.8957 21.5087 24.4196 22.4635 23.4675C23.4184 22.5158 23.8958 21.3599 23.8958 19.9998C23.8958 19.8064 23.9392 19.6193 24.026 19.4384C24.1129 19.2571 24.217 19.1057 24.3385 18.9842C24.4601 18.8627 24.6115 18.7585 24.7927 18.6717C24.9736 18.5849 25.1608 18.5415 25.3542 18.5415H34C34.8594 18.5415 35.5951 18.8474 36.2073 19.4592C36.8191 20.0714 37.125 20.8071 37.125 21.6665V34.4754C37.125 34.9292 36.9753 35.3037 36.676 35.5988C36.3764 35.8939 36.0052 36.0415 35.5625 36.0415H2.4375ZM2.33333 34.5832H35.6667V21.6665C35.6667 21.1804 35.5104 20.7811 35.1979 20.4686C34.8854 20.1561 34.4861 19.9998 34 19.9998H25.3542C25.3542 21.7707 24.7347 23.2724 23.4958 24.505C22.2566 25.7377 20.758 26.354 19 26.354C17.242 26.354 15.7434 25.7346 14.5042 24.4957C13.2653 23.2564 12.6458 21.7578 12.6458 19.9998H4C3.51389 19.9998 3.11458 20.1561 2.80208 20.4686C2.48958 20.7811 2.33333 21.1804 2.33333 21.6665V34.5832ZM18.9979 20.729C18.791 20.729 18.6181 20.6592 18.4792 20.5196C18.3403 20.3797 18.2708 20.2064 18.2708 19.9998C18.2708 16.4391 18.6788 12.9274 19.4948 9.46494C20.3108 6.00209 22.0556 3.09011 24.7292 0.729004C24.9028 0.624837 25.0851 0.572754 25.276 0.572754C25.467 0.572754 25.6319 0.650879 25.7708 0.807129C25.9097 0.963379 25.9705 1.14567 25.9531 1.354C25.9358 1.56234 25.8403 1.71859 25.6667 1.82275C23.0972 4.01025 21.4653 6.74064 20.7708 10.0139C20.0764 13.2875 19.7292 16.6162 19.7292 19.9998C19.7292 20.2064 19.659 20.3797 19.5188 20.5196C19.3788 20.6592 19.2052 20.729 18.9979 20.729ZM5.96927 27.0832C6.35781 27.0832 6.68229 26.9563 6.94271 26.7024C7.20313 26.4483 7.33333 26.1271 7.33333 25.7389C7.33333 25.3504 7.20642 25.0259 6.9526 24.7655C6.69844 24.505 6.37726 24.3748 5.98906 24.3748C5.60052 24.3748 5.27604 24.5017 5.01563 24.7556C4.75521 25.0097 4.625 25.3309 4.625 25.7191C4.625 26.1077 4.75191 26.4321 5.00573 26.6925C5.2599 26.953 5.58108 27.0832 5.96927 27.0832ZM8.0526 32.2915C8.44115 32.2915 8.76563 32.1646 9.02604 31.9108C9.28646 31.6566 9.41667 31.3354 9.41667 30.9472C9.41667 30.5587 9.28976 30.2342 9.03594 29.9738C8.78177 29.7134 8.46059 29.5832 8.0724 29.5832C7.68385 29.5832 7.35938 29.7101 7.09896 29.9639C6.83854 30.2181 6.70833 30.5392 6.70833 30.9274C6.70833 31.316 6.83524 31.6405 7.08906 31.9009C7.34323 32.1613 7.66441 32.2915 8.0526 32.2915ZM32.0109 27.0832C32.3995 27.0832 32.724 26.9563 32.9844 26.7024C33.2448 26.4483 33.375 26.1271 33.375 25.7389C33.375 25.3504 33.2481 25.0259 32.9943 24.7655C32.7401 24.505 32.4189 24.3748 32.0307 24.3748C31.6422 24.3748 31.3177 24.5017 31.0573 24.7556C30.7969 25.0097 30.6667 25.3309 30.6667 25.7191C30.6667 26.1077 30.7936 26.4321 31.0474 26.6925C31.3016 26.953 31.6227 27.0832 32.0109 27.0832Z" fill="#1656A5"/>
</svg>
