<svg width="42" height="28" viewBox="0 0 42 28" fill="none" xmlns="http://www.w3.org/2000/svg">
<path d="M6.41745 27.8548C6.03411 27.8548 5.71224 27.7253 5.45182 27.4663C5.19141 27.2069 5.0612 26.8857 5.0612 26.5027C5.0612 26.1194 5.19071 25.7975 5.44974 25.5371C5.70912 25.2767 6.0303 25.1465 6.41328 25.1465C6.79662 25.1465 7.11849 25.276 7.37891 25.535C7.63932 25.7944 7.76953 26.1156 7.76953 26.4986C7.76953 26.8819 7.64002 27.2038 7.38099 27.4642C7.12161 27.7246 6.80043 27.8548 6.41745 27.8548ZM15.7924 27.8548C15.4091 27.8548 15.0872 27.7253 14.8268 27.4663C14.5664 27.2069 14.4362 26.8857 14.4362 26.5027C14.4362 26.1194 14.5657 25.7975 14.8247 25.5371C15.0841 25.2767 15.4053 25.1465 15.7883 25.1465C16.1716 25.1465 16.4935 25.276 16.7539 25.535C17.0143 25.7944 17.1445 26.1156 17.1445 26.4986C17.1445 26.8819 17.015 27.2038 16.756 27.4642C16.4966 27.7246 16.1754 27.8548 15.7924 27.8548ZM25.1674 27.8548C24.7841 27.8548 24.4622 27.7253 24.2018 27.4663C23.9414 27.2069 23.8112 26.8857 23.8112 26.5027C23.8112 26.1194 23.9407 25.7975 24.1997 25.5371C24.4591 25.2767 24.7803 25.1465 25.1633 25.1465C25.5466 25.1465 25.8685 25.276 26.1289 25.535C26.3893 25.7944 26.5195 26.1156 26.5195 26.4986C26.5195 26.8819 26.39 27.2038 26.131 27.4642C25.8716 27.7246 25.5504 27.8548 25.1674 27.8548ZM34.5424 27.8548C34.1591 27.8548 33.8372 27.7253 33.5768 27.4663C33.3164 27.2069 33.1862 26.8857 33.1862 26.5027C33.1862 26.1194 33.3157 25.7975 33.5747 25.5371C33.8341 25.2767 34.1553 25.1465 34.5383 25.1465C34.9216 25.1465 35.2435 25.276 35.5039 25.535C35.7643 25.7944 35.8945 26.1156 35.8945 26.4986C35.8945 26.8819 35.765 27.2038 35.506 27.4642C35.2466 27.7246 34.9254 27.8548 34.5424 27.8548ZM2.25078 19.5215C1.86745 19.5215 1.54557 19.392 1.28516 19.1329C1.02474 18.8736 0.894531 18.5524 0.894531 18.1694C0.894531 17.7861 1.02405 17.4642 1.28307 17.2038C1.54245 16.9434 1.86363 16.8132 2.24661 16.8132C2.62995 16.8132 2.95182 16.9427 3.21224 17.2017C3.47266 17.4611 3.60286 17.7822 3.60286 18.1652C3.60286 18.5486 3.47335 18.8704 3.21432 19.1309C2.95495 19.3913 2.63377 19.5215 2.25078 19.5215ZM11.6258 19.5215C11.2424 19.5215 10.9206 19.392 10.6602 19.1329C10.3997 18.8736 10.2695 18.5524 10.2695 18.1694C10.2695 17.7861 10.399 17.4642 10.6581 17.2038C10.9174 16.9434 11.2386 16.8132 11.6216 16.8132C12.0049 16.8132 12.3268 16.9427 12.5872 17.2017C12.8477 17.4611 12.9779 17.7822 12.9779 18.1652C12.9779 18.5486 12.8484 18.8704 12.5893 19.1309C12.3299 19.3913 12.0088 19.5215 11.6258 19.5215ZM21.0008 19.5215C20.6174 19.5215 20.2956 19.392 20.0352 19.1329C19.7747 18.8736 19.6445 18.5524 19.6445 18.1694C19.6445 17.7861 19.774 17.4642 20.0331 17.2038C20.2924 16.9434 20.6136 16.8132 20.9966 16.8132C21.3799 16.8132 21.7018 16.9427 21.9622 17.2017C22.2227 17.4611 22.3529 17.7822 22.3529 18.1652C22.3529 18.5486 22.2234 18.8704 21.9643 19.1309C21.705 19.3913 21.3838 19.5215 21.0008 19.5215ZM30.3758 19.5215C29.9924 19.5215 29.6706 19.392 29.4102 19.1329C29.1497 18.8736 29.0195 18.5524 29.0195 18.1694C29.0195 17.7861 29.149 17.4642 29.4081 17.2038C29.6674 16.9434 29.9886 16.8132 30.3716 16.8132C30.755 16.8132 31.0768 16.9427 31.3372 17.2017C31.5977 17.4611 31.7279 17.7822 31.7279 18.1652C31.7279 18.5486 31.5984 18.8704 31.3393 19.1309C31.0799 19.3913 30.7588 19.5215 30.3758 19.5215ZM39.7508 19.5215C39.3674 19.5215 39.0456 19.392 38.7852 19.1329C38.5247 18.8736 38.3945 18.5524 38.3945 18.1694C38.3945 17.7861 38.524 17.4642 38.7831 17.2038C39.0424 16.9434 39.3636 16.8132 39.7466 16.8132C40.13 16.8132 40.4518 16.9427 40.7122 17.2017C40.9727 17.4611 41.1029 17.7822 41.1029 18.1652C41.1029 18.5486 40.9734 18.8704 40.7143 19.1309C40.4549 19.3913 40.1338 19.5215 39.7508 19.5215ZM6.41745 11.1882C6.03411 11.1882 5.71224 11.0586 5.45182 10.7996C5.19141 10.5402 5.0612 10.2191 5.0612 9.83607C5.0612 9.45273 5.19071 9.13086 5.44974 8.87044C5.70912 8.61003 6.0303 8.47982 6.41328 8.47982C6.79662 8.47982 7.11849 8.60933 7.37891 8.86836C7.63932 9.12774 7.76953 9.44892 7.76953 9.8319C7.76953 10.2152 7.64002 10.5371 7.38099 10.7975C7.12161 11.0579 6.80043 11.1882 6.41745 11.1882ZM15.7924 11.1882C15.4091 11.1882 15.0872 11.0586 14.8268 10.7996C14.5664 10.5402 14.4362 10.2191 14.4362 9.83607C14.4362 9.45273 14.5657 9.13086 14.8247 8.87044C15.0841 8.61003 15.4053 8.47982 15.7883 8.47982C16.1716 8.47982 16.4935 8.60933 16.7539 8.86836C17.0143 9.12774 17.1445 9.44892 17.1445 9.8319C17.1445 10.2152 17.015 10.5371 16.756 10.7975C16.4966 11.0579 16.1754 11.1882 15.7924 11.1882ZM25.1674 11.1882C24.7841 11.1882 24.4622 11.0586 24.2018 10.7996C23.9414 10.5402 23.8112 10.2191 23.8112 9.83607C23.8112 9.45273 23.9407 9.13086 24.1997 8.87044C24.4591 8.61003 24.7803 8.47982 25.1633 8.47982C25.5466 8.47982 25.8685 8.60933 26.1289 8.86836C26.3893 9.12774 26.5195 9.44892 26.5195 9.8319C26.5195 10.2152 26.39 10.5371 26.131 10.7975C25.8716 11.0579 25.5504 11.1882 25.1674 11.1882ZM34.5424 11.1882C34.1591 11.1882 33.8372 11.0586 33.5768 10.7996C33.3164 10.5402 33.1862 10.2191 33.1862 9.83607C33.1862 9.45273 33.3157 9.13086 33.5747 8.87044C33.8341 8.61003 34.1553 8.47982 34.5383 8.47982C34.9216 8.47982 35.2435 8.60933 35.5039 8.86836C35.7643 9.12774 35.8945 9.44892 35.8945 9.8319C35.8945 10.2152 35.765 10.5371 35.506 10.7975C35.2466 11.0579 34.9254 11.1882 34.5424 11.1882ZM2.25078 2.85482C1.86745 2.85482 1.54557 2.7253 1.28516 2.46627C1.02474 2.2069 0.894531 1.88572 0.894531 1.50273C0.894531 1.1194 1.02405 0.797526 1.28307 0.537109C1.54245 0.276693 1.86363 0.146484 2.24661 0.146484C2.62995 0.146484 2.95182 0.275999 3.21224 0.535027C3.47266 0.794402 3.60286 1.11558 3.60286 1.49857C3.60286 1.8819 3.47335 2.20378 3.21432 2.46419C2.95495 2.72461 2.63377 2.85482 2.25078 2.85482ZM11.6258 2.85482C11.2424 2.85482 10.9206 2.7253 10.6602 2.46627C10.3997 2.2069 10.2695 1.88572 10.2695 1.50273C10.2695 1.1194 10.399 0.797526 10.6581 0.537109C10.9174 0.276693 11.2386 0.146484 11.6216 0.146484C12.0049 0.146484 12.3268 0.275999 12.5872 0.535027C12.8477 0.794402 12.9779 1.11558 12.9779 1.49857C12.9779 1.8819 12.8484 2.20378 12.5893 2.46419C12.3299 2.72461 12.0088 2.85482 11.6258 2.85482ZM21.0008 2.85482C20.6174 2.85482 20.2956 2.7253 20.0352 2.46627C19.7747 2.2069 19.6445 1.88572 19.6445 1.50273C19.6445 1.1194 19.774 0.797526 20.0331 0.537109C20.2924 0.276693 20.6136 0.146484 20.9966 0.146484C21.3799 0.146484 21.7018 0.275999 21.9622 0.535027C22.2227 0.794402 22.3529 1.11558 22.3529 1.49857C22.3529 1.8819 22.2234 2.20378 21.9643 2.46419C21.705 2.72461 21.3838 2.85482 21.0008 2.85482ZM30.3758 2.85482C29.9924 2.85482 29.6706 2.7253 29.4102 2.46627C29.1497 2.2069 29.0195 1.88572 29.0195 1.50273C29.0195 1.1194 29.149 0.797526 29.4081 0.537109C29.6674 0.276693 29.9886 0.146484 30.3716 0.146484C30.755 0.146484 31.0768 0.275999 31.3372 0.535027C31.5977 0.794402 31.7279 1.11558 31.7279 1.49857C31.7279 1.8819 31.5984 2.20378 31.3393 2.46419C31.0799 2.72461 30.7588 2.85482 30.3758 2.85482ZM39.7508 2.85482C39.3674 2.85482 39.0456 2.7253 38.7852 2.46627C38.5247 2.2069 38.3945 1.88572 38.3945 1.50273C38.3945 1.1194 38.524 0.797526 38.7831 0.537109C39.0424 0.276693 39.3636 0.146484 39.7466 0.146484C40.13 0.146484 40.4518 0.275999 40.7122 0.535027C40.9727 0.794402 41.1029 1.11558 41.1029 1.49857C41.1029 1.8819 40.9734 2.20378 40.7143 2.46419C40.4549 2.72461 40.1338 2.85482 39.7508 2.85482Z" fill="#1656A5"/>
</svg>
