<svg width="34" height="34" viewBox="0 0 34 34" fill="none" xmlns="http://www.w3.org/2000/svg">
<path d="M10.5938 13.3548L15.3333 8.66732C15.4722 8.52843 15.6372 8.45899 15.8281 8.45899C16.0191 8.45899 16.184 8.52843 16.3229 8.66732C16.4965 8.80621 16.5747 8.97982 16.5573 9.18815C16.5399 9.39649 16.4618 9.5701 16.3229 9.70899L11.7396 14.2923C11.4271 14.6048 11.0625 14.7524 10.6458 14.735C10.2292 14.7177 9.86458 14.5701 9.55208 14.2923L7.26042 12.1048C7.08681 11.9659 7 11.801 7 11.61C7 11.4191 7.08681 11.2368 7.26042 11.0632C7.43403 10.8895 7.60764 10.8027 7.78125 10.8027C7.95486 10.8027 8.12847 10.8895 8.30208 11.0632L10.5938 13.3548ZM11.8958 23.2507C8.70139 23.2507 5.99306 22.1395 3.77083 19.9173C1.54861 17.6951 0.4375 14.9868 0.4375 11.7923C0.4375 8.59787 1.54861 5.88954 3.77083 3.66732C5.99306 1.4451 8.70139 0.333984 11.8958 0.333984C15.0903 0.333984 17.7986 1.4451 20.0208 3.66732C22.2431 5.88954 23.3542 8.59787 23.3542 11.7923C23.3542 13.2159 23.0938 14.6048 22.5729 15.959C22.0521 17.3132 21.375 18.459 20.5417 19.3965L33.0417 31.8965C33.1806 32.0354 33.2587 32.2003 33.276 32.3913C33.2934 32.5822 33.2153 32.7645 33.0417 32.9382C32.8681 33.1118 32.6944 33.1986 32.5208 33.1986C32.3472 33.1986 32.1736 33.1118 32 32.9382L19.5 20.4382C18.4583 21.3409 17.2604 22.0354 15.9062 22.5215C14.5521 23.0076 13.2153 23.2507 11.8958 23.2507ZM11.8958 21.7923C14.7083 21.7923 17.0781 20.8288 19.0052 18.9017C20.9323 16.9746 21.8958 14.6048 21.8958 11.7923C21.8958 8.97982 20.9323 6.61003 19.0052 4.68294C17.0781 2.75586 14.7083 1.79232 11.8958 1.79232C9.08333 1.79232 6.71354 2.75586 4.78646 4.68294C2.85938 6.61003 1.89583 8.97982 1.89583 11.7923C1.89583 14.6048 2.85938 16.9746 4.78646 18.9017C6.71354 20.8288 9.08333 21.7923 11.8958 21.7923Z" fill="#1656A5"/>
</svg>
