<svg width="40" height="40" viewBox="0 0 40 40" fill="none" xmlns="http://www.w3.org/2000/svg">
<path d="M13.6992 26.6562C13.4926 26.6562 13.3194 26.5861 13.1794 26.4458C13.0398 26.3059 12.9701 26.1323 12.9701 25.925C12.9701 25.7181 13.0398 25.5451 13.1794 25.4062C13.3194 25.2674 13.4926 25.1979 13.6992 25.1979H19.0117C19.2183 25.1979 19.3916 25.2681 19.5315 25.4083C19.6711 25.5483 19.7409 25.7219 19.7409 25.9292C19.7409 26.1361 19.6711 26.309 19.5315 26.4479C19.3916 26.5868 19.2183 26.6562 19.0117 26.6562H13.6992ZM12.6055 37.125C10.2135 37.125 8.17439 36.309 6.48828 34.6771C4.80252 33.0451 3.95964 31.0486 3.95964 28.6875V9.72917C3.05686 9.72917 2.29297 9.42535 1.66797 8.81771C1.04297 8.21007 0.730469 7.45486 0.730469 6.55208V4.10417C0.730469 3.21597 1.04661 2.45573 1.67891 1.82344C2.31155 1.19115 3.07179 0.875 3.95964 0.875H21.1992C22.1016 0.875 22.874 1.19115 23.5164 1.82344C24.1591 2.45573 24.4805 3.21597 24.4805 4.10417V6.55208C24.4805 7.45486 24.1591 8.21007 23.5164 8.81771C22.874 9.42535 22.1016 9.72917 21.1992 9.72917V15.6146C21.1992 16.474 20.8933 17.2095 20.2815 17.8214C19.6694 18.4335 18.9336 18.7396 18.0742 18.7396H13.6992C13.4926 18.7396 13.3194 18.6694 13.1794 18.5292C13.0398 18.3892 12.9701 18.2156 12.9701 18.0083C12.9701 17.8014 13.0398 17.6285 13.1794 17.4896C13.3194 17.3507 13.4926 17.2812 13.6992 17.2812H19.7409V9.72917H5.41797V28.6875C5.41797 30.6667 6.11814 32.3247 7.51849 33.6615C8.91849 34.9983 10.6187 35.6667 12.619 35.6667C13.3391 35.6667 14.0291 35.5712 14.6888 35.3802C15.3485 35.1892 15.9735 34.9028 16.5638 34.5208C16.7374 34.4167 16.9197 34.3819 17.1107 34.4167C17.3016 34.4514 17.4461 34.5556 17.544 34.7292C17.6544 34.9028 17.6845 35.0918 17.6341 35.2964C17.5834 35.5012 17.4697 35.6594 17.293 35.7708C16.5985 36.1875 15.864 36.5174 15.0893 36.7604C14.3147 37.0035 13.4867 37.125 12.6055 37.125ZM3.95964 8.27083H21.1992C21.6853 8.27083 22.1107 8.1059 22.4753 7.77604C22.8398 7.44618 23.0221 7.03819 23.0221 6.55208V4.10417C23.0221 3.61806 22.8398 3.20139 22.4753 2.85417C22.1107 2.50694 21.6853 2.33333 21.1992 2.33333H3.95964C3.47352 2.33333 3.05686 2.50694 2.70964 2.85417C2.36241 3.20139 2.1888 3.61806 2.1888 4.10417V6.55208C2.1888 7.03819 2.36241 7.44618 2.70964 7.77604C3.05686 8.1059 3.47352 8.27083 3.95964 8.27083ZM28.4909 34.4167C30.1576 34.4167 31.5812 33.8264 32.7617 32.6458C33.9423 31.4653 34.5326 30.0417 34.5326 28.375C34.5326 26.7083 33.9423 25.2847 32.7617 24.1042C31.5812 22.9236 30.1576 22.3333 28.4909 22.3333C26.8242 22.3333 25.4006 22.9236 24.2201 24.1042C23.0395 25.2847 22.4492 26.7083 22.4492 28.375C22.4492 30.0417 23.0395 31.4653 24.2201 32.6458C25.4006 33.8264 26.8242 34.4167 28.4909 34.4167ZM28.4909 35.875C26.4076 35.875 24.6367 35.1458 23.1784 33.6875C21.7201 32.2292 20.9909 30.4583 20.9909 28.375C20.9909 26.2917 21.7201 24.5208 23.1784 23.0625C24.6367 21.6042 26.4076 20.875 28.4909 20.875C30.5742 20.875 32.3451 21.6042 33.8034 23.0625C35.2617 24.5208 35.9909 26.2917 35.9909 28.375C35.9909 29.2535 35.8433 30.0981 35.5482 30.9089C35.253 31.7196 34.8277 32.4722 34.2721 33.1667L39.6367 38.5312C39.7756 38.6701 39.8451 38.8264 39.8451 39C39.8451 39.1736 39.7756 39.3299 39.6367 39.4687C39.4978 39.6076 39.3299 39.6771 39.1331 39.6771C38.9365 39.6771 38.7746 39.6076 38.6471 39.4687L33.2826 34.1562C32.5881 34.7118 31.8355 35.1371 31.0247 35.4323C30.214 35.7274 29.3694 35.875 28.4909 35.875Z" fill="#1656A5"/>
</svg>
