<svg width="38" height="27" viewBox="0 0 38 27" fill="none" xmlns="http://www.w3.org/2000/svg">
<path d="M21.8099 14.5202C20.803 14.5202 19.9609 14.1816 19.2839 13.5046C18.6068 12.8275 18.2682 11.9855 18.2682 10.9785C18.2682 9.97157 18.6068 9.12956 19.2839 8.45247C19.9609 7.77539 20.803 7.43685 21.8099 7.43685C22.8168 7.43685 23.6589 7.77539 24.3359 8.45247C25.013 9.12956 25.3516 9.97157 25.3516 10.9785C25.3516 11.9855 25.013 12.8275 24.3359 13.5046C23.6589 14.1816 22.8168 14.5202 21.8099 14.5202ZM9.41406 21.291C8.55469 21.291 7.8191 20.9849 7.20729 20.3728C6.59514 19.761 6.28906 19.0254 6.28906 18.166V3.79102C6.28906 2.93164 6.59514 2.19588 7.20729 1.58372C7.8191 0.971918 8.55469 0.666016 9.41406 0.666016H34.2057C35.0651 0.666016 35.8009 0.971918 36.413 1.58372C37.0248 2.19588 37.3307 2.93164 37.3307 3.79102V18.166C37.3307 19.0254 37.0248 19.761 36.413 20.3728C35.8009 20.9849 35.0651 21.291 34.2057 21.291H9.41406ZM10.8724 19.8327H32.7474C32.7474 18.9646 33.0535 18.2268 33.6656 17.6191C34.2774 17.0115 35.013 16.7077 35.8724 16.7077V5.24935C35.0043 5.24935 34.2665 4.94327 33.6589 4.33112C33.0512 3.71931 32.7474 2.98372 32.7474 2.12435H10.8724C10.8724 2.9924 10.5665 3.73025 9.95469 4.33789C9.34254 4.94553 8.60677 5.24935 7.7474 5.24935V16.7077C8.61545 16.7077 9.3533 17.0136 9.96094 17.6254C10.5686 18.2375 10.8724 18.9733 10.8724 19.8327ZM30.4557 26.916H3.78906C2.92969 26.916 2.1941 26.6099 1.58229 25.9978C0.970139 25.386 0.664062 24.6504 0.664062 23.791V7.54102C0.664062 7.33442 0.734201 7.16133 0.874479 7.02175C1.01441 6.88182 1.18802 6.81185 1.39531 6.81185C1.60226 6.81185 1.77517 6.88182 1.91406 7.02175C2.05295 7.16133 2.1224 7.33442 2.1224 7.54102V23.791C2.1224 24.2077 2.29601 24.5896 2.64323 24.9368C2.99045 25.2841 3.3724 25.4577 3.78906 25.4577H30.4557C30.6623 25.4577 30.8354 25.5278 30.975 25.6681C31.1149 25.808 31.1849 25.9816 31.1849 26.1889C31.1849 26.3959 31.1149 26.5688 30.975 26.7077C30.8354 26.8466 30.6623 26.916 30.4557 26.916ZM9.41406 19.8327H7.7474V2.12435H9.41406C8.96267 2.12435 8.57205 2.28928 8.24219 2.61914C7.91233 2.949 7.7474 3.33963 7.7474 3.79102V18.166C7.7474 18.6174 7.91233 19.008 8.24219 19.3379C8.57205 19.6678 8.96267 19.8327 9.41406 19.8327Z" fill="#1656A5"/>
</svg>
