<svg width="32" height="42" viewBox="0 0 32 42" fill="none" xmlns="http://www.w3.org/2000/svg">
<path d="M2.14583 21.1042C2.14583 21.7986 2.19792 22.5017 2.30208 23.2135C2.40625 23.9253 2.57986 24.6285 2.82292 25.3229C2.89236 25.5312 2.88368 25.7309 2.79688 25.9219C2.71007 26.1128 2.57986 26.2431 2.40625 26.3125C2.23264 26.3819 2.05035 26.3819 1.85938 26.3125C1.6684 26.2431 1.53819 26.1042 1.46875 25.8958C1.19097 25.1319 0.991319 24.342 0.869792 23.526C0.748264 22.7101 0.6875 21.9028 0.6875 21.1042C0.6875 16.8333 2.18056 13.1962 5.16667 10.1927C8.15278 7.18924 11.7639 5.6875 16 5.6875H19.6458L15.4792 1.52083C15.3403 1.38194 15.2622 1.21701 15.2448 1.02604C15.2274 0.835069 15.3056 0.652778 15.4792 0.479167C15.6528 0.305556 15.8264 0.21875 16 0.21875C16.1736 0.21875 16.3472 0.305556 16.5208 0.479167L21.3646 5.32292C21.6771 5.63542 21.8333 6 21.8333 6.41667C21.8333 6.83333 21.6771 7.19792 21.3646 7.51042L16.5208 12.3542C16.3819 12.4931 16.217 12.5712 16.026 12.5885C15.8351 12.6059 15.6528 12.5278 15.4792 12.3542C15.3056 12.1806 15.2187 12.0069 15.2187 11.8333C15.2187 11.6597 15.3056 11.4861 15.4792 11.3125L19.6458 7.14583H16C12.1458 7.14583 8.87326 8.5 6.18229 11.2083C3.49132 13.9167 2.14583 17.2153 2.14583 21.1042ZM29.8542 20.8958C29.8542 20.2014 29.8021 19.4983 29.6979 18.7865C29.5938 18.0747 29.4201 17.3715 29.1771 16.6771C29.1076 16.4688 29.1163 16.2691 29.2031 16.0781C29.2899 15.8872 29.4201 15.7569 29.5937 15.6875C29.7674 15.6181 29.941 15.6181 30.1146 15.6875C30.2882 15.7569 30.4097 15.8958 30.4792 16.1042C30.7569 16.8681 30.9653 17.658 31.1042 18.474C31.2431 19.2899 31.3125 20.0972 31.3125 20.8958C31.3125 25.1667 29.8194 28.8038 26.8333 31.8073C23.8472 34.8108 20.2361 36.3125 16 36.3125H12.3542L16.5208 40.4792C16.6597 40.6181 16.7378 40.783 16.7552 40.974C16.7726 41.1649 16.6944 41.3472 16.5208 41.5208C16.3472 41.6944 16.1736 41.7812 16 41.7812C15.8264 41.7812 15.6528 41.6944 15.4792 41.5208L10.6354 36.6771C10.3229 36.3646 10.1667 36 10.1667 35.5833C10.1667 35.1667 10.3229 34.8021 10.6354 34.4896L15.4792 29.6458C15.6181 29.5069 15.783 29.4288 15.974 29.4115C16.1649 29.3941 16.3472 29.4722 16.5208 29.6458C16.6944 29.8194 16.7812 29.9931 16.7812 30.1667C16.7812 30.3403 16.6944 30.5139 16.5208 30.6875L12.3542 34.8542H16C19.8542 34.8542 23.1267 33.5 25.8177 30.7917C28.5087 28.0833 29.8542 24.7847 29.8542 20.8958Z" fill="#1656A5"/>
</svg>
