<svg width="50" height="50" viewBox="0 0 50 50" fill="none" xmlns="http://www.w3.org/2000/svg">
<mask id="mask0_2174_12010" style="mask-type:alpha" maskUnits="userSpaceOnUse" x="0" y="0" width="50" height="50">
<rect width="50" height="50" fill="#D9D9D9"/>
</mask>
<g mask="url(#mask0_2174_12010)">
<path d="M12.0859 43.125C11.1832 43.125 10.4366 42.8299 9.84635 42.2396C9.25608 41.6493 8.96094 40.9028 8.96094 40V14.1667C8.96094 13.2639 9.25608 12.5174 9.84635 11.9271C10.4366 11.3368 11.1832 11.0417 12.0859 11.0417H16.2526V7.08333C16.2526 6.84028 16.3307 6.64062 16.487 6.48438C16.6432 6.32812 16.8429 6.25 17.0859 6.25C17.329 6.25 17.5286 6.32812 17.6849 6.48438C17.8411 6.64062 17.9193 6.84028 17.9193 7.08333V11.0417H32.2943V6.97917C32.2943 6.77083 32.3637 6.59722 32.5026 6.45833C32.6415 6.31944 32.8151 6.25 33.0234 6.25C33.2318 6.25 33.4054 6.31944 33.5443 6.45833C33.6832 6.59722 33.7526 6.77083 33.7526 6.97917V11.0417H37.9193C38.8221 11.0417 39.5686 11.3368 40.1589 11.9271C40.7491 12.5174 41.0443 13.2639 41.0443 14.1667V40C41.0443 40.9028 40.7491 41.6493 40.1589 42.2396C39.5686 42.8299 38.8221 43.125 37.9193 43.125H12.0859ZM12.0859 41.6667H37.9193C38.3359 41.6667 38.7179 41.4931 39.0651 41.1458C39.4123 40.7986 39.5859 40.4167 39.5859 40V22.5H10.4193V40C10.4193 40.4167 10.5929 40.7986 10.9401 41.1458C11.2873 41.4931 11.6693 41.6667 12.0859 41.6667ZM10.4193 21.0417H39.5859V14.1667C39.5859 13.75 39.4123 13.3681 39.0651 13.0208C38.7179 12.6736 38.3359 12.5 37.9193 12.5H12.0859C11.6693 12.5 11.2873 12.6736 10.9401 13.0208C10.5929 13.3681 10.4193 13.75 10.4193 14.1667V21.0417ZM25.0026 29.5833C24.6207 29.5833 24.2821 29.4358 23.987 29.1406C23.6918 28.8455 23.5443 28.5069 23.5443 28.125C23.5443 27.7431 23.6918 27.4045 23.987 27.1094C24.2821 26.8142 24.6207 26.6667 25.0026 26.6667C25.3846 26.6667 25.7231 26.8142 26.0182 27.1094C26.3134 27.4045 26.4609 27.7431 26.4609 28.125C26.4609 28.5069 26.3134 28.8455 26.0182 29.1406C25.7231 29.4358 25.3846 29.5833 25.0026 29.5833ZM16.6693 29.5833C16.2873 29.5833 15.9488 29.4358 15.6536 29.1406C15.3585 28.8455 15.2109 28.5069 15.2109 28.125C15.2109 27.7431 15.3585 27.4045 15.6536 27.1094C15.9488 26.8142 16.2873 26.6667 16.6693 26.6667C17.0512 26.6667 17.3898 26.8142 17.6849 27.1094C17.98 27.4045 18.1276 27.7431 18.1276 28.125C18.1276 28.5069 17.98 28.8455 17.6849 29.1406C17.3898 29.4358 17.0512 29.5833 16.6693 29.5833ZM33.3359 29.5833C32.954 29.5833 32.6155 29.4358 32.3203 29.1406C32.0252 28.8455 31.8776 28.5069 31.8776 28.125C31.8776 27.7431 32.0252 27.4045 32.3203 27.1094C32.6155 26.8142 32.954 26.6667 33.3359 26.6667C33.7179 26.6667 34.0564 26.8142 34.3516 27.1094C34.6467 27.4045 34.7943 27.7431 34.7943 28.125C34.7943 28.5069 34.6467 28.8455 34.3516 29.1406C34.0564 29.4358 33.7179 29.5833 33.3359 29.5833ZM25.0026 37.5C24.6207 37.5 24.2821 37.3524 23.987 37.0573C23.6918 36.7622 23.5443 36.4236 23.5443 36.0417C23.5443 35.6597 23.6918 35.3212 23.987 35.026C24.2821 34.7309 24.6207 34.5833 25.0026 34.5833C25.3846 34.5833 25.7231 34.7309 26.0182 35.026C26.3134 35.3212 26.4609 35.6597 26.4609 36.0417C26.4609 36.4236 26.3134 36.7622 26.0182 37.0573C25.7231 37.3524 25.3846 37.5 25.0026 37.5ZM16.6693 37.5C16.2873 37.5 15.9488 37.3524 15.6536 37.0573C15.3585 36.7622 15.2109 36.4236 15.2109 36.0417C15.2109 35.6597 15.3585 35.3212 15.6536 35.026C15.9488 34.7309 16.2873 34.5833 16.6693 34.5833C17.0512 34.5833 17.3898 34.7309 17.6849 35.026C17.98 35.3212 18.1276 35.6597 18.1276 36.0417C18.1276 36.4236 17.98 36.7622 17.6849 37.0573C17.3898 37.3524 17.0512 37.5 16.6693 37.5ZM33.3359 37.5C32.954 37.5 32.6155 37.3524 32.3203 37.0573C32.0252 36.7622 31.8776 36.4236 31.8776 36.0417C31.8776 35.6597 32.0252 35.3212 32.3203 35.026C32.6155 34.7309 32.954 34.5833 33.3359 34.5833C33.7179 34.5833 34.0564 34.7309 34.3516 35.026C34.6467 35.3212 34.7943 35.6597 34.7943 36.0417C34.7943 36.4236 34.6467 36.7622 34.3516 37.0573C34.0564 37.3524 33.7179 37.5 33.3359 37.5Z" fill="#1656A5"/>
</g>
</svg>
