<svg width="34" height="34" viewBox="0 0 34 34" fill="none" xmlns="http://www.w3.org/2000/svg">
<path d="M4.08594 33.0423C3.18316 33.0423 2.43663 32.7472 1.84635 32.1569C1.25608 31.5666 0.960938 30.8201 0.960938 29.9173V4.08398C0.960938 3.18121 1.25608 2.43468 1.84635 1.8444C2.43663 1.25412 3.18316 0.958984 4.08594 0.958984H29.9193C30.8221 0.958984 31.5686 1.25412 32.1589 1.8444C32.7491 2.43468 33.0443 3.18121 33.0443 4.08398V29.9173C33.0443 30.8201 32.7491 31.5666 32.1589 32.1569C31.5686 32.7472 30.8221 33.0423 29.9193 33.0423H4.08594ZM4.08594 31.584H29.9193C30.3359 31.584 30.7179 31.4104 31.0651 31.0632C31.4123 30.7159 31.5859 30.334 31.5859 29.9173V4.08398C31.5859 3.66732 31.4123 3.28537 31.0651 2.93815C30.7179 2.59093 30.3359 2.41732 29.9193 2.41732H4.08594C3.66927 2.41732 3.28733 2.59093 2.9401 2.93815C2.59288 3.28537 2.41927 3.66732 2.41927 4.08398V29.9173C2.41927 30.334 2.59288 30.7159 2.9401 31.0632C3.28733 31.4104 3.66927 31.584 4.08594 31.584ZM8.66927 26.0632H19.0859C19.2943 26.0632 19.4679 25.9937 19.6068 25.8548C19.7457 25.7159 19.8151 25.5423 19.8151 25.334C19.8151 25.1257 19.7457 24.952 19.6068 24.8132C19.4679 24.6743 19.2943 24.6048 19.0859 24.6048H8.66927C8.46094 24.6048 8.28733 24.6743 8.14844 24.8132C8.00955 24.952 7.9401 25.1257 7.9401 25.334C7.9401 25.5423 8.00955 25.7159 8.14844 25.8548C8.28733 25.9937 8.46094 26.0632 8.66927 26.0632ZM8.66927 17.7298H25.3359C25.5443 17.7298 25.7179 17.6604 25.8568 17.5215C25.9957 17.3826 26.0651 17.209 26.0651 17.0007C26.0651 16.7923 25.9957 16.6187 25.8568 16.4798C25.7179 16.3409 25.5443 16.2715 25.3359 16.2715H8.66927C8.46094 16.2715 8.28733 16.3409 8.14844 16.4798C8.00955 16.6187 7.9401 16.7923 7.9401 17.0007C7.9401 17.209 8.00955 17.3826 8.14844 17.5215C8.28733 17.6604 8.46094 17.7298 8.66927 17.7298ZM8.66927 9.39649H25.3359C25.5443 9.39649 25.7179 9.32704 25.8568 9.18815C25.9957 9.04926 26.0651 8.87565 26.0651 8.66732C26.0651 8.45898 25.9957 8.28537 25.8568 8.14648C25.7179 8.0076 25.5443 7.93815 25.3359 7.93815H8.66927C8.46094 7.93815 8.28733 8.0076 8.14844 8.14648C8.00955 8.28537 7.9401 8.45898 7.9401 8.66732C7.9401 8.87565 8.00955 9.04926 8.14844 9.18815C8.28733 9.32704 8.46094 9.39649 8.66927 9.39649Z" fill="#1656A5"/>
</svg>
