<svg width="37" height="39" viewBox="0 0 37 39" fill="none" xmlns="http://www.w3.org/2000/svg">
<path d="M21.9164 13.9902L33.2706 2.68815C33.4095 2.54926 33.5657 2.4885 33.7393 2.50586C33.913 2.52322 34.0692 2.60135 34.2081 2.74023C34.347 2.87912 34.4164 3.04405 34.4164 3.23503C34.4164 3.426 34.347 3.59093 34.2081 3.72982L23.0102 14.9277C22.8366 15.1013 22.663 15.2229 22.4893 15.2923C22.3157 15.3618 22.1248 15.3965 21.9164 15.3965C21.7081 15.3965 21.5171 15.3618 21.3435 15.2923C21.1699 15.2229 20.9963 15.1013 20.8227 14.9277L15.5102 9.61523C15.3713 9.47635 15.2932 9.30273 15.2758 9.0944C15.2584 8.88607 15.3366 8.71246 15.5102 8.57357C15.6491 8.43468 15.8227 8.37391 16.031 8.39128C16.2393 8.40864 16.413 8.48676 16.5518 8.62565L21.9164 13.9902ZM7.9581 22.3757V31.959L24.1039 36.7507L34.2081 33.6257L31.4998 30.9173H25.2498C24.4512 30.9173 23.6525 30.8826 22.8539 30.8132C22.0553 30.7437 21.2567 30.5701 20.4581 30.2923L15.9789 28.834C15.7706 28.7645 15.6317 28.6257 15.5623 28.4173C15.4928 28.209 15.4928 28.0007 15.5623 27.7923C15.6317 27.584 15.7619 27.4451 15.9529 27.3757C16.1439 27.3062 16.3435 27.3062 16.5518 27.3757L20.7706 28.9382C21.465 29.2159 22.1942 29.3722 22.9581 29.4069C23.722 29.4416 24.4859 29.459 25.2498 29.459H27.9581L25.406 26.9069L13.2185 22.4798C13.1143 22.4451 13.0189 22.4191 12.9321 22.4017C12.8453 22.3843 12.7498 22.3757 12.6456 22.3757H7.9581ZM23.3227 38.0527L7.9581 33.5215C7.9581 34.2506 7.70636 34.867 7.20289 35.3704C6.69942 35.8739 6.0831 36.1257 5.35393 36.1257H3.99976C3.13171 36.1257 2.39386 35.8218 1.78622 35.2142C1.17858 34.6066 0.874763 33.8687 0.874763 33.0006V24.0423C0.874763 23.1743 1.17858 22.4364 1.78622 21.8288C2.39386 21.2211 3.13171 20.9173 3.99976 20.9173H12.5935C12.7671 20.9173 12.9494 20.9347 13.1404 20.9694C13.3314 21.0041 13.5137 21.0562 13.6873 21.1257L26.3435 25.7611L35.4581 34.8757L25.0935 38.0527C24.8157 38.1222 24.5206 38.1569 24.2081 38.1569C23.8956 38.1569 23.6005 38.1222 23.3227 38.0527ZM36.4477 36.9069C36.2741 37.0805 36.1005 37.1673 35.9268 37.1673C35.7532 37.1673 35.5796 37.0805 35.406 36.9069L0.66643 2.16732C0.527541 2.02843 0.449416 1.8635 0.432055 1.67253C0.414694 1.48155 0.492819 1.29926 0.66643 1.12565C0.840041 0.95204 1.01365 0.865234 1.18726 0.865234C1.36087 0.865234 1.53449 0.95204 1.7081 1.12565L36.4477 35.8652C36.5866 36.0041 36.6647 36.1691 36.6821 36.36C36.6994 36.551 36.6213 36.7333 36.4477 36.9069ZM2.3331 33.0006C2.3331 33.4868 2.48935 33.8861 2.80185 34.1986C3.11435 34.5111 3.51365 34.6673 3.99976 34.6673H4.8331C5.31921 34.6673 5.71851 34.5371 6.03101 34.2767C6.34351 34.0163 6.49976 33.5909 6.49976 33.0006V22.3757H3.99976C3.51365 22.3757 3.11435 22.5319 2.80185 22.8444C2.48935 23.1569 2.3331 23.5562 2.3331 24.0423V33.0006Z" fill="#1656A5"/>
</svg>
