<svg width="28" height="36" viewBox="0 0 28 36" fill="none" xmlns="http://www.w3.org/2000/svg">
<path d="M7.69531 16.4368C7.69531 17.8952 8.42448 19.2928 9.88281 20.6296C11.3411 21.9664 12.5391 23.0862 13.4766 23.9889C13.6502 24.1278 13.8238 24.1973 13.9974 24.1973C14.171 24.1973 14.3396 24.1309 14.5031 23.9983C15.4854 23.124 16.697 22.0098 18.138 20.6556C19.579 19.3014 20.2995 17.8952 20.2995 16.4368C20.2995 15.4993 19.9557 14.6921 19.2682 14.015C18.5811 13.3379 17.7616 12.9993 16.8099 12.9993C16.2196 12.9993 15.6788 13.1099 15.1875 13.3311C14.6965 13.5526 14.2998 13.8587 13.9974 14.2493C13.6849 13.8587 13.2812 13.5526 12.7865 13.3311C12.2917 13.1099 11.7578 12.9993 11.1849 12.9993C10.2474 12.9993 9.43142 13.3379 8.73698 14.015C8.04253 14.6921 7.69531 15.4993 7.69531 16.4368ZM13.9974 35.7598C13.8238 35.7598 13.6328 35.7424 13.4245 35.7077C13.2161 35.673 13.0248 35.6209 12.8505 35.5514C8.9276 33.9889 5.81163 31.4108 3.5026 27.8171C1.19358 24.2233 0.0390625 20.3257 0.0390625 16.1243V7.47852C0.0390625 6.80977 0.227952 6.20803 0.605729 5.67331C0.98316 5.13824 1.47135 4.75039 2.07031 4.50977L12.9036 0.499349C13.2856 0.36046 13.6502 0.291016 13.9974 0.291016C14.3446 0.291016 14.7092 0.36046 15.0911 0.499349L25.9245 4.50977C26.5234 4.75039 27.0118 5.13824 27.3896 5.67331C27.767 6.20803 27.9557 6.80977 27.9557 7.47852V16.1243C27.9557 20.3257 26.8012 24.2233 24.4922 27.8171C22.1832 31.4108 19.0672 33.9889 15.1443 35.5514C14.97 35.6209 14.7786 35.673 14.5703 35.7077C14.362 35.7424 14.171 35.7598 13.9974 35.7598ZM13.9974 34.4577C17.6085 33.3119 20.5946 31.0202 22.9557 27.5827C25.3168 24.1452 26.4974 20.3257 26.4974 16.1243V7.42643C26.4974 7.07921 26.4019 6.76671 26.2109 6.48893C26.02 6.21115 25.7509 6.00282 25.4036 5.86393L14.5703 1.85352C14.3967 1.78407 14.2057 1.74935 13.9974 1.74935C13.7891 1.74935 13.5981 1.78407 13.4245 1.85352L2.59115 5.86393C2.24392 6.00282 1.97483 6.21115 1.78385 6.48893C1.59288 6.76671 1.4974 7.07921 1.4974 7.42643V16.1243C1.4974 20.3257 2.67795 24.1452 5.03906 27.5827C7.40017 31.0202 10.3863 33.3119 13.9974 34.4577Z" fill="#1656A5"/>
</svg>
