<svg width="50" height="50" viewBox="0 0 50 50" fill="none" xmlns="http://www.w3.org/2000/svg">
<mask id="mask0_5126_18378" style="mask-type:alpha" maskUnits="userSpaceOnUse" x="0" y="0" width="50" height="50">
<rect width="50" height="50" fill="#D9D9D9"/>
</mask>
<g mask="url(#mask0_5126_18378)">
<path d="M24.2695 38.2292H20.832C20.6254 38.2292 20.4522 38.159 20.3122 38.0188C20.1727 37.8788 20.1029 37.7052 20.1029 37.4979C20.1029 37.291 20.1727 37.1181 20.3122 36.9792C20.4522 36.8403 20.6254 36.7708 20.832 36.7708H24.2695V29.8958C21.6306 29.6528 19.4084 28.5677 17.6029 26.6406C15.7973 24.7135 14.8945 22.4306 14.8945 19.7917C14.8945 16.9799 15.8754 14.5929 17.8372 12.6307C19.799 10.6686 22.1862 9.6875 24.9987 9.6875C27.8112 9.6875 30.1984 10.6686 32.1602 12.6307C34.122 14.5929 35.1029 16.9799 35.1029 19.7917C35.1029 22.4306 34.2001 24.7135 32.3945 26.6406C30.589 28.5677 28.3668 29.6528 25.7279 29.8958V36.7708H29.1654C29.372 36.7708 29.5451 36.841 29.6846 36.9812C29.8246 37.1212 29.8945 37.2948 29.8945 37.5021C29.8945 37.709 29.8246 37.8819 29.6846 38.0208C29.5451 38.1597 29.372 38.2292 29.1654 38.2292H25.7279V41.6667C25.7279 41.8733 25.6577 42.0465 25.5174 42.1865C25.3775 42.326 25.2039 42.3958 24.9966 42.3958C24.7897 42.3958 24.6168 42.326 24.4779 42.1865C24.339 42.0465 24.2695 41.8733 24.2695 41.6667V38.2292ZM25.007 28.4375C27.3973 28.4375 29.4345 27.5927 31.1185 25.9031C32.8025 24.2135 33.6445 22.1736 33.6445 19.7833C33.6445 17.3931 32.7997 15.3559 31.1102 13.6719C29.4206 11.9878 27.3806 11.1458 24.9904 11.1458C22.6001 11.1458 20.5629 11.9906 18.8789 13.6802C17.1949 15.3698 16.3529 17.4097 16.3529 19.8C16.3529 22.1903 17.1977 24.2274 18.8872 25.9115C20.5768 27.5955 22.6168 28.4375 25.007 28.4375Z" fill="#1656A5"/>
</g>
</svg>
