<svg width="50" height="50" viewBox="0 0 50 50" fill="none" xmlns="http://www.w3.org/2000/svg">
<mask id="mask0_5126_18402" style="mask-type:alpha" maskUnits="userSpaceOnUse" x="0" y="0" width="50" height="50">
<rect width="50" height="50" fill="#D9D9D9"/>
</mask>
<g mask="url(#mask0_5126_18402)">
<path d="M25.0013 42.7598C24.8277 42.7598 24.6367 42.7424 24.4284 42.7077C24.2201 42.673 24.0287 42.6209 23.8544 42.5514C19.9315 40.9889 16.8155 38.4108 14.5065 34.8171C12.1975 31.2233 11.043 27.3257 11.043 23.1243V14.4785C11.043 13.8098 11.2319 13.208 11.6096 12.6733C11.9871 12.1382 12.4753 11.7504 13.0742 11.5098L23.9076 7.49935C24.2895 7.36046 24.6541 7.29102 25.0013 7.29102C25.3485 7.29102 25.7131 7.36046 26.0951 7.49935L36.9284 11.5098C37.5273 11.7504 38.0157 12.1382 38.3935 12.6733C38.7709 13.208 38.9596 13.8098 38.9596 14.4785V23.1243C38.9596 27.3257 37.8051 31.2233 35.4961 34.8171C33.1871 38.4108 30.0711 40.9889 26.1482 42.5514C25.9739 42.6209 25.7826 42.673 25.5742 42.7077C25.3659 42.7424 25.1749 42.7598 25.0013 42.7598ZM25.0013 41.4577C28.6124 40.3119 31.5985 38.0202 33.9596 34.5827C36.3207 31.1452 37.5013 27.3257 37.5013 23.1243V14.4264C37.5013 14.0792 37.4058 13.7667 37.2148 13.4889C37.0239 13.2112 36.7548 13.0028 36.4076 12.8639L25.5742 8.85352C25.4006 8.78407 25.2096 8.74935 25.0013 8.74935C24.793 8.74935 24.602 8.78407 24.4284 8.85352L13.5951 12.8639C13.2478 13.0028 12.9787 13.2112 12.7878 13.4889C12.5968 13.7667 12.5013 14.0792 12.5013 14.4264V23.1243C12.5013 27.3257 13.6819 31.1452 16.043 34.5827C18.4041 38.0202 21.3902 40.3119 25.0013 41.4577Z" fill="#1656A5"/>
</g>
</svg>
