<svg width="50" height="50" viewBox="0 0 50 50" fill="none" xmlns="http://www.w3.org/2000/svg">
<mask id="mask0_5126_18390" style="mask-type:alpha" maskUnits="userSpaceOnUse" x="0" y="0" width="50" height="50">
<rect width="50" height="50" fill="#D9D9D9"/>
</mask>
<g mask="url(#mask0_5126_18390)">
<path d="M11.6654 21.9798C11.5265 21.8409 11.457 21.676 11.457 21.485C11.457 21.2941 11.5265 21.1118 11.6654 20.9382L16.6133 15.9902L13.5404 12.9694L11.9779 14.5319C11.8043 14.7055 11.622 14.7923 11.431 14.7923C11.24 14.7923 11.0751 14.7055 10.9362 14.5319C10.7626 14.393 10.6758 14.2281 10.6758 14.0371C10.6758 13.8461 10.7626 13.6638 10.9362 13.4902L15.1029 9.37565C15.2418 9.20204 15.4067 9.11523 15.5977 9.11523C15.7886 9.11523 15.9709 9.20204 16.1445 9.37565C16.2834 9.51454 16.3529 9.67947 16.3529 9.87044C16.3529 10.0614 16.2834 10.2263 16.1445 10.3652L14.5299 11.9798L17.6029 15.0007L22.5508 10.0527C22.7244 9.87912 22.9067 9.79232 23.0977 9.79232C23.2886 9.79232 23.4536 9.87912 23.5924 10.0527C23.7661 10.1916 23.8529 10.3566 23.8529 10.5475C23.8529 10.7385 23.7661 10.9208 23.5924 11.0944L22.4987 12.1882L36.3008 25.9902C36.9258 26.6152 37.2383 27.3618 37.2383 28.2298C37.2383 29.0979 36.9258 29.827 36.3008 30.4173L34.6862 32.0319L41.9779 39.3236C42.1168 39.4625 42.1515 39.61 42.082 39.7663C42.0126 39.9225 41.8911 40.0007 41.7174 40.0007H41.1966C40.9883 40.0007 40.7973 39.9659 40.6237 39.8965C40.4501 39.827 40.2765 39.7055 40.1029 39.5319L33.6445 33.0736L32.0299 34.6882C31.4397 35.2784 30.7105 35.5736 29.8424 35.5736C28.9744 35.5736 28.2279 35.2784 27.6029 34.6882L13.8008 20.8861L12.707 21.9798C12.5334 22.1534 12.3598 22.2402 12.1862 22.2402C12.0126 22.2402 11.839 22.1534 11.6654 21.9798ZM14.7904 19.8965L28.5924 33.6986C28.9397 34.0111 29.339 34.1673 29.7904 34.1673C30.2418 34.1673 30.6411 34.0111 30.9883 33.6986L35.2591 29.3757C35.6063 29.0632 35.7799 28.6725 35.7799 28.2038C35.7799 27.735 35.6063 27.3444 35.2591 27.0319L32.3424 24.0632L29.0612 27.3444C28.8876 27.518 28.714 27.6048 28.5404 27.6048C28.3668 27.6048 28.2105 27.5354 28.0716 27.3965C27.898 27.2576 27.8112 27.0927 27.8112 26.9017C27.8112 26.7107 27.898 26.5284 28.0716 26.3548L31.3529 23.0736L26.6133 18.3861L23.332 21.6673C23.1931 21.8062 23.0282 21.8757 22.8372 21.8757C22.6463 21.8757 22.464 21.8062 22.2904 21.6673C22.1515 21.4937 22.082 21.3114 22.082 21.1204C22.082 20.9295 22.1515 20.7645 22.2904 20.6257L25.5716 17.3444L21.457 13.2298L14.7904 19.8965Z" fill="#1656A5"/>
</g>
</svg>
