<svg width="50" height="50" viewBox="0 0 50 50" fill="none" xmlns="http://www.w3.org/2000/svg">
<mask id="mask0_3596_5559" style="mask-type:alpha" maskUnits="userSpaceOnUse" x="0" y="0" width="50" height="50">
<rect width="50" height="50" fill="#D9D9D9"/>
</mask>
<g mask="url(#mask0_3596_5559)">
<path d="M25 42.3438C24.7222 42.3438 24.4444 42.3004 24.1667 42.2135C23.8889 42.1267 23.6285 41.9792 23.3854 41.7708C22.1354 40.625 20.7813 39.2622 19.3229 37.6823C17.8646 36.1024 16.5017 34.4271 15.2344 32.6562C13.967 30.8854 12.908 29.0451 12.0573 27.1354C11.2066 25.2257 10.7812 23.3507 10.7812 21.5104C10.7812 17.3438 12.1441 13.8628 14.8698 11.0677C17.5955 8.27257 20.9722 6.875 25 6.875C29.0278 6.875 32.4045 8.27257 35.1302 11.0677C37.8559 13.8628 39.2188 17.3438 39.2188 21.5104C39.2188 23.3507 38.7934 25.217 37.9427 27.1094C37.092 29.0017 36.0417 30.842 34.7917 32.6302C33.5417 34.4184 32.1875 36.0938 30.7292 37.6562C29.2708 39.2188 27.9167 40.5729 26.6667 41.7188C26.4236 41.9271 26.1545 42.0833 25.8594 42.1875C25.5642 42.2917 25.2778 42.3438 25 42.3438ZM25 31.6146C25.3125 31.6146 25.5816 31.5017 25.8073 31.276C26.033 31.0503 26.1458 30.7812 26.1458 30.4688C26.1458 30.1562 26.033 29.8872 25.8073 29.6615C25.5816 29.4358 25.3125 29.3229 25 29.3229C24.6875 29.3229 24.4184 29.4358 24.1927 29.6615C23.967 29.8872 23.8542 30.1562 23.8542 30.4688C23.8542 30.7812 23.967 31.0503 24.1927 31.276C24.4184 31.5017 24.6875 31.6146 25 31.6146ZM25.0521 26.0938C25.2604 26.0938 25.4253 26.0069 25.5469 25.8333C25.6684 25.6597 25.7292 25.4688 25.7292 25.2604C25.7292 24.9826 25.8073 24.6701 25.9635 24.3229C26.1198 23.9757 26.3368 23.6458 26.6146 23.3333C26.8576 23.0556 27.1267 22.7951 27.4219 22.5521C27.717 22.309 28.0208 22.0312 28.3333 21.7188C28.9583 21.0938 29.4097 20.4774 29.6875 19.8698C29.9653 19.2622 30.1042 18.5938 30.1042 17.8646C30.1042 16.5799 29.6181 15.5122 28.6458 14.6615C27.6736 13.8108 26.5278 13.3854 25.2083 13.3854C24.2361 13.3854 23.3333 13.6111 22.5 14.0625C21.6667 14.5139 20.9896 15.1389 20.4688 15.9375C20.3646 16.1111 20.3385 16.2934 20.3906 16.4844C20.4427 16.6753 20.5556 16.8229 20.7292 16.9271C20.9028 17.0312 21.0851 17.066 21.276 17.0312C21.467 16.9965 21.6146 16.8924 21.7188 16.7188C22.1007 16.1285 22.6042 15.6684 23.2292 15.3385C23.8542 15.0087 24.5139 14.8438 25.2083 14.8438C26.1111 14.8438 26.9097 15.1215 27.6042 15.6771C28.2986 16.2326 28.6458 16.9618 28.6458 17.8646C28.6458 18.5243 28.4983 19.1059 28.2031 19.6094C27.908 20.1128 27.3611 20.7465 26.5625 21.5104L25.9115 22.1615C25.651 22.4219 25.4167 22.691 25.2083 22.9688C24.9306 23.3507 24.7222 23.7153 24.5833 24.0625C24.4444 24.4097 24.375 24.7569 24.375 25.1042C24.375 25.3472 24.4358 25.5729 24.5573 25.7813C24.6788 25.9896 24.8438 26.0938 25.0521 26.0938ZM25 41.1979C28.8194 37.934 31.901 34.4878 34.2448 30.8594C36.5885 27.2309 37.7604 24.1146 37.7604 21.5104C37.7604 17.691 36.5538 14.5312 34.1406 12.0312C31.7274 9.53125 28.6806 8.28125 25 8.28125C21.3194 8.28125 18.2726 9.53125 15.8594 12.0312C13.4462 14.5312 12.2396 17.691 12.2396 21.5104C12.2396 24.1146 13.4115 27.2309 15.7552 30.8594C18.099 34.4878 21.1806 37.934 25 41.1979Z" fill="#1656A5"/>
</g>
</svg>
