<svg width="50" height="50" viewBox="0 0 50 50" fill="none" xmlns="http://www.w3.org/2000/svg">
<mask id="mask0_5126_18384" style="mask-type:alpha" maskUnits="userSpaceOnUse" x="0" y="0" width="50" height="50">
<rect width="50" height="50" fill="#D9D9D9"/>
</mask>
<g mask="url(#mask0_5126_18384)">
<path d="M6.875 24.2708C7.04861 19.4097 8.88889 15.2951 12.3958 11.9271C15.9028 8.55903 20.1042 6.875 25 6.875C27.5 6.875 29.8524 7.35243 32.0573 8.30729C34.2622 9.26215 36.1806 10.5556 37.8125 12.1875C39.4444 13.8194 40.7379 15.7378 41.6927 17.9427C42.6476 20.1476 43.125 22.5 43.125 25C43.125 27.5 42.6476 29.8524 41.6927 32.0573C40.7379 34.2622 39.4444 36.1806 37.8125 37.8125C36.1806 39.4444 34.2622 40.7379 32.0573 41.6927C29.8524 42.6476 27.5 43.125 25 43.125C23.3333 43.125 21.6753 42.8733 20.026 42.3698C18.3767 41.8663 16.7708 41.1285 15.2083 40.1563C15 40.0174 14.8872 39.8438 14.8698 39.6354C14.8524 39.4271 14.9306 39.2361 15.1042 39.0625C15.2083 38.9583 15.3472 38.8976 15.5208 38.8802C15.6944 38.8629 15.8507 38.8889 15.9896 38.9583C17.3785 39.8611 18.8281 40.5382 20.3385 40.9896C21.849 41.441 23.4028 41.6667 25 41.6667C29.6528 41.6667 33.5938 40.0521 36.8229 36.8229C40.0521 33.5938 41.6667 29.6528 41.6667 25C41.6667 20.3472 40.0521 16.4063 36.8229 13.1771C33.5938 9.94792 29.6528 8.33333 25 8.33333C20.4861 8.33333 16.6233 9.86979 13.4115 12.9427C10.1997 16.0156 8.50694 19.7917 8.33333 24.2708C8.33333 24.4792 8.26389 24.6528 8.125 24.7917C7.98611 24.9306 7.8125 25 7.60417 25C7.39583 25 7.22222 24.9306 7.08333 24.7917C6.94444 24.6528 6.875 24.4792 6.875 24.2708ZM34.2188 20.9896V27.6563C34.2188 27.8646 34.2882 28.0382 34.4271 28.1771C34.566 28.316 34.7396 28.3854 34.9479 28.3854C35.1563 28.3854 35.3299 28.316 35.4688 28.1771C35.6076 28.0382 35.6771 27.8646 35.6771 27.6563V20.0521C35.6771 19.6007 35.5295 19.2274 35.2344 18.9323C34.9392 18.6372 34.566 18.4896 34.1146 18.4896H26.5104C26.3021 18.4896 26.1285 18.559 25.9896 18.6979C25.8507 18.8368 25.7813 19.0104 25.7813 19.2188C25.7813 19.4271 25.8507 19.6007 25.9896 19.7396C26.1285 19.8785 26.3021 19.9479 26.5104 19.9479H33.0729L22.9167 30.2083L17.7604 25.8854C17.4479 25.6076 17.092 25.4861 16.6927 25.5208C16.2934 25.5556 15.9549 25.7118 15.6771 25.9896L9.11458 32.5C8.97569 32.6389 8.89757 32.7865 8.88021 32.9427C8.86285 33.099 8.88889 33.2639 8.95833 33.4375C9.09722 33.6806 9.29688 33.8108 9.55729 33.8281C9.81771 33.8455 10.0347 33.7674 10.2083 33.5938L16.6667 27.0833L21.8229 31.3542C22.1354 31.6319 22.4913 31.7622 22.8906 31.7448C23.2899 31.7274 23.6285 31.5799 23.9063 31.3021L34.2188 20.9896Z" fill="#1656A5"/>
</g>
</svg>
