<svg width="50" height="50" viewBox="0 0 50 50" fill="none" xmlns="http://www.w3.org/2000/svg">
<mask id="mask0_3596_5567" style="mask-type:alpha" maskUnits="userSpaceOnUse" x="0" y="0" width="50" height="50">
<rect width="50" height="50" fill="#D9D9D9"/>
</mask>
<g mask="url(#mask0_3596_5567)">
<path d="M13.1263 44.7923C13.1263 39.9312 14.0985 36.1986 16.043 33.5944C17.9874 30.9902 20.6089 28.1257 23.9076 25.0007C20.5742 21.8757 17.9353 19.0111 15.9909 16.4069C14.0464 13.8027 13.0742 10.0701 13.0742 5.20898V4.68815C13.0742 4.47982 13.1437 4.30621 13.2826 4.16732C13.4214 4.02843 13.5951 3.95898 13.8034 3.95898C14.0117 3.95898 14.1853 4.02843 14.3242 4.16732C14.4631 4.30621 14.5326 4.47982 14.5326 4.68815V5.20898C14.5326 6.0076 14.5586 6.77148 14.6107 7.50065C14.6628 8.22982 14.7582 8.92426 14.8971 9.58398H35.0534C35.1923 8.92426 35.2878 8.22982 35.3398 7.50065C35.3919 6.77148 35.418 6.0076 35.418 5.20898V4.68815C35.418 4.47982 35.4874 4.30621 35.6263 4.16732C35.7652 4.02843 35.9388 3.95898 36.1471 3.95898C36.3555 3.95898 36.5291 4.02843 36.668 4.16732C36.8069 4.30621 36.8763 4.47982 36.8763 4.68815V5.20898C36.8763 10.0701 35.9041 13.8027 33.9596 16.4069C32.0152 19.0111 29.3937 21.8757 26.0951 25.0007C29.3937 28.0909 32.0152 30.9468 33.9596 33.5684C35.9041 36.1899 36.8763 39.9312 36.8763 44.7923V45.3132C36.8763 45.5215 36.8069 45.6951 36.668 45.834C36.5291 45.9729 36.3555 46.0423 36.1471 46.0423C35.9388 46.0423 35.7652 45.9729 35.6263 45.834C35.4874 45.6951 35.418 45.5215 35.418 45.3132V44.7923C35.418 43.9937 35.3919 43.2298 35.3398 42.5007C35.2878 41.7715 35.1923 41.077 35.0534 40.4173H14.9492C14.8103 41.077 14.7148 41.7715 14.6628 42.5007C14.6107 43.2298 14.5846 43.9937 14.5846 44.7923V45.3132C14.5846 45.5215 14.5152 45.6951 14.3763 45.834C14.2374 45.9729 14.0638 46.0423 13.8555 46.0423C13.6471 46.0423 13.4735 45.9729 13.3346 45.834C13.1957 45.6951 13.1263 45.5215 13.1263 45.3132V44.7923ZM18.3867 17.2923H31.5638C32.2582 16.3895 32.8832 15.426 33.4388 14.4017C33.9944 13.3774 34.4284 12.2576 34.7409 11.0423H15.2096C15.5569 12.2576 15.9909 13.3687 16.5117 14.3757C17.0326 15.3826 17.6576 16.3548 18.3867 17.2923ZM25.0013 24.0111C26.0082 23.0736 26.9544 22.1708 27.8398 21.3027C28.7253 20.4347 29.5499 19.584 30.3138 18.7507H19.6367C20.4006 19.584 21.2339 20.4347 22.1367 21.3027C23.0395 22.1708 23.9944 23.0736 25.0013 24.0111ZM19.6888 31.2507H30.3138C29.5499 30.4173 28.7253 29.5666 27.8398 28.6986C26.9544 27.8305 26.0082 26.9277 25.0013 25.9902C23.9944 26.9277 23.0482 27.8305 22.1628 28.6986C21.2773 29.5666 20.4527 30.4173 19.6888 31.2507ZM15.2617 38.959H34.7409C34.3937 37.7437 33.9596 36.6326 33.4388 35.6257C32.918 34.6187 32.293 33.6465 31.5638 32.709H18.4388C17.7096 33.6465 17.076 34.6187 16.5378 35.6257C15.9996 36.6326 15.5742 37.7437 15.2617 38.959Z" fill="#1656A5"/>
</g>
</svg>
