<svg width="36" height="36" viewBox="0 0 36 36" fill="none" xmlns="http://www.w3.org/2000/svg">
<path d="M13.418 35.7084C12.5499 35.7084 11.8121 35.4046 11.2044 34.797C10.5968 34.1893 10.293 33.4515 10.293 32.5834V25.7084H3.41797C2.54991 25.7084 1.81207 25.4046 1.20443 24.797C0.596788 24.1893 0.292969 23.4515 0.292969 22.5834V13.4167C0.292969 12.5487 0.596788 11.8108 1.20443 11.2032C1.81207 10.5956 2.54991 10.2917 3.41797 10.2917H10.293V3.41675C10.293 2.54869 10.5968 1.81085 11.2044 1.20321C11.8121 0.595567 12.5499 0.291748 13.418 0.291748H22.5846C23.4527 0.291748 24.1905 0.595567 24.7982 1.20321C25.4058 1.81085 25.7096 2.54869 25.7096 3.41675V10.2917H32.5846C33.4527 10.2917 34.1905 10.5956 34.7982 11.2032C35.4058 11.8108 35.7096 12.5487 35.7096 13.4167V22.5834C35.7096 23.4515 35.4058 24.1893 34.7982 24.797C34.1905 25.4046 33.4527 25.7084 32.5846 25.7084H25.7096V32.5834C25.7096 33.4515 25.4058 34.1893 24.7982 34.797C24.1905 35.4046 23.4527 35.7084 22.5846 35.7084H13.418ZM1.7513 17.2709H11.7513C11.8902 17.2709 12.003 17.297 12.0898 17.349C12.1767 17.4011 12.2548 17.4792 12.3242 17.5834L15.7096 22.6355L19.4076 11.5417C19.477 11.3681 19.5638 11.2379 19.668 11.1511C19.7721 11.0643 19.911 11.0209 20.0846 11.0209C20.2235 11.0209 20.3451 11.047 20.4492 11.099C20.5534 11.1511 20.6402 11.2292 20.7096 11.3334L24.6159 17.2709H34.2513V13.4167C34.2513 12.9306 34.0951 12.5313 33.7826 12.2188C33.4701 11.9063 33.0707 11.7501 32.5846 11.7501H25.8138C25.3624 11.7501 24.9892 11.6025 24.694 11.3074C24.3989 11.0122 24.2513 10.639 24.2513 10.1876V3.41675C24.2513 2.93064 24.0951 2.53133 23.7826 2.21883C23.4701 1.90633 23.0707 1.75008 22.5846 1.75008H13.418C12.9319 1.75008 12.5326 1.90633 12.2201 2.21883C11.9076 2.53133 11.7513 2.93064 11.7513 3.41675V10.1876C11.7513 10.639 11.6037 11.0122 11.3086 11.3074C11.0135 11.6025 10.6402 11.7501 10.1888 11.7501H3.41797C2.93186 11.7501 2.53255 11.9063 2.22005 12.2188C1.90755 12.5313 1.7513 12.9306 1.7513 13.4167V17.2709ZM1.7513 18.7292V22.5834C1.7513 23.0695 1.90755 23.4688 2.22005 23.7813C2.53255 24.0938 2.93186 24.2501 3.41797 24.2501H10.1888C10.6402 24.2501 11.0135 24.3977 11.3086 24.6928C11.6037 24.9879 11.7513 25.3612 11.7513 25.8126V32.5834C11.7513 33.0695 11.9076 33.4688 12.2201 33.7813C12.5326 34.0938 12.9319 34.2501 13.418 34.2501H22.5846C23.0707 34.2501 23.4701 34.0938 23.7826 33.7813C24.0951 33.4688 24.2513 33.0695 24.2513 32.5834V25.8126C24.2513 25.3612 24.3989 24.9879 24.694 24.6928C24.9892 24.3977 25.3624 24.2501 25.8138 24.2501H32.5846C33.0707 24.2501 33.4701 24.0938 33.7826 23.7813C34.0951 23.4688 34.2513 23.0695 34.2513 22.5834V18.7292H24.2513C24.1124 18.7292 23.9909 18.6945 23.8867 18.6251C23.7826 18.5556 23.6957 18.4688 23.6263 18.3647L20.293 13.3647L16.5951 24.4584C16.5256 24.632 16.4301 24.7622 16.3086 24.849C16.1871 24.9358 16.0395 24.9792 15.8659 24.9792C15.727 24.9792 15.6142 24.9532 15.5273 24.9011C15.4405 24.849 15.3624 24.7709 15.293 24.6667L11.3346 18.7292H1.7513Z" fill="#1656A5"/>
</svg>
