<svg width="34" height="34" viewBox="0 0 34 34" fill="none" xmlns="http://www.w3.org/2000/svg">
<path d="M16.2695 31.5834V23.3542C14.2904 23.2848 12.5803 22.599 11.1393 21.2969C9.69835 19.9948 8.83898 18.3542 8.5612 16.375C6.47787 16.132 4.68967 15.2987 3.19661 13.875C1.70356 12.4514 0.957031 10.7153 0.957031 8.66671V8.25004C0.957031 7.39067 1.26311 6.6549 1.87526 6.04275C2.48707 5.43094 3.22266 5.12504 4.08203 5.12504H8.35287V4.08337C8.35287 3.224 8.65894 2.48823 9.27109 1.87608C9.8829 1.26428 10.6185 0.958374 11.4779 0.958374H22.5195C23.3789 0.958374 24.1147 1.26428 24.7268 1.87608C25.3386 2.48823 25.6445 3.224 25.6445 4.08337V5.12504H29.9154C30.7747 5.12504 31.5105 5.43094 32.1227 6.04275C32.7345 6.6549 33.0404 7.39067 33.0404 8.25004V8.66671C33.0404 10.7153 32.2938 12.4514 30.8008 13.875C29.3077 15.2987 27.5195 16.132 25.4362 16.375C25.1584 18.3542 24.299 19.9948 22.8581 21.2969C21.4171 22.599 19.707 23.2848 17.7279 23.3542V31.5834H22.9362C23.1428 31.5834 23.3159 31.6535 23.4555 31.7938C23.5954 31.9337 23.6654 32.1073 23.6654 32.3146C23.6654 32.5216 23.5954 32.6945 23.4555 32.8334C23.3159 32.9723 23.1428 33.0417 22.9362 33.0417H11.0612C10.8546 33.0417 10.6813 32.9716 10.5414 32.8313C10.4018 32.6914 10.332 32.5178 10.332 32.3105C10.332 32.1035 10.4018 31.9306 10.5414 31.7917C10.6813 31.6528 10.8546 31.5834 11.0612 31.5834H16.2695ZM8.35287 14.8125V6.58337H4.08203C3.59592 6.58337 3.19661 6.73962 2.88411 7.05212C2.57161 7.36462 2.41536 7.76393 2.41536 8.25004V8.66671C2.41536 10.2987 2.98828 11.7049 4.13411 12.8855C5.27995 14.066 6.6862 14.7084 8.35287 14.8125ZM17.0112 21.8959C18.982 21.8959 20.6532 21.2072 22.0247 19.8297C23.3963 18.4526 24.082 16.7803 24.082 14.8125V4.08337C24.082 3.59726 23.9258 3.19796 23.6133 2.88546C23.3008 2.57296 22.9015 2.41671 22.4154 2.41671H11.582C11.0959 2.41671 10.6966 2.57296 10.3841 2.88546C10.0716 3.19796 9.91537 3.59726 9.91537 4.08337V14.8125C9.91537 16.7803 10.6053 18.4526 11.9852 19.8297C13.3647 21.2072 15.04 21.8959 17.0112 21.8959ZM25.6445 14.8125C27.3112 14.7084 28.7174 14.066 29.8633 12.8855C31.0091 11.7049 31.582 10.2987 31.582 8.66671V8.25004C31.582 7.76393 31.4258 7.36462 31.1133 7.05212C30.8008 6.73962 30.4015 6.58337 29.9154 6.58337H25.6445V14.8125Z" fill="#1656A5"/>
</svg>
