<svg width="50" height="50" viewBox="0 0 50 50" fill="none" xmlns="http://www.w3.org/2000/svg">
<mask id="mask0_2169_2690" style="mask-type:alpha" maskUnits="userSpaceOnUse" x="0" y="0" width="50" height="50">
<rect width="50" height="50" fill="#D9D9D9"/>
</mask>
<g mask="url(#mask0_2169_2690)">
<path d="M24.2695 39.5834V31.3542C22.2904 31.2848 20.5803 30.599 19.1393 29.2969C17.6984 27.9948 16.839 26.3542 16.5612 24.375C14.4779 24.132 12.6897 23.2987 11.1966 21.875C9.70356 20.4514 8.95703 18.7153 8.95703 16.6667V16.25C8.95703 15.3907 9.26311 14.6549 9.87526 14.0427C10.4871 13.4309 11.2227 13.125 12.082 13.125H16.3529V12.0834C16.3529 11.224 16.6589 10.4882 17.2711 9.87608C17.8829 9.26428 18.6185 8.95837 19.4779 8.95837H30.5195C31.3789 8.95837 32.1147 9.26428 32.7268 9.87608C33.3386 10.4882 33.6445 11.224 33.6445 12.0834V13.125H37.9154C38.7747 13.125 39.5105 13.4309 40.1227 14.0427C40.7345 14.6549 41.0404 15.3907 41.0404 16.25V16.6667C41.0404 18.7153 40.2938 20.4514 38.8008 21.875C37.3077 23.2987 35.5195 24.132 33.4362 24.375C33.1584 26.3542 32.299 27.9948 30.8581 29.2969C29.4171 30.599 27.707 31.2848 25.7279 31.3542V39.5834H30.9362C31.1428 39.5834 31.3159 39.6535 31.4555 39.7938C31.5954 39.9337 31.6654 40.1073 31.6654 40.3146C31.6654 40.5216 31.5954 40.6945 31.4555 40.8334C31.3159 40.9723 31.1428 41.0417 30.9362 41.0417H19.0612C18.8546 41.0417 18.6813 40.9716 18.5414 40.8313C18.4018 40.6914 18.332 40.5178 18.332 40.3105C18.332 40.1035 18.4018 39.9306 18.5414 39.7917C18.6813 39.6528 18.8546 39.5834 19.0612 39.5834H24.2695ZM16.3529 22.8125V14.5834H12.082C11.5959 14.5834 11.1966 14.7396 10.8841 15.0521C10.5716 15.3646 10.4154 15.7639 10.4154 16.25V16.6667C10.4154 18.2987 10.9883 19.7049 12.1341 20.8855C13.2799 22.066 14.6862 22.7084 16.3529 22.8125ZM25.0112 29.8959C26.982 29.8959 28.6532 29.2072 30.0247 27.8297C31.3963 26.4526 32.082 24.7803 32.082 22.8125V12.0834C32.082 11.5973 31.9258 11.198 31.6133 10.8855C31.3008 10.573 30.9015 10.4167 30.4154 10.4167H19.582C19.0959 10.4167 18.6966 10.573 18.3841 10.8855C18.0716 11.198 17.9154 11.5973 17.9154 12.0834V22.8125C17.9154 24.7803 18.6053 26.4526 19.9852 27.8297C21.3647 29.2072 23.04 29.8959 25.0112 29.8959ZM33.6445 22.8125C35.3112 22.7084 36.7174 22.066 37.8633 20.8855C39.0091 19.7049 39.582 18.2987 39.582 16.6667V16.25C39.582 15.7639 39.4258 15.3646 39.1133 15.0521C38.8008 14.7396 38.4015 14.5834 37.9154 14.5834H33.6445V22.8125Z" fill="#1656A5"/>
</g>
</svg>
