<svg width="24" height="31" viewBox="0 0 24 31" fill="none" xmlns="http://www.w3.org/2000/svg">
<path d="M9.08333 19.6042V14.0834H16.0625C16.375 14.0834 16.6007 13.9445 16.7396 13.6667C16.8785 13.3889 16.8611 13.1112 16.6875 12.8334L15.125 10.75L16.6875 8.66671C16.8611 8.38893 16.8785 8.11115 16.7396 7.83337C16.6007 7.5556 16.375 7.41671 16.0625 7.41671H9.1875C8.73611 7.41671 8.36285 7.56428 8.06771 7.85942C7.77257 8.15455 7.625 8.52782 7.625 8.97921V19.6042C7.625 19.8125 7.69445 19.9862 7.83333 20.125C7.97222 20.2639 8.14583 20.3334 8.35417 20.3334C8.5625 20.3334 8.73611 20.2639 8.875 20.125C9.01389 19.9862 9.08333 19.8125 9.08333 19.6042ZM12 26.5834L4.5 29.8125C3.45833 30.2639 2.46875 30.1771 1.53125 29.5521C0.59375 28.9271 0.125 28.0591 0.125 26.948V4.08337C0.125 3.1806 0.420139 2.43407 1.01042 1.84379C1.60069 1.25351 2.34722 0.958374 3.25 0.958374H20.75C21.6528 0.958374 22.3993 1.25351 22.9896 1.84379C23.5799 2.43407 23.875 3.1806 23.875 4.08337V26.948C23.875 28.0591 23.4063 28.9271 22.4688 29.5521C21.5313 30.1771 20.5417 30.2639 19.5 29.8125L12 26.5834ZM12 24.9167L20.0729 28.4063C20.6285 28.6493 21.158 28.5973 21.6615 28.25C22.1649 27.9028 22.4167 27.4341 22.4167 26.8438V4.08337C22.4167 3.66671 22.2431 3.28476 21.8958 2.93754C21.5486 2.59032 21.1667 2.41671 20.75 2.41671H3.25C2.83333 2.41671 2.45139 2.59032 2.10417 2.93754C1.75694 3.28476 1.58333 3.66671 1.58333 4.08337V26.8438C1.58333 27.4341 1.83507 27.9028 2.33854 28.25C2.84201 28.5973 3.37153 28.6493 3.92708 28.4063L12 24.9167Z" fill="#1656A5"/>
</svg>
