<svg width="24" height="38" viewBox="0 0 24 38" fill="none" xmlns="http://www.w3.org/2000/svg">
<path d="M3.25 37.125C2.34722 37.125 1.60069 36.8299 1.01042 36.2396C0.420139 35.6493 0.125 34.9028 0.125 34V15.6146C0.125 14.7118 0.420139 13.9653 1.01042 13.375C1.60069 12.7847 2.34722 12.4896 3.25 12.4896H20.75C21.6528 12.4896 22.3993 12.7847 22.9896 13.375C23.5799 13.9653 23.875 14.7118 23.875 15.6146V34C23.875 34.9028 23.5799 35.6493 22.9896 36.2396C22.3993 36.8299 21.6528 37.125 20.75 37.125H3.25ZM3.25 35.6667H20.75C21.2361 35.6667 21.6354 35.5104 21.9479 35.1979C22.2604 34.8854 22.4167 34.4861 22.4167 34V15.6146C22.4167 15.1285 22.2604 14.7292 21.9479 14.4167C21.6354 14.1042 21.2361 13.9479 20.75 13.9479H3.25C2.76389 13.9479 2.36458 14.1042 2.05208 14.4167C1.73958 14.7292 1.58333 15.1285 1.58333 15.6146V34C1.58333 34.4861 1.73958 34.8854 2.05208 35.1979C2.36458 35.5104 2.76389 35.6667 3.25 35.6667ZM11.375 32.0729H12.625C12.8194 32.0729 12.9896 32 13.1354 31.8542C13.2813 31.7083 13.3542 31.5382 13.3542 31.3438C13.3542 31.1493 13.2813 30.9792 13.1354 30.8333C12.9896 30.6875 12.8194 30.6146 12.625 30.6146H11.375C11.1806 30.6146 11.0104 30.6875 10.8646 30.8333C10.7188 30.9792 10.6458 31.1493 10.6458 31.3438C10.6458 31.5382 10.7188 31.7083 10.8646 31.8542C11.0104 32 11.1806 32.0729 11.375 32.0729ZM11.2708 28.5313H12.7292C12.9028 28.5313 13.0417 28.4705 13.1458 28.349C13.25 28.2274 13.3021 28.0799 13.3021 27.9063C13.3566 27.3455 13.4658 26.8146 13.6297 26.3135C13.7932 25.8129 14.0139 25.3194 14.2917 24.8333C14.5694 24.3472 14.8385 23.8611 15.099 23.375C15.3594 22.8889 15.4896 22.3681 15.4896 21.8125C15.4896 20.8247 15.1523 19.9875 14.4776 19.301C13.803 18.6142 12.9771 18.2708 12 18.2708C11.0083 18.2708 10.1701 18.6094 9.48542 19.2865C8.8007 19.9635 8.45833 20.8056 8.45833 21.8125C8.45833 22.3563 8.58854 22.8741 8.84896 23.3661C9.10938 23.8582 9.37847 24.3472 9.65625 24.8333C9.93403 25.3194 10.1615 25.8221 10.3385 26.3411C10.5156 26.8602 10.6354 27.3993 10.6979 27.9583C10.7326 28.1319 10.7934 28.2708 10.8802 28.375C10.967 28.4792 11.0972 28.5313 11.2708 28.5313ZM2.67708 8.11458C2.46632 8.11458 2.29219 8.04601 2.15469 7.90885C2.01684 7.77135 1.94792 7.59774 1.94792 7.38802C1.94792 7.17795 2.01684 7.00347 2.15469 6.86458C2.29219 6.72569 2.46632 6.65625 2.67708 6.65625H21.2708C21.4816 6.65625 21.6557 6.72483 21.7932 6.86198C21.9311 6.99948 22 7.17309 22 7.38281C22 7.59288 21.9311 7.76736 21.7932 7.90625C21.6557 8.04514 21.4816 8.11458 21.2708 8.11458H2.67708ZM4.55208 2.33333C4.34132 2.33333 4.16719 2.26476 4.02969 2.1276C3.89184 1.9901 3.82292 1.81649 3.82292 1.60677C3.82292 1.3967 3.89184 1.22222 4.02969 1.08333C4.16719 0.944444 4.34132 0.875 4.55208 0.875H19.3958C19.6066 0.875 19.7807 0.943577 19.9182 1.08073C20.0561 1.21823 20.125 1.39184 20.125 1.60156C20.125 1.81163 20.0561 1.98611 19.9182 2.125C19.7807 2.26389 19.6066 2.33333 19.3958 2.33333H4.55208Z" fill="#1656A5"/>
</svg>
