<svg width="50" height="50" viewBox="0 0 50 50" fill="none" xmlns="http://www.w3.org/2000/svg">
<mask id="mask0_3641_5380" style="mask-type:alpha" maskUnits="userSpaceOnUse" x="0" y="0" width="50" height="50">
<rect width="50" height="50" fill="#D9D9D9"/>
</mask>
<g mask="url(#mask0_3641_5380)">
<path d="M15.417 33.7507H13.1253C12.266 33.7507 11.5304 33.4446 10.9186 32.8324C10.3064 32.2206 10.0003 31.485 10.0003 30.6257V15.6257H9.27116C9.06456 15.6257 8.8913 15.5555 8.75137 15.4152C8.61178 15.2753 8.54199 15.1017 8.54199 14.8944C8.54199 14.6875 8.61178 14.5145 8.75137 14.3757C8.8913 14.2368 9.06456 14.1673 9.27116 14.1673H15.417V10.4173H13.542C13.3354 10.4173 13.1621 10.3472 13.0222 10.2069C12.8826 10.067 12.8128 9.89336 12.8128 9.68607C12.8128 9.47912 12.8826 9.30621 13.0222 9.16732C13.1621 9.02843 13.3354 8.95898 13.542 8.95898H18.7503C18.9569 8.95898 19.1302 9.02912 19.2701 9.1694C19.4097 9.30933 19.4795 9.48294 19.4795 9.69023C19.4795 9.89718 19.4097 10.0701 19.2701 10.209C19.1302 10.3479 18.9569 10.4173 18.7503 10.4173H16.8753V14.1673H23.0212C23.2278 14.1673 23.401 14.2375 23.541 14.3777C23.6805 14.5177 23.7503 14.6913 23.7503 14.8986C23.7503 15.1055 23.6805 15.2784 23.541 15.4173C23.401 15.5562 23.2278 15.6257 23.0212 15.6257H22.292V30.6257C22.292 31.485 21.9861 32.2206 21.3743 32.8324C20.7621 33.4446 20.0264 33.7507 19.167 33.7507H16.8753V41.8236C16.8753 41.9798 16.8059 42.097 16.667 42.1751C16.5281 42.2533 16.3892 42.2402 16.2503 42.1361L15.7087 41.7194C15.6184 41.65 15.5472 41.5618 15.4951 41.4548C15.443 41.3482 15.417 41.2281 15.417 41.0944V33.7507ZM33.8425 41.459C32.1491 41.459 30.7034 40.8572 29.5055 39.6538C28.3076 38.45 27.7087 37.0031 27.7087 35.3132V21.3548C27.7087 19.6649 28.3116 18.218 29.5175 17.0142C30.7234 15.8107 32.1731 15.209 33.8665 15.209C35.5599 15.209 37.0055 15.8107 38.2034 17.0142C39.4014 18.218 40.0003 19.6649 40.0003 21.3548V35.3132C40.0003 37.0031 39.3974 38.45 38.1915 39.6538C36.9856 40.8572 35.5359 41.459 33.8425 41.459ZM13.1253 32.2923H19.167C19.6531 32.2923 20.0524 32.1361 20.3649 31.8236C20.6774 31.5111 20.8337 31.1118 20.8337 30.6257V27.709H16.667C16.4725 27.709 16.3024 27.6361 16.1566 27.4902C16.0107 27.3444 15.9378 27.1743 15.9378 26.9798C15.9378 26.7854 16.0107 26.6152 16.1566 26.4694C16.3024 26.3236 16.4725 26.2507 16.667 26.2507H20.8337V21.6673H16.667C16.4725 21.6673 16.3024 21.5944 16.1566 21.4486C16.0107 21.3027 15.9378 21.1326 15.9378 20.9382C15.9378 20.7437 16.0107 20.5736 16.1566 20.4277C16.3024 20.2819 16.4725 20.209 16.667 20.209H20.8337V15.6257H11.4587V30.6257C11.4587 31.1118 11.6149 31.5111 11.9274 31.8236C12.2399 32.1361 12.6392 32.2923 13.1253 32.2923ZM33.8805 16.6673C32.5785 16.6673 31.4673 17.1187 30.5472 18.0215C29.6271 18.9243 29.167 20.0354 29.167 21.3548V22.709H38.542V21.3548C38.542 20.0354 38.0906 18.9243 37.1878 18.0215C36.285 17.1187 35.1826 16.6673 33.8805 16.6673ZM29.167 32.5007H38.542V24.1673H29.167V32.5007ZM33.8545 40.0007C35.1739 40.0007 36.285 39.5416 37.1878 38.6236C38.0906 37.7055 38.542 36.602 38.542 35.3132V33.959H29.167V35.3132C29.167 36.602 29.626 37.7055 30.5441 38.6236C31.4621 39.5416 32.5656 40.0007 33.8545 40.0007Z" fill="#1656A5"/>
</g>
</svg>
