<svg width="50" height="50" viewBox="0 0 50 50" fill="none" xmlns="http://www.w3.org/2000/svg">
<mask id="mask0_5126_18462" style="mask-type:alpha" maskUnits="userSpaceOnUse" x="0" y="0" width="50" height="50">
<rect width="50" height="50" fill="#D9D9D9"/>
</mask>
<g mask="url(#mask0_5126_18462)">
<path d="M19.8955 38.9583H12.083C11.1802 38.9583 10.4337 38.6632 9.84342 38.0729C9.25315 37.4826 8.95801 36.7361 8.95801 35.8333V10C8.95801 9.09722 9.25315 8.35069 9.84342 7.76042C10.4337 7.17014 11.1802 6.875 12.083 6.875H37.9163C38.8191 6.875 39.5656 7.17014 40.1559 7.76042C40.7462 8.35069 41.0413 9.09722 41.0413 10V35.8333C41.0413 36.7361 40.7462 37.4826 40.1559 38.0729C39.5656 38.6632 38.8191 38.9583 37.9163 38.9583H30.1038L26.0934 42.9688C25.7809 43.2813 25.4163 43.4375 24.9997 43.4375C24.583 43.4375 24.2184 43.2813 23.9059 42.9688L19.8955 38.9583ZM12.083 37.5H20.5205L24.9997 41.9792L29.4788 37.5H37.9163C38.4025 37.5 38.8018 37.3438 39.1143 37.0313C39.4268 36.7188 39.583 36.3195 39.583 35.8333V10C39.583 9.51389 39.4268 9.11458 39.1143 8.80208C38.8018 8.48958 38.4025 8.33333 37.9163 8.33333H12.083C11.5969 8.33333 11.1976 8.48958 10.8851 8.80208C10.5726 9.11458 10.4163 9.51389 10.4163 10V35.8333C10.4163 36.3195 10.5726 36.7188 10.8851 37.0313C11.1976 37.3438 11.5969 37.5 12.083 37.5ZM25.0518 33.2813C25.4337 33.2813 25.7549 33.151 26.0153 32.8906C26.2757 32.6302 26.4059 32.309 26.4059 31.9271C26.4059 31.5451 26.2757 31.224 26.0153 30.9635C25.7549 30.7031 25.4337 30.5729 25.0518 30.5729C24.6698 30.5729 24.3486 30.7031 24.0882 30.9635C23.8278 31.224 23.6976 31.5451 23.6976 31.9271C23.6976 32.309 23.8278 32.6302 24.0882 32.8906C24.3486 33.151 24.6698 33.2813 25.0518 33.2813ZM29.0622 17.5C29.0622 18.1944 28.8972 18.8628 28.5674 19.5052C28.2375 20.1476 27.7254 20.7813 27.0309 21.4063C26.5101 21.8924 26.0674 22.3524 25.7028 22.7865C25.3382 23.2205 25.0518 23.6458 24.8434 24.0625C24.6698 24.375 24.5483 24.6788 24.4788 24.974C24.4094 25.2691 24.34 25.5903 24.2705 25.9375C24.2358 26.1458 24.2879 26.3281 24.4268 26.4844C24.5656 26.6406 24.7393 26.7188 24.9476 26.7188C25.1559 26.7188 25.3382 26.6493 25.4945 26.5104C25.6507 26.3715 25.7462 26.1979 25.7809 25.9896C25.8851 25.434 26.0847 24.9132 26.3799 24.4271C26.675 23.941 27.1698 23.3507 27.8643 22.6563C28.8365 21.684 29.5309 20.7986 29.9476 20C30.3643 19.2014 30.5726 18.3681 30.5726 17.5C30.5726 16.0417 30.0691 14.8524 29.0622 13.9323C28.0552 13.0122 26.7531 12.5521 25.1559 12.5521C24.1143 12.5521 23.1073 12.8125 22.1351 13.3333C21.1629 13.8542 20.3816 14.5833 19.7913 15.5208C19.6872 15.6944 19.6698 15.8854 19.7393 16.0938C19.8087 16.3021 19.9476 16.441 20.1559 16.5104C20.3295 16.5799 20.5205 16.5799 20.7288 16.5104C20.9372 16.441 21.1108 16.3194 21.2497 16.1458C21.7705 15.4167 22.3521 14.8785 22.9945 14.5313C23.6368 14.184 24.3573 14.0104 25.1559 14.0104C26.3712 14.0104 27.3261 14.3142 28.0205 14.9219C28.715 15.5295 29.0622 16.3889 29.0622 17.5Z" fill="#1656A5"/>
</g>
</svg>
