<svg width="50" height="50" viewBox="0 0 50 50" fill="none" xmlns="http://www.w3.org/2000/svg">
<mask id="mask0_5126_18468" style="mask-type:alpha" maskUnits="userSpaceOnUse" x="0" y="0" width="50" height="50">
<rect width="50" height="50" fill="#D9D9D9"/>
</mask>
<g mask="url(#mask0_5126_18468)">
<path d="M32.4476 40.7285L28.6455 36.8743C28.5066 36.7355 28.4372 36.5705 28.4372 36.3796C28.4372 36.1886 28.5066 36.0237 28.6455 35.8848C28.7844 35.7459 28.9549 35.6764 29.157 35.6764C29.3591 35.6764 29.5358 35.7459 29.6872 35.8848L33.5934 39.791L41.9268 31.4577C42.0656 31.3188 42.2306 31.2493 42.4216 31.2493C42.6125 31.2493 42.7775 31.3188 42.9163 31.4577C43.0552 31.5966 43.1247 31.7615 43.1247 31.9525C43.1247 32.1434 43.0552 32.3084 42.9163 32.4473L34.6872 40.7285C34.3722 41.041 33.9985 41.1973 33.5658 41.1973C33.1328 41.1973 32.7601 41.041 32.4476 40.7285ZM27.4997 43.1243C24.4788 43.1243 21.9094 42.074 19.7913 39.9733C17.6733 37.8726 16.6143 35.3118 16.6143 32.291V31.2493C14.0795 31.0757 11.9354 30.0514 10.182 28.1764C8.42849 26.3014 7.55176 24.0618 7.55176 21.4577V11.8743C7.55176 11.4316 7.70158 11.0605 8.00124 10.7608C8.30054 10.4615 8.67155 10.3118 9.11426 10.3118H13.8018V8.95768C13.8018 8.75109 13.8719 8.578 14.0122 8.43841C14.1521 8.29848 14.3257 8.22852 14.533 8.22852C14.74 8.22852 14.9129 8.29848 15.0518 8.43841C15.1906 8.578 15.2601 8.75109 15.2601 8.95768V13.1243C15.2601 13.3309 15.19 13.504 15.0497 13.6436C14.9097 13.7835 14.7361 13.8535 14.5288 13.8535C14.3219 13.8535 14.149 13.7835 14.0101 13.6436C13.8712 13.504 13.8018 13.3309 13.8018 13.1243V11.7702H9.01009V21.4577C9.01009 23.7493 9.82606 25.7112 11.458 27.3431C13.09 28.975 15.0518 29.791 17.3434 29.791C19.6351 29.791 21.5969 28.975 23.2288 27.3431C24.8608 25.7112 25.6768 23.7493 25.6768 21.4577V11.7702H20.8851V13.1243C20.8851 13.3309 20.815 13.504 20.6747 13.6436C20.5347 13.7835 20.3611 13.8535 20.1538 13.8535C19.9469 13.8535 19.774 13.7835 19.6351 13.6436C19.4962 13.504 19.4268 13.3309 19.4268 13.1243V8.95768C19.4268 8.75109 19.4969 8.578 19.6372 8.43841C19.7771 8.29848 19.9507 8.22852 20.158 8.22852C20.365 8.22852 20.5379 8.29848 20.6768 8.43841C20.8156 8.578 20.8851 8.75109 20.8851 8.95768V10.3118H25.5726C26.0153 10.3118 26.3865 10.4615 26.6861 10.7608C26.9854 11.0605 27.1351 11.4316 27.1351 11.8743V21.4577C27.1351 24.0618 26.2584 26.3014 24.5049 28.1764C22.7514 30.0514 20.6073 31.0757 18.0726 31.2493V32.291C18.0726 34.8952 18.9927 37.1087 20.833 38.9316C22.6733 40.7546 24.8955 41.666 27.4997 41.666C27.7063 41.666 27.8794 41.7362 28.0189 41.8764C28.1589 42.0164 28.2288 42.19 28.2288 42.3973C28.2288 42.6042 28.1589 42.7771 28.0189 42.916C27.8794 43.0549 27.7063 43.1243 27.4997 43.1243Z" fill="#1656A5"/>
</g>
</svg>
