<svg width="50" height="50" viewBox="0 0 50 50" fill="none" xmlns="http://www.w3.org/2000/svg">
<mask id="mask0_5126_18474" style="mask-type:alpha" maskUnits="userSpaceOnUse" x="0" y="0" width="50" height="50">
<rect width="50" height="50" fill="#D9D9D9"/>
</mask>
<g mask="url(#mask0_5126_18474)">
<path d="M27.9167 21.4873L39.2708 10.1852C39.4097 10.0463 39.566 9.98553 39.7396 10.0029C39.9132 10.0203 40.0694 10.0984 40.2083 10.2373C40.3472 10.3762 40.4167 10.5411 40.4167 10.7321C40.4167 10.923 40.3472 11.088 40.2083 11.2269L29.0104 22.4248C28.6979 22.7373 28.3333 22.8935 27.9167 22.8935C27.5 22.8935 27.1354 22.7373 26.8229 22.4248L21.5104 17.1123C21.3715 16.9734 21.2934 16.7998 21.276 16.5914C21.2587 16.3831 21.3368 16.2095 21.5104 16.0706C21.6493 15.9317 21.8229 15.8709 22.0312 15.8883C22.2396 15.9057 22.4132 15.9838 22.5521 16.1227L27.9167 21.4873ZM29.6354 44.0914C29.809 44.1609 29.9653 44.1956 30.1042 44.1956C30.2431 44.1956 30.3993 44.1609 30.5729 44.0914L42.6042 40.3935C42.6042 39.6644 42.4306 39.1522 42.0833 38.8571C41.7361 38.5619 41.3542 38.4143 40.9375 38.4143H31.25C30.3819 38.4143 29.566 38.3796 28.8021 38.3102C28.0382 38.2407 27.2569 38.0671 26.4583 37.7894L22.7083 36.5914C22.5 36.522 22.3524 36.3831 22.2656 36.1748C22.1788 35.9664 22.1701 35.7581 22.2396 35.5498C22.309 35.3762 22.4392 35.2459 22.6302 35.1591C22.8212 35.0723 23.0208 35.0637 23.2292 35.1331L26.7708 36.4352C27.4653 36.6782 28.2292 36.8258 29.0625 36.8779C29.8958 36.93 30.9028 36.956 32.0833 36.956H32.6042C32.6042 36.2269 32.4826 35.6539 32.2396 35.2373C31.9965 34.8206 31.6319 34.5255 31.1458 34.3518L19.2188 29.9769C19.1146 29.9421 19.0191 29.9161 18.9323 29.8987C18.8455 29.8814 18.75 29.8727 18.6458 29.8727H13.9583V39.456L29.6354 44.0914ZM29.2708 45.5498L13.9583 41.0185C13.7847 41.8171 13.4028 42.4508 12.8125 42.9196C12.2222 43.3883 11.5625 43.6227 10.8333 43.6227H10C9.13194 43.6227 8.3941 43.3189 7.78646 42.7112C7.17882 42.1036 6.875 41.3657 6.875 40.4977V31.5394C6.875 30.6713 7.17882 29.9334 7.78646 29.3258C8.3941 28.7182 9.13194 28.4144 10 28.4144H18.5938C18.7674 28.4144 18.9497 28.4317 19.1406 28.4664C19.3316 28.5012 19.5139 28.5532 19.6875 28.6227L31.6667 32.9977C32.2917 33.2407 32.8472 33.6834 33.3333 34.3258C33.8194 34.9682 34.0625 35.8449 34.0625 36.956H40.9375C42.0486 36.956 42.8559 37.2946 43.3594 37.9716C43.8628 38.6487 44.1146 39.4907 44.1146 40.4977C44.1146 40.8102 44.0278 41.088 43.8542 41.331C43.6806 41.5741 43.4375 41.7477 43.125 41.8519L31.0938 45.5498C30.816 45.6192 30.5208 45.6626 30.2083 45.68C29.8958 45.6973 29.5833 45.6539 29.2708 45.5498ZM8.33333 40.4977C8.33333 40.9838 8.48958 41.3831 8.80208 41.6956C9.11458 42.0081 9.51389 42.1643 10 42.1643H10.8333C11.3194 42.1643 11.7188 42.0341 12.0312 41.7737C12.3438 41.5133 12.5 41.088 12.5 40.4977V29.8727H10C9.51389 29.8727 9.11458 30.0289 8.80208 30.3414C8.48958 30.6539 8.33333 31.0532 8.33333 31.5394V40.4977Z" fill="#1656A5"/>
</g>
</svg>
