<svg width="50" height="50" viewBox="0 0 50 50" fill="none" xmlns="http://www.w3.org/2000/svg">
<mask id="mask0_5126_18492" style="mask-type:alpha" maskUnits="userSpaceOnUse" x="0" y="0" width="50" height="50">
<rect width="50" height="50" fill="#D9D9D9"/>
</mask>
<g mask="url(#mask0_5126_18492)">
<path d="M13.1253 44.7923C13.1253 39.9312 14.0975 36.1986 16.042 33.5944C17.9864 30.9902 20.608 28.1257 23.9066 25.0007C20.5732 21.8757 17.9344 19.0111 15.9899 16.4069C14.0455 13.8027 13.0732 10.0701 13.0732 5.20898V4.68815C13.0732 4.47982 13.1427 4.30621 13.2816 4.16732C13.4205 4.02843 13.5941 3.95898 13.8024 3.95898C14.0107 3.95898 14.1844 4.02843 14.3232 4.16732C14.4621 4.30621 14.5316 4.47982 14.5316 4.68815V5.20898C14.5316 6.0076 14.5576 6.77148 14.6097 7.50065C14.6618 8.22982 14.7573 8.92426 14.8962 9.58398H35.0524C35.1913 8.92426 35.2868 8.22982 35.3389 7.50065C35.3909 6.77148 35.417 6.0076 35.417 5.20898V4.68815C35.417 4.47982 35.4864 4.30621 35.6253 4.16732C35.7642 4.02843 35.9378 3.95898 36.1462 3.95898C36.3545 3.95898 36.5281 4.02843 36.667 4.16732C36.8059 4.30621 36.8753 4.47982 36.8753 4.68815V5.20898C36.8753 10.0701 35.9031 13.8027 33.9587 16.4069C32.0142 19.0111 29.3927 21.8757 26.0941 25.0007C29.3927 28.0909 32.0142 30.9468 33.9587 33.5684C35.9031 36.1899 36.8753 39.9312 36.8753 44.7923V45.3132C36.8753 45.5215 36.8059 45.6951 36.667 45.834C36.5281 45.9729 36.3545 46.0423 36.1462 46.0423C35.9378 46.0423 35.7642 45.9729 35.6253 45.834C35.4864 45.6951 35.417 45.5215 35.417 45.3132V44.7923C35.417 43.9937 35.3909 43.2298 35.3389 42.5007C35.2868 41.7715 35.1913 41.077 35.0524 40.4173H14.9482C14.8094 41.077 14.7139 41.7715 14.6618 42.5007C14.6097 43.2298 14.5837 43.9937 14.5837 44.7923V45.3132C14.5837 45.5215 14.5142 45.6951 14.3753 45.834C14.2364 45.9729 14.0628 46.0423 13.8545 46.0423C13.6462 46.0423 13.4725 45.9729 13.3337 45.834C13.1948 45.6951 13.1253 45.5215 13.1253 45.3132V44.7923ZM18.3857 17.2923H31.5628C32.2573 16.3895 32.8823 15.426 33.4378 14.4017C33.9934 13.3774 34.4274 12.2576 34.7399 11.0423H15.2087C15.5559 12.2576 15.9899 13.3687 16.5107 14.3757C17.0316 15.3826 17.6566 16.3548 18.3857 17.2923ZM25.0003 24.0111C26.0073 23.0736 26.9535 22.1708 27.8389 21.3027C28.7243 20.4347 29.5489 19.584 30.3128 18.7507H19.6357C20.3996 19.584 21.233 20.4347 22.1357 21.3027C23.0385 22.1708 23.9934 23.0736 25.0003 24.0111ZM19.6878 31.2507H30.3128C29.5489 30.4173 28.7243 29.5666 27.8389 28.6986C26.9535 27.8305 26.0073 26.9277 25.0003 25.9902C23.9934 26.9277 23.0472 27.8305 22.1618 28.6986C21.2764 29.5666 20.4517 30.4173 19.6878 31.2507ZM15.2607 38.959H34.7399C34.3927 37.7437 33.9587 36.6326 33.4378 35.6257C32.917 34.6187 32.292 33.6465 31.5628 32.709H18.4378C17.7087 33.6465 17.075 34.6187 16.5368 35.6257C15.9986 36.6326 15.5732 37.7437 15.2607 38.959Z" fill="#1656A5"/>
</g>
</svg>
