<svg width="50" height="50" viewBox="0 0 50 50" fill="none" xmlns="http://www.w3.org/2000/svg">
<mask id="mask0_5126_18498" style="mask-type:alpha" maskUnits="userSpaceOnUse" x="0" y="0" width="50" height="50">
<rect width="50" height="50" fill="#D9D9D9"/>
</mask>
<g mask="url(#mask0_5126_18498)">
<path d="M25 34.1667C25.1736 34.1667 25.3472 34.1406 25.5208 34.0885C25.6944 34.0365 25.8507 33.941 25.9895 33.8021C26.7534 33.1076 27.4739 32.4306 28.151 31.7708C28.8281 31.1111 29.427 30.4688 29.9479 29.8438C30.4687 29.2188 30.8854 28.6024 31.1979 27.9948C31.5104 27.3872 31.6666 26.8056 31.6666 26.25C31.6666 25.2083 31.3107 24.3403 30.5989 23.6458C29.8871 22.9514 29.0277 22.6042 28.0208 22.6042C27.3958 22.6042 26.8316 22.7344 26.3281 22.9948C25.8246 23.2552 25.3819 23.5764 25 23.9583C24.6875 23.5764 24.2708 23.2552 23.75 22.9948C23.2291 22.7344 22.6736 22.6042 22.0833 22.6042C21.0764 22.6042 20.217 22.9514 19.5052 23.6458C18.7934 24.3403 18.4375 25.2083 18.4375 26.25C18.4375 26.8056 18.585 27.3872 18.8802 27.9948C19.1753 28.6024 19.5833 29.2188 20.1041 29.8438C20.625 30.4688 21.2239 31.1111 21.901 31.7708C22.5781 32.4306 23.2812 33.1076 24.0104 33.8021C24.1493 33.941 24.3055 34.0365 24.4791 34.0885C24.6527 34.1406 24.8264 34.1667 25 34.1667ZM14.1666 41.0417C13.2986 41.0417 12.5607 40.7379 11.9531 40.1302C11.3454 39.5226 11.0416 38.7847 11.0416 37.9167V22.1354L7.49996 24.8958C7.32635 25.0347 7.15274 25.0868 6.97913 25.0521C6.80552 25.0174 6.64927 24.9132 6.51038 24.7396C6.37149 24.566 6.31073 24.3924 6.32809 24.2188C6.34545 24.0451 6.44094 23.8889 6.61455 23.75L23.0729 11.0938C23.3507 10.8854 23.6545 10.7292 23.9843 10.625C24.3142 10.5208 24.6527 10.4688 25 10.4688C25.3472 10.4688 25.677 10.5208 25.9895 10.625C26.302 10.7292 26.5972 10.8854 26.875 11.0938L43.3854 23.75C43.559 23.8889 43.6545 24.0451 43.6718 24.2188C43.6892 24.3924 43.6284 24.566 43.4895 24.7396C43.3507 24.9132 43.1944 25.0174 43.0208 25.0521C42.8472 25.0868 42.6736 25.0347 42.5 24.8958L38.9583 22.1354V37.9167C38.9583 38.7847 38.6545 39.5226 38.0468 40.1302C37.4392 40.7379 36.7014 41.0417 35.8333 41.0417H14.1666ZM14.1666 39.5833H35.8333C36.3194 39.5833 36.7187 39.4271 37.0312 39.1146C37.3437 38.8021 37.5 38.4028 37.5 37.9167V21.0417L25.9895 12.2917C25.7118 12.0486 25.3819 11.9271 25 11.9271C24.618 11.9271 24.2882 12.0486 24.0104 12.2917L12.5 21.0417V37.9167C12.5 38.4028 12.6562 38.8021 12.9687 39.1146C13.2812 39.4271 13.6805 39.5833 14.1666 39.5833ZM14.1666 39.5833H12.5H37.5H14.1666Z" fill="#1656A5"/>
</g>
</svg>
