<svg width="267" height="62" viewBox="0 0 267 62" fill="none" xmlns="http://www.w3.org/2000/svg">
<path d="M62.2704 41.5526C62.2473 41.5987 62.2186 41.6447 62.2013 41.6965C60.3362 47.1363 57.6653 51.1427 52.6975 54.2511C46.5785 58.0791 37.8231 59.7542 30.6795 59.0059C23.2768 58.2288 16.0468 54.9016 10.8604 49.5712C9.23707 47.9076 7.84402 46.0426 6.67548 44.0394C4.79891 40.8216 3.48072 37.1836 2.98567 33.4707C2.30067 28.3073 3.02597 23.3453 5.04069 18.579C6.75033 14.5381 9.168 11.5102 12.1325 8.36725C12.4031 8.07943 12.9499 7.63618 13.2665 7.37139C13.9918 6.77273 14.9013 6.10499 15.6842 5.56965C22.0277 1.21784 30.1326 -0.883229 37.8001 0.348631C37.8174 0.475271 37.6389 0.411966 37.5526 0.417722C36.9827 0.440747 36.4186 0.42922 35.8487 0.49254C27.0299 1.41356 18.0443 8.21757 14.4638 16.2362C12.4261 20.7952 11.8102 26.2119 12.6909 31.1279C13.3298 34.6853 14.8265 38.3118 16.8758 41.2706C22.3098 49.1395 31.6351 53.192 41.1273 52.8293C41.346 52.8236 41.5532 52.766 41.6972 52.7603C41.7432 52.7603 41.795 52.7603 41.8411 52.7603C42.5721 52.7084 43.3147 52.6451 44.04 52.5473C44.063 52.5473 44.086 52.5473 44.1091 52.5473C51.1836 51.5687 58.4424 47.7234 62.184 41.5123C62.3164 41.2936 62.2473 41.4605 62.2646 41.5584L62.2704 41.5526Z" fill="#B1C841"/>
<path d="M52.693 54.2412C51.9159 55.0241 50.9316 55.7206 49.9933 56.325C42.9878 60.8495 32.5803 62.2829 24.4696 60.625C18.2182 59.3414 12.341 56.1293 7.94312 51.5473C4.58716 48.0474 2.23857 43.9776 0.92612 39.2805C0.92612 39.2574 0.92612 39.2287 0.92612 39.2056C0.914607 38.4515 0.350501 36.7592 0.223861 35.8324C0.11449 35.0323 0.0338985 34.1228 0.00511676 33.3226C-0.000639595 33.2017 0.00511676 33.0866 0.00511676 32.9657C-0.00639595 32.7067 0.00511676 32.4419 0.00511676 32.1829C0.00511676 31.8317 -0.00639595 31.4749 0.00511676 31.118C0.0396549 29.7364 0.131754 28.4355 0.362008 27.077C0.367764 27.0309 0.350495 26.9791 0.362008 26.9331C1.53055 20.2269 5.34125 13.9237 10.5047 9.5604C10.5277 9.53738 10.5508 9.51435 10.5738 9.48557L12.1337 8.35156C9.1692 11.4888 6.75157 14.5224 5.04193 18.5633C3.0272 23.3296 2.3019 28.2916 2.9869 33.455C3.48195 37.1679 4.79438 40.8059 6.67671 44.0237C7.84525 46.0211 9.2383 47.8862 10.8616 49.5556C16.0481 54.8859 23.278 58.2074 30.6807 58.9902C37.8244 59.7385 46.5798 58.0692 52.6988 54.2355L52.693 54.2412Z" fill="#94BA3D"/>
<path d="M20.2838 27.0925C20.2838 27.0407 20.2781 26.9947 20.2838 26.9486C20.3183 26.9601 20.3817 26.9371 20.4277 26.9486C20.445 27.0983 20.4335 27.1098 20.2838 27.0925Z" fill="#179DD0"/>
<path d="M67.4328 31.1287C69.9138 29.799 72.0206 29.0565 73.4712 26.4258C73.5403 26.2992 73.6497 25.902 73.6727 25.8789C73.7936 25.7581 73.7936 25.925 73.8224 25.9768C74.2772 26.8748 74.5074 28.6247 74.5247 29.6321C74.565 31.6871 74.1908 33.3277 73.3216 35.164C73.1201 35.21 72.9992 35.3712 72.8035 35.4633C71.8537 35.9065 70.8636 36.4534 69.8966 36.9542C67.83 38.0364 65.5448 39.3546 63.4149 40.2583C63.2883 40.3101 63.1789 40.3619 63.035 40.3389C64.5316 38.0594 66.6673 35.8605 68.7453 34.099C69.2749 33.65 69.9656 33.2241 70.4607 32.7636C70.7543 32.493 70.6276 32.47 70.3168 32.6197C67.7552 33.8227 63.8984 38.1285 62.4593 40.5749C62.3845 40.7073 62.2003 41.2887 62.1197 40.9433C62.0449 40.6267 62.0104 40.2411 61.9758 39.9129C61.4577 34.7668 63.3055 33.3392 67.4386 31.1172L67.4328 31.1287Z" fill="#C8DA34"/>
<path d="M73.3281 35.1719C72.6604 36.5822 71.7566 37.8428 70.565 38.8617C68.3085 40.7843 65.1426 41.7399 62.1953 41.6996C62.2126 41.6535 62.2414 41.6017 62.2644 41.5557C62.4313 41.2276 62.8227 40.6922 63.0472 40.3526C63.1912 40.3756 63.3005 40.3296 63.4272 40.272C65.557 39.3682 67.8423 38.05 69.9088 36.9679C70.8702 36.4613 71.866 35.9202 72.8158 35.477C73.0115 35.3849 73.1266 35.2237 73.3338 35.1776L73.3281 35.1719Z" fill="#C3D730"/>
<path d="M61.561 30.4925C61.1926 25.093 58.0496 20.2059 53.7093 17.1032C53.1855 16.729 52.2472 16.0383 51.6485 15.9059C49.2193 15.3648 44.1998 16.2801 42.3405 18.0473C41.9491 18.4214 41.5807 18.9337 41.6325 19.5036C41.7591 20.8046 44.3092 21.4262 45.3223 21.7716C45.9152 21.7486 47.6421 22.5199 48.1832 22.8481C49.1791 23.4582 50.4858 24.8858 49.795 26.0946C50.3534 25.8068 51.3147 25.8068 51.9018 26.0141C53.2603 26.4976 53.669 28.236 53.1452 29.4794C52.8056 30.2795 51.3549 31.4999 51.3549 32.1618C51.3549 32.513 52.1148 33.4282 52.3393 33.8024C54.4404 37.3253 54.3943 41.4584 51.2571 44.325C49.818 45.6375 48.0796 46.3685 46.5196 47.4565C44.6661 48.7459 43.7048 50.1792 44.1307 52.5509C44.1077 52.5509 44.0847 52.5509 44.0617 52.5509C42.2139 48.815 47.0607 46.6678 49.4726 44.8776C53.4388 41.9304 54.3252 39.34 51.873 34.7752C51.5104 34.1017 50.2498 32.7029 50.2325 32.087C50.2152 31.2811 51.6888 30.3543 52.063 29.5312C52.3105 28.9901 52.4314 27.9597 52.1033 27.4531C51.4298 26.417 50.008 26.9984 49.0927 27.3035C49.0467 27.2632 49.3172 26.4458 49.3748 26.3824C49.3517 26.3594 49.323 26.3422 49.3057 26.3076C49.1618 26.4285 49.1503 26.3249 49.0697 26.2213C48.8222 25.8586 48.8106 25.3981 48.6667 24.9952C48.4538 24.3908 48.1429 23.9763 47.6709 23.5446C46.652 22.7962 45.7828 22.5775 44.62 22.1976C43.7911 21.927 42.3808 21.6335 41.7131 21.1327C41.2641 20.8679 40.7345 20.4649 40.6078 19.9296C40.5676 19.7569 40.6194 19.3539 40.4697 19.2849C40.3834 19.5382 40.1934 19.7627 40.0783 19.9929C39.6926 20.7873 39.3932 21.668 39.3011 22.5487C39.2263 23.251 39.2896 23.7 39.445 24.3908C39.8077 26.0371 40.7863 27.3438 39.7847 29.0189C39.353 29.7499 38.1153 30.7112 38.2362 31.6553C38.2938 32.087 39.6868 32.323 39.8365 32.8296C40.0034 33.3707 39.6638 34.142 39.7386 34.4126C39.8019 34.6486 40.2913 34.8616 40.51 34.9306L40.0783 36.3122C40.1186 36.3122 40.7575 36.5654 40.8151 36.6057C41.5576 37.0662 40.4467 38.7586 41.4483 39.3055C41.8627 39.53 42.1909 39.5185 42.6341 39.4321H42.6399C43.1867 39.3285 43.6817 39.1558 44.1595 38.9716C44.2919 38.9198 44.4128 38.868 44.5452 38.8104C44.9942 38.6205 45.4317 38.4305 45.8864 38.2751C45.9612 38.2463 46.0361 38.2233 46.1167 38.2002C46.2951 38.1427 46.4793 38.0966 46.6635 38.0563C46.7441 38.0391 46.8247 38.0218 46.9053 38.0103C46.9859 37.9988 47.0722 37.9873 47.1528 37.9758C47.2564 37.9642 47.3543 37.9585 47.4637 37.9527C47.5328 37.9527 47.6018 37.947 47.6709 37.947C47.9242 37.947 48.1832 37.9642 48.4595 38.0103C50.4224 38.3269 50.3188 39.8696 49.8065 41.4181C48.6092 45.01 44.6833 46.593 42.755 49.6496C42.1218 50.657 41.9951 51.5953 41.8627 52.7638C41.8167 52.7638 41.7649 52.7638 41.7188 52.7638C41.667 52.7753 41.621 52.7811 41.5864 52.7811C41.4598 52.7984 41.3101 52.8329 41.1547 52.8329C41.0684 52.3091 41.8282 52.0098 41.4713 51.4917C41.3159 51.2672 41.1777 51.5089 41.3389 50.9966C42.4038 47.6292 45.6965 45.931 47.8609 43.4788C49.133 42.0397 49.7777 40.6179 48.8912 38.7241C46.7844 38.0448 43.6415 41.0266 41.3734 40.1402C40.7863 40.048 40.297 39.4609 40.1761 38.891C40.107 38.5687 40.1358 37.4174 40.0667 37.3023C39.9862 37.1699 39.1285 36.8878 39.0536 36.6115C38.9327 36.2028 39.2896 35.702 39.3933 35.3163L38.6334 34.7752C38.6334 34.3838 38.9443 33.8542 38.95 33.4973C38.9615 32.6799 37.2116 32.4094 37.1253 31.7416C36.9123 30.1298 39.8307 28.9556 39.2033 26.6818C38.5989 24.4829 37.816 23.9072 38.4262 21.3341C39.4566 16.9938 44.4876 14.6222 48.615 14.4725L47.8148 14.1732C46.6348 13.8163 45.4374 13.5573 44.2171 13.4134C38.455 12.7111 32.8137 14.5704 28.4734 18.3408C25.8831 20.5916 23.7648 23.4813 22.6595 26.7509C22.6192 26.8027 22.5674 26.8487 22.5156 26.8948C22.5732 26.607 22.5847 26.2558 22.6595 25.9738C23.736 21.6968 26.5623 17.794 30.1083 15.2324C30.8105 14.7258 31.6049 14.3517 32.3014 13.8451C32.8598 13.7242 33.5045 13.327 34.0802 13.0968C35.9567 12.3485 37.9369 11.8189 39.9631 11.6404C40.959 11.5541 41.88 11.5829 42.8701 11.6404C46.0706 11.8189 49.1445 12.6133 51.9479 14.1963C54.6476 15.7159 57.3646 18.2775 58.9649 20.9312C60.1104 22.8193 61.112 25.3406 61.4459 27.528C61.6013 28.5353 61.6013 29.5197 61.5898 30.504L61.561 30.4925Z" fill="#2861AD"/>
<path d="M67.4394 31.125C63.3063 33.3412 61.4643 34.7688 61.9766 39.9207C61.5103 38.591 61.2859 36.9965 61.5967 35.6092C62.2184 32.8749 65.0965 31.9539 67.4336 31.1308L67.4394 31.125Z" fill="#88AF3F"/>
<path d="M34.4704 44.4589C36.4563 45.2705 38.8452 45.7771 39.4324 48.2178C38.7531 48.0566 38.3502 47.2795 37.8781 46.8305C36.7729 45.7886 35.2763 45.3741 33.9062 44.81C34.0905 44.787 34.4992 44.6373 34.4762 44.4531L34.4704 44.4589Z" fill="#2861AD"/>
<path d="M70.5625 38.8701C71.7598 37.8513 72.6578 36.5906 73.3256 35.1803C74.1948 33.344 74.5689 31.7035 74.5286 29.6484C74.5977 29.8672 74.6553 30.2356 74.6725 30.4658C74.8567 33.7988 73.694 36.8381 70.8791 38.7262C70.7755 38.7953 70.6949 38.8644 70.5625 38.8701Z" fill="#88AF3F"/>
<path d="M36.1964 38.4986C35.4596 39.6326 32.9326 38.9591 31.7467 39.4369C30.6818 39.8686 30.9639 41.0371 31.269 41.9063C31.787 43.3684 33.1225 43.9153 34.458 44.4564C34.4868 44.6406 34.0723 44.7903 33.8939 44.8133C33.1801 44.5255 32.5124 44.3528 31.9079 43.8232C31.7755 43.7484 31.459 43.5584 31.3726 43.4663C30.5149 42.5626 29.922 40.7839 30.3652 39.5462C30.6588 38.7288 31.079 38.7288 31.8389 38.6425C32.7656 38.5389 33.8018 38.6828 34.6998 38.4928C36.0352 38.2165 35.2984 37.5085 35.4538 36.6968C35.4941 36.4839 35.8165 36.2363 35.7992 36.1327C35.782 36.0061 35.3963 35.8219 35.3848 35.6319C35.3733 35.4362 35.7992 34.7627 35.7359 34.6706C35.7301 34.6648 35.7589 34.59 35.7186 34.544C35.6668 34.4922 35.5632 34.4921 35.5057 34.3713C35.2581 33.8647 35.8913 33.4387 35.7992 33.0876C35.7877 33.0588 35.4769 32.7307 35.4308 32.7019C35.379 32.6616 35.3214 32.6904 35.3099 32.6847C35.0912 32.5292 34.9473 32.4602 34.7401 32.2587C33.4794 31.5679 34.0953 30.031 33.8708 28.8394C33.7212 28.0278 33.2319 27.1298 32.6102 26.5887C32.1727 26.2088 31.459 25.8403 30.9063 25.6677C28.4426 24.8905 24.7643 25.6043 23.0316 27.6191C22.7093 28.0047 22.4905 28.4653 22.1797 28.8567C22.2545 28.1314 22.3293 27.5845 22.4617 26.8707C22.5136 26.8247 22.5596 26.7786 22.6057 26.7268C24.8334 24.3092 28.5865 24.0041 31.5395 25.092C32.5757 25.4719 32.9268 25.6619 33.6694 26.439C34.4925 27.3025 34.6652 27.7745 34.7343 29.0294C34.7919 29.9964 34.4407 31.2456 35.3042 31.9306C35.9777 32.4659 36.6512 32.2932 36.3231 33.4618C36.2194 33.8474 35.9316 33.9741 36.2252 34.3367C36.4209 34.5785 36.5418 34.4519 36.4957 34.9124C36.4727 35.1599 36.3864 35.3671 36.1388 35.442C36.1388 35.724 36.6166 35.7298 36.6396 35.9715C36.6627 36.2075 36.3461 36.4954 36.3 36.7659C36.1907 37.3646 36.5648 37.8884 36.1734 38.4813L36.1964 38.4986Z" fill="#2861AD"/>
<path d="M35.7186 34.5433C35.7589 34.5894 35.7301 34.6642 35.7359 34.6699C35.615 34.6584 35.2581 34.3303 35.2409 34.2094C35.1718 33.8007 35.6783 33.4381 35.6668 33.0754C35.6611 32.897 35.3617 32.8624 35.3157 32.6898C35.3272 32.6955 35.3847 32.6725 35.4365 32.707C35.4768 32.7358 35.7934 33.0639 35.805 33.0927C35.9028 33.4381 35.2639 33.8641 35.5114 34.3764C35.5689 34.4973 35.6783 34.4973 35.7244 34.5491L35.7186 34.5433Z" fill="#2861AD"/>
<path d="M24.6048 37.7976L23.6147 37.2335C23.465 36.8939 23.3845 36.6406 23.2578 36.3125C23.5226 36.6924 24.6393 37.3486 24.743 37.6998C24.7833 37.8379 24.6969 37.8034 24.6048 37.8034V37.7976Z" fill="#1694CC"/>
<path d="M24.6052 37.7985C24.2886 37.8043 24.0469 37.5798 23.7533 37.5164C23.713 37.4301 23.6612 37.3495 23.6094 37.2344L24.5995 37.7985H24.6052Z" fill="#1656A5"/>
<path d="M63.1191 27.0156C62.9119 29.9399 62.2327 33.5721 60.8051 36.151C60.7418 36.2718 60.6382 36.5366 60.5 36.5539C61.0296 35.0745 61.4153 33.5088 61.5592 31.9431C61.6052 31.4595 61.5592 30.9472 61.5592 30.4867C61.5707 29.5024 61.5765 28.518 61.4153 27.5107L63.1191 27.0156Z" fill="#1379BD"/>
<path d="M62.5459 19.9194C61.7803 16.9261 60.393 14.3184 58.5049 11.9008C56.9449 9.90906 55.5173 8.65417 53.4681 7.22084C52.7313 6.70852 52.2823 6.39769 51.4822 5.94869C50.7626 5.53999 50.2561 5.29822 49.4962 4.95283C47.942 4.2448 46.5087 3.70947 44.8163 3.32379C36.2048 1.36663 27.0637 4.08938 21.2728 10.7668C20.1906 12.0159 19.4538 13.0923 18.6479 14.5257C18.268 15.2049 17.8996 15.8496 17.583 16.5864C17.3124 17.2139 17.0822 17.8471 16.8749 18.5033C16.1899 20.6389 15.8561 22.8033 15.8158 25.054L15.6719 25.1001V25.1692L15.8158 25.2152C15.8791 26.3377 15.9194 27.4659 16.0978 28.5769C16.4835 31.0119 17.2894 33.159 18.4349 35.3176C19.7243 37.7468 21.1577 39.5658 23.1897 41.4136C25.3944 43.4226 27.9905 45.0228 30.8168 46.0187L28.6467 44.2803C27.4494 43.1463 26.3096 41.9317 25.3828 40.5559C24.7381 39.6003 24.2316 38.5585 23.7538 37.5108C23.7135 37.4245 23.6617 37.3439 23.6099 37.2287C23.4602 36.8891 23.3796 36.6358 23.253 36.3077C22.9364 35.473 22.7349 34.9319 22.545 34.0397C22.1478 32.1919 22.0039 30.7413 22.1881 28.859C22.2629 28.1337 22.3377 27.5868 22.4701 26.873C22.5277 26.5852 22.5392 26.2341 22.614 25.952C23.6905 21.6751 26.5168 17.7722 30.0628 15.2107C30.765 14.7041 31.5594 14.3299 32.2559 13.8234C32.8143 13.7025 33.459 13.3053 34.0347 13.0751C35.9112 12.3267 37.8914 11.7972 39.9176 11.6187C40.9135 11.5324 41.8345 11.5611 42.8246 11.6187C46.0251 11.7972 49.099 12.5915 51.9024 14.1745C54.6021 15.6942 57.3191 18.2558 58.9194 20.9095C60.0649 22.7975 61.0665 25.3188 61.4004 27.5062L63.1043 27.0112C63.2827 24.5302 63.156 22.337 62.5401 19.9194H62.5459ZM20.277 27.086C20.277 27.0342 20.2712 26.9882 20.277 26.9421C20.3115 26.9536 20.3748 26.9306 20.4209 26.9421C20.4381 27.0918 20.4266 27.1033 20.277 27.086Z" fill="#1379BD"/>
<path d="M145.422 17.1121C147.039 17.0603 148.513 17.423 150.032 17.9008C150.245 16.7495 150.591 15.3564 151.656 14.7117C151.915 14.5563 152.744 14.2109 152.997 14.2109H155.564V17.5036C154.764 17.4287 154.033 17.233 153.279 17.6532C152.773 17.9353 151.978 19.2075 152.203 19.737C152.364 20.1054 152.951 20.7214 153.193 21.2567C153.423 21.7633 153.624 22.3619 153.717 22.903C154.58 28.0377 150.349 31.267 145.485 30.9389C144.213 30.8526 143.171 30.1042 142.123 31.267C141.697 31.739 141.565 32.6773 141.876 33.2299C142.463 34.2718 146.538 34.1394 147.724 34.2315C148.91 34.3236 150.62 34.6978 151.742 34.623C151.869 34.6172 152.024 34.646 152.139 34.623C152.56 35.0259 153.129 35.0835 153.659 35.4116C154.592 35.993 155.409 37.1212 155.697 38.1804C155.731 38.307 155.818 38.497 155.829 38.5776C155.904 39.1647 155.898 40.6153 155.829 41.214C155.829 41.2601 155.835 41.3004 155.829 41.3464C155.766 41.7493 155.328 42.6704 155.092 43.0503C153.924 44.9326 151.892 45.5831 149.9 46.222C149.854 46.222 149.814 46.222 149.768 46.222C148.576 46.2623 147.465 46.4638 146.21 46.4868C145.992 46.4868 145.773 46.4868 145.554 46.4868C142.227 46.4465 137.426 45.8767 136.856 41.7436C136.822 41.4788 136.816 40.8168 136.856 40.5578C137.115 38.8884 138.41 37.5817 140.016 37.1327L138.767 36.2117C136.563 33.8862 138.013 30.4496 140.805 29.4941C140.84 29.3099 140.834 29.3271 140.719 29.2235C140.022 28.5673 139.285 28.1183 138.802 27.2145C138.474 26.6044 138.094 25.2977 138.036 24.6242C138.013 24.3824 138.025 24.0831 138.036 23.8356C138.192 19.7428 141.502 17.2388 145.416 17.1179L145.422 17.1121ZM145.387 20.0421C141.951 20.589 141.922 27.6117 145.255 28.1471C148.57 28.6767 149.376 25.833 149.094 23.1218C148.875 21.0322 147.586 19.691 145.387 20.0421ZM143.148 37.8235C140.914 38.5085 140.287 41.7896 142.492 42.9006C144.178 43.7525 148.657 43.7065 150.303 42.7394C151.535 42.0199 152.111 40.1951 151.097 39.0381C149.814 37.576 144.978 38.1401 143.148 37.8178V37.8235Z" fill="#1656A5"/>
<path d="M83.3795 10.2685C85.7108 10.0728 88.8998 10.1994 91.283 10.2685C92.1177 10.2915 92.9581 10.303 93.787 10.4009C94.0806 10.4354 94.4202 10.4815 94.708 10.5333C100.142 11.5349 102.358 16.6811 101.023 21.787C99.6355 27.0771 95.0419 27.6182 90.362 27.6585C89.7921 27.6585 89.2165 27.6297 88.6466 27.6585C88.4279 27.67 88.2033 27.6469 87.9846 27.6585C87.9788 27.9232 87.9961 28.188 87.9846 28.4471C87.8752 31.4634 88.0191 34.5143 87.9846 37.5364C87.9846 37.9738 88.0652 38.4631 87.8522 38.8546C87.622 38.774 83.1838 38.7222 82.9766 38.8546V29.6329C82.9766 23.203 82.9766 16.7732 82.9766 10.3433C82.9996 10.1937 83.2529 10.2743 83.3738 10.2685H83.3795ZM87.858 23.8362H92.0083C92.5551 23.8362 94.0921 23.3067 94.5699 22.9728C96.9818 21.2747 96.5788 15.3974 93.6949 14.2462C93.5567 14.1886 92.7451 13.9583 92.6703 13.9583H87.8637V23.8362H87.858Z" fill="#1656A5"/>
<path d="M133.693 32.7955C133.659 32.9394 133.601 33.1984 133.561 33.325C132.887 35.6103 131.207 37.8438 128.95 38.7245C128.772 38.7936 128.449 38.9778 128.42 38.9893C128.138 39.0699 127.097 39.2253 126.774 39.2483C121.369 39.6801 117.892 37.0782 116.96 31.742C116.902 31.3967 116.867 31.034 116.827 30.6886C116.102 23.8558 117.869 16.5165 126.245 17.1209C134.004 17.6793 135.109 26.6995 133.688 32.7955H133.693ZM124.564 20.5747C123.418 20.7704 122.584 22.0886 122.221 23.1075C121.116 26.2332 120.667 38.074 126.665 35.7197C129.457 34.626 129.376 28.5012 129.203 26.0145C129.008 23.2111 128.081 19.9818 124.558 20.5747H124.564Z" fill="#1656A5"/>
<path d="M157.153 29.5006C156.865 22.7196 159.645 15.835 167.727 17.2798C173.156 18.2526 174.485 24.1011 174.284 28.8386H161.769C161.769 28.8386 161.936 31.1123 161.965 31.3138C162.075 32.1485 162.241 33.0004 162.61 33.766C164.009 36.6557 168.124 36.4715 169.391 33.6279C169.546 33.2825 169.828 32.0794 170.018 32.0161L174.151 32.5284C174.336 32.5514 173.035 35.5159 172.868 35.775C172.286 36.6787 171.526 37.4616 170.617 38.043C169.051 39.0388 167.117 39.2806 165.298 39.1712C164.377 39.1137 163.456 38.964 162.564 38.728C161.672 38.492 160.987 37.9163 160.319 37.3407C158.08 35.3778 157.279 32.3902 157.159 29.5006H157.153ZM169.673 25.8107C169.702 23.2779 168.89 20.2213 165.793 20.2731C162.863 20.3249 162.132 23.4621 161.902 25.8107H169.673Z" fill="#1656A5"/>
<path d="M196.52 29.5006C196.232 22.7196 199.013 15.835 207.094 17.2798C212.523 18.2526 213.852 24.1011 213.651 28.8386H201.137C200.97 28.8386 201.62 32.8623 201.753 33.2249C202.294 34.7504 203.675 36.0052 205.391 35.9131C206.876 35.8325 208.171 34.9518 208.764 33.6279C208.919 33.2825 209.201 32.0794 209.391 32.0161L213.524 32.5284C213.714 32.5514 212.385 35.5562 212.212 35.821C211.619 36.7363 210.836 37.5192 209.904 38.0948C207.872 39.3497 205.281 39.4763 202.984 39.0216C200.734 38.5726 198.627 36.6615 197.66 34.6064C196.911 33.0177 196.601 31.2447 196.526 29.4948L196.52 29.5006ZM209.034 25.8107C209.063 23.2779 208.251 20.2213 205.155 20.2731C202.225 20.3249 201.494 23.4621 201.263 25.8107H209.034Z" fill="#1656A5"/>
<path d="M193.519 38.7213H188.908V24.4283C188.908 24.0887 188.678 22.9144 188.586 22.5114C188.407 21.7343 188.235 21.222 187.423 20.9054C186.22 20.4334 184.453 20.7327 183.641 21.7919C183.233 22.3272 182.72 24.0369 182.72 24.6873V38.7156H178.109V17.6358H182.323V20.537L183.192 19.0979C185.236 16.214 191.055 16.4155 192.707 19.57C193.375 20.8421 193.467 23.2252 193.525 24.6816C193.709 29.3155 193.375 34.0702 193.525 38.7156L193.519 38.7213Z" fill="#1656A5"/>
<path d="M229.956 19.0101C230.405 19.4706 230.969 20.3514 231.257 20.9385C231.395 21.2148 231.976 22.4121 231.717 22.5906L228.241 23.4368C227.768 22.7057 227.584 21.825 226.905 21.209C224.315 18.8662 220.406 21.4508 222.116 24.2829C222.766 25.3594 226.997 26.3552 228.379 26.9827C230.664 28.0131 232.42 29.2277 232.633 31.9504C233.352 40.9936 217.148 42.1449 216.578 33.0844C217.085 32.9578 220.331 32.2382 220.51 32.4167C220.786 35.2891 223.866 36.7685 226.445 35.6402C228.235 34.8574 228.672 32.4052 227.014 31.2481C224.004 29.1528 218.576 29.7572 217.413 25.0428C215.657 17.9279 225.656 14.595 229.956 19.0216V19.0101Z" fill="#1656A5"/>
<path d="M257.674 22.5178L254.059 23.4273C253.921 23.3928 253.46 22.2185 253.299 21.9537C251.342 18.7992 246.339 20.5549 247.767 23.9281C248.061 24.6247 248.648 24.8722 249.287 25.1773C252.597 26.743 258.048 27.1229 258.462 31.8086C259.009 37.9391 252.528 40.0402 247.502 38.9465C244.555 38.3075 242.512 35.9416 242.391 32.9253C243.024 33.0462 246.017 32.1425 246.328 32.413C246.731 35.0609 249.074 36.5115 251.67 35.815C253.287 35.3833 254.462 33.7485 253.662 32.1252C252.804 30.381 247.986 29.5982 246.121 28.6023C240.664 25.6896 243.081 17.6019 249.304 17.1126C253.466 16.7845 256.563 18.3445 257.674 22.5178Z" fill="#1656A5"/>
<path d="M109.057 19.0964C109.063 19.7123 109.011 20.2649 108.919 20.8693L109.057 22.1242C109.915 19.3899 112.005 16.8284 115.176 17.2486C115.32 17.2716 115.245 17.8588 115.251 18.043C115.28 18.9525 115.274 19.8965 115.251 20.8118C115.245 21.1629 115.257 21.514 115.251 21.8652C114.008 21.8018 112.73 21.8709 111.654 22.5444C109.679 23.7763 109.535 26.476 109.455 28.5828C109.339 31.5992 109.455 34.7709 109.455 37.8045V38.8579C108.867 38.8522 105.16 38.7371 104.976 38.8579L104.844 17.6458H108.931C108.948 17.7724 108.908 17.9278 108.931 18.043C109 18.3998 109.057 18.728 109.063 19.0964H109.057Z" fill="#1656A5"/>
<path d="M239.347 20.4141H235.266V38.725H239.347V20.4141Z" fill="#1656A5"/>
<path d="M252.27 49.4038H246.474C246.583 51.2228 247.993 51.9884 249.692 51.7639C250.428 51.6661 251.044 51.1768 251.747 50.9868C252.057 52.2417 250.993 52.5698 249.951 52.6849C247.193 52.9843 244.931 52.1208 245.035 48.9663C245.202 44.0504 252.967 44.1886 252.27 49.4038ZM250.826 48.3504C250.918 45.5931 246.796 45.8636 246.612 48.3504H250.826Z" fill="white"/>
<path d="M229.084 49.395H223.42C223.523 51.168 224.819 51.9451 226.517 51.7666C227.259 51.686 227.841 51.2082 228.554 51.1104C228.503 51.3694 228.647 51.9623 228.532 52.1408C228.18 52.7049 225.101 52.7682 224.433 52.6588C221.014 52.0832 221.129 45.8779 224.928 45.4461C227.789 45.118 229.366 46.488 229.078 49.4007L229.084 49.395ZM227.772 48.3416C227.772 45.6418 223.696 45.8548 223.558 48.3416H227.772Z" fill="white"/>
<path d="M170.189 45.705C170.563 45.8719 171.311 46.5339 171.507 46.8908C171.547 46.9599 171.599 47.1729 171.639 47.288C171.72 47.5068 171.881 48.1284 171.904 48.3414C171.939 48.681 171.881 49.0552 171.904 49.3948H166.24C166.2 49.8553 166.286 50.3101 166.505 50.713C166.741 51.1505 166.936 51.1678 167.293 51.3693C167.973 51.7549 168.658 51.9161 169.469 51.7607C169.734 51.7089 169.774 51.5017 169.797 51.5017C169.936 51.4671 170.166 51.5362 170.356 51.4729C170.701 51.352 170.983 51.0814 171.38 51.1045C171.334 51.2369 171.392 51.5765 171.38 51.7607C171.346 52.1867 171.294 52.2097 170.851 52.4169C170.77 52.4572 170.638 52.532 170.586 52.5493C169.51 52.9062 168.122 52.9005 167.034 52.6126C166.816 52.5551 166.551 52.3133 166.372 52.2845C166.332 52.2788 166.28 52.2845 166.24 52.2845C166.038 52.0428 165.647 51.8413 165.451 51.6283C165.382 51.5477 165.198 51.3808 165.187 51.3635C164.035 49.3085 165.031 45.8662 167.558 45.4345C168.214 45.3251 169.584 45.4229 170.195 45.6992L170.189 45.705ZM170.454 48.4738C170.569 45.5553 166.315 45.8432 166.24 48.4738H170.454Z" fill="white"/>
<path d="M205.244 51.1086C205.308 51.1719 205.567 51.1374 205.538 50.9417L207.76 45.594L209.193 45.5767L205.216 54.3091C204.347 55.6964 203.443 56.0073 201.814 55.8518V54.7984C203.333 55.2647 204.37 53.8429 204.583 52.5074L201.612 45.9797L201.555 45.5825C201.935 45.6401 202.838 45.4328 203.069 45.7149L205.244 51.1144V51.1086Z" fill="white"/>
<path d="M237.913 52.5588H236.594V48.8056C236.594 48.702 236.422 47.8731 236.376 47.7119C235.794 45.6857 232.928 46.1692 232.542 47.9191C232.219 49.3755 232.455 51.0736 232.381 52.5645H231.062V45.5821C231.287 45.6166 232.329 45.5302 232.381 45.5821C232.444 45.6454 232.283 46.3764 232.45 46.3764C233.497 45.4842 234.718 45.2194 236.076 45.513C236.905 45.6857 237.913 46.8081 237.913 47.6255V52.5645V52.5588Z" fill="white"/>
<path d="M164.266 42.142V43.1955C163.673 43.1955 163.241 43.1321 162.683 43.3279C161.871 43.6099 162.055 44.8533 162.021 45.5671C162.412 45.5671 162.815 45.5671 163.207 45.5671H163.736C163.84 45.6592 163.984 45.8203 164.001 45.8319V46.6205C163.65 46.632 163.299 46.6032 162.948 46.6205C162.643 46.632 162.332 46.609 162.027 46.6205C162.009 48.4453 162.05 50.2758 162.038 52.1063C162.038 52.3481 161.9 52.5207 161.894 52.5495C161.474 52.6704 161.008 52.4517 160.708 52.4171C160.668 50.6211 160.76 48.8137 160.708 47.0177C160.708 46.8853 160.714 46.7529 160.708 46.6205H159.258V45.8319C159.269 45.8203 159.367 45.6189 159.39 45.5671H160.708C160.559 44.6345 160.829 43.9092 160.973 43.0631C161.376 42.9882 161.451 42.5853 161.762 42.4068C162.43 42.0154 163.494 42.1478 164.266 42.142Z" fill="white"/>
<path d="M181.659 43.5986V45.573H183.766V46.6265H181.659L181.815 51.2776C182.252 52.0374 183.058 51.6978 183.766 51.6345C183.737 52.0374 183.95 52.5958 183.438 52.6879C183.087 52.7512 181.849 52.7282 181.493 52.6591C181.038 52.567 180.341 51.8647 180.341 51.4388V46.6322H178.891V45.5788H180.341C180.416 45.2334 180.232 44.0879 180.358 43.8864C180.428 43.7771 181.441 43.541 181.659 43.6044V43.5986Z" fill="white"/>
<path d="M239.362 17.9016H235.281C234.976 16.5546 235.229 15.1731 235.281 13.8203H239.299C239.443 13.8203 239.489 14.1427 239.5 14.2751C239.638 15.4321 239.368 16.7445 239.362 17.9073V17.9016Z" fill="#1656A5"/>
<path d="M220.633 45.725C220.742 45.8919 220.593 46.623 220.65 46.8935C219.746 46.6114 219.056 46.3927 218.077 46.4905C214.9 46.8071 215.055 52.4081 219.24 51.7346C219.746 51.654 220.155 51.2856 220.656 51.2395C220.863 52.3448 220.42 52.552 219.39 52.6729C216.454 53.0298 213.996 51.7576 214.525 48.465C214.905 46.0819 217.116 45.299 219.28 45.4371C219.493 45.4487 220.587 45.6329 220.644 45.725H220.633Z" fill="white"/>
<path d="M244.105 45.5682C244.076 45.7467 244.151 46.4489 244.105 46.4892C244.036 46.5583 242.43 46.5353 242.148 46.6389C241.935 46.7655 241.981 48.573 241.992 48.9357C242.004 49.2983 242.148 51.2497 242.251 51.4109C242.637 52.0268 244.013 51.5375 244.105 51.6296C244.134 52.4873 244.278 52.6082 243.38 52.6831C242.28 52.7752 240.979 52.7234 240.709 51.4052C240.559 50.6568 240.847 46.7943 240.68 46.6274C240.634 46.5813 239.385 46.5641 239.356 46.4202C239.316 46.1726 239.391 45.8388 239.356 45.574C239.581 45.5394 240.622 45.6258 240.674 45.574C240.951 45.2977 239.937 43.2484 241.992 43.5938L242.125 45.5682H244.099H244.105Z" fill="white"/>
<path d="M199.034 43.6003V45.5747H201.009C200.974 45.7589 201.055 46.4497 201.009 46.4958C200.94 46.5648 199.294 46.6569 199.034 46.6282V51.0433C199.034 52.2061 200.928 51.5498 201.009 51.6362C200.986 51.901 201.107 52.4766 200.888 52.632C200.733 52.7414 199.011 52.7241 198.735 52.6608C198.459 52.5975 197.993 52.1945 197.866 51.947C197.463 51.1584 198.004 46.7375 197.497 46.6224C197.273 46.5706 196.294 46.7318 196.266 46.5533V45.5747C196.49 45.5402 197.532 45.6265 197.584 45.5747C197.659 45.4999 197.492 43.9917 197.595 43.8766C197.641 43.8191 198.827 43.5485 199.029 43.6003H199.034Z" fill="white"/>
<path d="M190.747 42.2891H189.297V52.5642H190.747V42.2891Z" fill="white"/>
<path d="M173.751 52.5585C173.601 50.2848 173.86 47.8613 173.751 45.5761H175.202C175.248 45.6221 174.833 47.0554 175.334 46.6295C175.351 46.6122 175.369 46.405 175.466 46.3071C175.95 45.8236 176.508 45.4667 177.234 45.4609C177.326 45.4609 178.074 45.5473 178.103 45.5818C178.155 45.6336 178.068 46.5546 178.103 46.7676C174.275 45.8466 175.369 49.8127 175.213 52.1095C175.196 52.357 175.242 52.6046 174.943 52.6967C174.827 52.6161 174.004 52.8176 173.757 52.5643L173.751 52.5585Z" fill="white"/>
<path d="M262.25 8.06264C268.513 7.40642 268.778 17.2671 261.83 16.3115C257.645 15.7359 257.455 8.56344 262.25 8.06264ZM262.244 8.58647C257.783 9.23694 258.468 16.4094 263.252 15.9143C268.07 15.4193 267.264 7.85541 262.244 8.58647Z" fill="white"/>
<path d="M254.25 45.568C254.474 45.6025 255.516 45.5162 255.568 45.568C255.637 45.6371 255.465 46.6157 255.632 46.6214C256.029 45.758 256.783 45.3895 257.738 45.4241C258.694 45.4586 258.435 45.7349 258.464 46.6157C257.577 46.5811 256.944 46.276 256.224 46.9841C256.069 47.1395 255.568 47.9569 255.568 48.1296V52.5447H254.25V45.5623V45.568Z" fill="white"/>
<path d="M194.701 45.5625H193.25V52.545H194.701V45.5625Z" fill="white"/>
<path d="M186.787 45.5625H185.469V52.545H186.787V45.5625Z" fill="white"/>
<path d="M193.478 42.4379C195.049 41.9716 195.372 43.9691 193.852 43.8654C192.827 43.7964 192.948 42.5933 193.478 42.4379Z" fill="white"/>
<path d="M186.763 43.6952C186.446 44.0118 185.428 43.9427 185.278 43.3958C184.921 42.0776 186.872 42.1179 186.942 42.9987C186.953 43.1713 186.89 43.5743 186.769 43.6952H186.763Z" fill="white"/>
<path d="M261.482 10.0317C261.799 9.97986 262.254 9.94531 262.685 9.94531C263.353 9.94531 263.785 10.0489 264.09 10.2792C264.337 10.4576 264.47 10.7339 264.47 11.0505C264.47 11.5859 264.067 11.9428 263.555 12.0867V12.1039C263.929 12.2133 264.153 12.5011 264.268 12.9214C264.43 13.4855 264.545 13.8769 264.643 14.0381H263.992C263.911 13.923 263.808 13.5718 263.67 13.0653C263.526 12.5069 263.267 12.2939 262.697 12.2766H262.104V14.0381H261.477V10.0317H261.482ZM262.11 11.8852H262.749C263.416 11.8852 263.842 11.5801 263.842 11.1139C263.842 10.59 263.388 10.3598 262.726 10.354C262.421 10.354 262.208 10.377 262.104 10.4001V11.8795L262.11 11.8852Z" fill="white"/>
</svg>
