<svg width="34" height="34" viewBox="0 0 34 34" fill="none" xmlns="http://www.w3.org/2000/svg">
<path d="M20.2754 5.59961C23.6783 5.59961 26.446 8.38187 26.4463 11.8037V20.3955C26.446 23.8174 23.6783 26.5996 20.2754 26.5996H11.7324C8.32961 26.5995 5.56274 23.8173 5.5625 20.3955V11.8037C5.56274 8.38192 8.32961 5.59969 11.7324 5.59961H20.2754ZM15.5 11C12.4624 11 10 13.4624 10 16.5C10 19.5376 12.4624 22 15.5 22C18.5376 22 21 19.5376 21 16.5C21 13.4624 18.5376 11 15.5 11ZM15.5 12.4004C17.7644 12.4004 19.5996 14.2356 19.5996 16.5C19.5996 18.7644 17.7644 20.5996 15.5 20.5996C13.2356 20.5996 11.4004 18.7644 11.4004 16.5C11.4004 14.2356 13.2356 12.4004 15.5 12.4004ZM21.6992 9.41797C21.1774 9.41819 20.7501 9.84733 20.75 10.3721C20.75 10.8969 21.1773 11.3269 21.6992 11.3271C22.2213 11.3271 22.6484 10.8971 22.6484 10.3721C22.6483 9.84719 22.2212 9.41797 21.6992 9.41797Z" fill="white"/>
</svg>
