<svg width="35" height="34" viewBox="0 0 35 34" fill="none" xmlns="http://www.w3.org/2000/svg">
<path d="M29.0019 11.1868C28.9009 10.7888 28.7075 10.4208 28.4376 10.1129C28.1676 9.80509 27.8289 9.56634 27.4494 9.41637C23.7765 7.98705 17.9308 8 17.6094 8C17.2879 8 11.4422 7.98705 7.76938 9.41637C7.38984 9.56634 7.05113 9.80509 6.78119 10.1129C6.51126 10.4208 6.31783 10.7888 6.21688 11.1868C5.93938 12.2642 5.60938 14.2333 5.60938 17.5C5.60938 20.7667 5.93938 22.7358 6.21688 23.8132C6.31768 24.2114 6.51104 24.5797 6.78098 24.8877C7.05092 25.1957 7.38971 25.4346 7.76938 25.5847C11.2879 26.9525 16.7951 27 17.5387 27H17.6801C18.4237 27 23.934 26.9525 27.4494 25.5847C27.829 25.4346 28.1678 25.1957 28.4378 24.8877C28.7077 24.5797 28.9011 24.2114 29.0019 23.8132C29.2794 22.7336 29.6094 20.7667 29.6094 17.5C29.6094 14.2333 29.2794 12.2642 29.0019 11.1868ZM21.1012 18.2039L16.8154 21.2266C16.6872 21.3171 16.5369 21.3705 16.3807 21.381C16.2245 21.3915 16.0685 21.3587 15.9295 21.2862C15.7905 21.2136 15.6739 21.1041 15.5922 20.9696C15.5106 20.835 15.4671 20.6804 15.4665 20.5227V14.4773C15.4666 14.3193 15.5096 14.1643 15.591 14.0293C15.6724 13.8942 15.789 13.7843 15.9281 13.7114C16.0672 13.6384 16.2235 13.6054 16.3799 13.6157C16.5364 13.6261 16.687 13.6795 16.8154 13.7702L21.1012 16.7929C21.2139 16.8726 21.3059 16.9784 21.3695 17.1015C21.433 17.2246 21.4662 17.3613 21.4662 17.5C21.4662 17.6387 21.433 17.7754 21.3695 17.8985C21.3059 18.0216 21.2139 18.1274 21.1012 18.2071V18.2039Z" fill="white"/>
</svg>
