<svg width="50" height="50" viewBox="0 0 50 50" fill="none" xmlns="http://www.w3.org/2000/svg">
<mask id="mask0_3698_8559" style="mask-type:alpha" maskUnits="userSpaceOnUse" x="0" y="0" width="50" height="50">
<rect width="50" height="50" fill="#D9D9D9"/>
</mask>
<g mask="url(#mask0_3698_8559)">
<path d="M7.60417 36.7695C7.39757 36.7695 7.22431 36.6994 7.08438 36.5591C6.94479 36.4192 6.875 36.2456 6.875 36.0383C6.875 35.8313 6.94479 35.6584 7.08438 35.5195C7.22431 35.3806 7.39757 35.3112 7.60417 35.3112H25.7812C25.9878 35.3112 26.1611 35.3813 26.301 35.5216C26.4406 35.6615 26.5104 35.8352 26.5104 36.0424C26.5104 36.2494 26.4406 36.4223 26.301 36.5612C26.1611 36.7001 25.9878 36.7695 25.7812 36.7695H7.60417ZM7.60417 26.9258C7.39757 26.9258 7.22431 26.8556 7.08438 26.7154C6.94479 26.5754 6.875 26.4018 6.875 26.1945C6.875 25.9876 6.94479 25.8147 7.08438 25.6758C7.22431 25.5369 7.39757 25.4674 7.60417 25.4674H15.1042C15.3108 25.4674 15.484 25.5376 15.624 25.6779C15.7635 25.8178 15.8333 25.9914 15.8333 26.1987C15.8333 26.4056 15.7635 26.5786 15.624 26.7174C15.484 26.8563 15.3108 26.9258 15.1042 26.9258H7.60417ZM7.60417 17.082C7.39757 17.082 7.22431 17.0119 7.08438 16.8716C6.94479 16.7317 6.875 16.5581 6.875 16.3508C6.875 16.1438 6.94479 15.9709 7.08438 15.832C7.22431 15.6931 7.39757 15.6237 7.60417 15.6237H15.1042C15.3108 15.6237 15.484 15.6938 15.624 15.8341C15.7635 15.974 15.8333 16.1477 15.8333 16.3549C15.8333 16.5619 15.7635 16.7348 15.624 16.8737C15.484 17.0126 15.3108 17.082 15.1042 17.082H7.60417ZM28.9583 30.6758C26.7823 30.6758 24.9276 29.9293 23.3943 28.4362C21.8606 26.9431 21.0938 25.1115 21.0938 22.9414C21.0938 20.7713 21.8618 18.9397 23.3979 17.4466C24.9337 15.9536 26.7913 15.207 28.9708 15.207C31.15 15.207 33.0035 15.9536 34.5312 17.4466C36.059 18.9397 36.8229 20.7626 36.8229 22.9154C36.8229 23.8181 36.6667 24.6949 36.3542 25.5456C36.0417 26.3963 35.5903 27.1688 35 27.8633L42.6042 35.3112C42.7778 35.4386 42.8646 35.6006 42.8646 35.7971C42.8646 35.994 42.7778 36.1793 42.6042 36.3529C42.4767 36.4918 42.3148 36.5612 42.1182 36.5612C41.9214 36.5612 41.7361 36.4918 41.5625 36.3529L33.9583 28.9049C33.2292 29.4605 32.4392 29.8945 31.5885 30.207C30.7378 30.5195 29.8611 30.6758 28.9583 30.6758ZM28.9583 29.2174C30.7378 29.2174 32.2505 28.6098 33.4964 27.3945C34.7418 26.1793 35.3646 24.6949 35.3646 22.9414C35.3646 21.1879 34.7418 19.7036 33.4964 18.4883C32.2505 17.273 30.7378 16.6654 28.9583 16.6654C27.1788 16.6654 25.6663 17.273 24.4208 18.4883C23.175 19.7036 22.5521 21.1879 22.5521 22.9414C22.5521 24.6949 23.175 26.1793 24.4208 27.3945C25.6663 28.6098 27.1788 29.2174 28.9583 29.2174Z" fill="#1656A5"/>
</g>
</svg>
