<svg width="50" height="50" viewBox="0 0 50 50" fill="none" xmlns="http://www.w3.org/2000/svg">
<mask id="mask0_3698_8543" style="mask-type:alpha" maskUnits="userSpaceOnUse" x="0" y="0" width="50" height="50">
<rect width="50" height="50" fill="#D9D9D9"/>
</mask>
<g mask="url(#mask0_3698_8543)">
<path d="M38.8008 41.0404C35.5369 41.0404 32.1428 40.181 28.6185 38.4622C25.0942 36.7435 21.7956 34.339 18.7227 31.2487C15.6497 28.1584 13.2539 24.8598 11.5352 21.3529C9.81641 17.8459 8.95703 14.4605 8.95703 11.1966C8.95703 10.5567 9.16536 10.0235 9.58203 9.59713C9.9987 9.1704 10.5195 8.95703 11.1445 8.95703H15.3112C15.9015 8.95703 16.4136 9.13932 16.8477 9.50391C17.2817 9.86849 17.5855 10.3459 17.7591 10.9362L18.6966 15.207C18.8008 15.7973 18.7834 16.3181 18.6445 16.7695C18.5056 17.2209 18.2626 17.5855 17.9154 17.8633L13.4883 21.8737C14.3911 23.5056 15.372 25.0074 16.431 26.3789C17.49 27.7504 18.6098 29.0438 19.7904 30.2591C21.0404 31.5091 22.3945 32.6723 23.8529 33.7487C25.3112 34.8251 26.9258 35.8494 28.6966 36.8216L33.0195 32.3945C33.3668 32.0126 33.74 31.7695 34.1393 31.6654C34.5386 31.5612 34.9987 31.5438 35.5195 31.6133L39.0612 32.3425C39.6515 32.4813 40.1289 32.7765 40.4935 33.2279C40.8581 33.6793 41.0404 34.2001 41.0404 34.7904V38.8529C41.0404 39.4779 40.827 39.9987 40.4003 40.4154C39.9739 40.832 39.4407 41.0404 38.8008 41.0404ZM12.8112 20.5195L16.9779 16.7695C17.1515 16.6306 17.2643 16.4397 17.3164 16.1966C17.3685 15.9536 17.3598 15.7279 17.2904 15.5195L16.3529 11.2487C16.2834 10.9709 16.1619 10.7626 15.9883 10.6237C15.8147 10.4848 15.589 10.4154 15.3112 10.4154H11.1445C10.9362 10.4154 10.7626 10.4848 10.6237 10.6237C10.4848 10.7626 10.4154 10.9362 10.4154 11.1445C10.4154 12.5681 10.6324 14.0786 11.0664 15.6758C11.5004 17.273 12.082 18.8876 12.8112 20.5195ZM30.1029 37.4987C31.5265 38.2279 33.0629 38.7574 34.7122 39.0872C36.3615 39.4171 37.7418 39.582 38.8529 39.582C39.0612 39.582 39.2348 39.5126 39.3737 39.3737C39.5126 39.2348 39.582 39.0612 39.582 38.8529V34.7904C39.582 34.5126 39.5126 34.2869 39.3737 34.1133C39.2348 33.9397 39.0265 33.8181 38.7487 33.7487L35.207 33.0195C34.9987 32.9501 34.8164 32.9414 34.6602 32.9935C34.5039 33.0456 34.339 33.1584 34.1654 33.332L30.1029 37.4987Z" fill="#1656A5"/>
</g>
</svg>
