<svg width="50" height="50" viewBox="0 0 50 50" fill="none" xmlns="http://www.w3.org/2000/svg">
<mask id="mask0_3698_8567" style="mask-type:alpha" maskUnits="userSpaceOnUse" x="0" y="0" width="50" height="50">
<rect width="50" height="50" fill="#D9D9D9"/>
</mask>
<g mask="url(#mask0_3698_8567)">
<path d="M10 36.8737C9.09722 36.8737 8.35069 36.5786 7.76042 35.9883C7.17014 35.398 6.875 34.6515 6.875 33.7487V12.082C6.875 11.1793 7.17014 10.4327 7.76042 9.84245C8.35069 9.25217 9.09722 8.95703 10 8.95703H40C40.9028 8.95703 41.6493 9.25217 42.2396 9.84245C42.8299 10.4327 43.125 11.1793 43.125 12.082V33.7487C43.125 34.6515 42.8299 35.398 42.2396 35.9883C41.6493 36.5786 40.9028 36.8737 40 36.8737H30.625V39.4779C30.625 39.9293 30.4774 40.3025 30.1823 40.5977C29.8872 40.8928 29.5139 41.0404 29.0625 41.0404H20.9375C20.4861 41.0404 20.1128 40.8928 19.8177 40.5977C19.5226 40.3025 19.375 39.9293 19.375 39.4779V36.8737H10ZM10 35.4154H40C40.4167 35.4154 40.7986 35.2418 41.1458 34.8945C41.4931 34.5473 41.6667 34.1654 41.6667 33.7487V12.082C41.6667 11.6654 41.4931 11.2834 41.1458 10.9362C40.7986 10.589 40.4167 10.4154 40 10.4154H10C9.58333 10.4154 9.20139 10.589 8.85417 10.9362C8.50694 11.2834 8.33333 11.6654 8.33333 12.082V33.7487C8.33333 34.1654 8.50694 34.5473 8.85417 34.8945C9.20139 35.2418 9.58333 35.4154 10 35.4154ZM18.5417 29.3737H31.4583V29.2695C31.4583 28.1584 30.8941 27.3077 29.7656 26.7175C28.6372 26.1272 27.0486 25.832 25 25.832C22.9514 25.832 21.3628 26.1272 20.2344 26.7175C19.1059 27.3077 18.5417 28.1584 18.5417 29.2695V29.3737ZM25 22.082C25.7986 22.082 26.467 21.8129 27.0052 21.2747C27.5434 20.7365 27.8125 20.0681 27.8125 19.2695C27.8125 18.4709 27.5434 17.8025 27.0052 17.2643C26.467 16.7261 25.7986 16.457 25 16.457C24.2014 16.457 23.533 16.7261 22.9948 17.2643C22.4566 17.8025 22.1875 18.4709 22.1875 19.2695C22.1875 20.0681 22.4566 20.7365 22.9948 21.2747C23.533 21.8129 24.2014 22.082 25 22.082Z" fill="#1656A5"/>
</g>
</svg>
