<svg width="50" height="50" viewBox="0 0 50 50" fill="none" xmlns="http://www.w3.org/2000/svg">
<mask id="mask0_3698_8551" style="mask-type:alpha" maskUnits="userSpaceOnUse" x="0" y="0" width="50" height="50">
<rect width="50" height="50" fill="#D9D9D9"/>
</mask>
<g mask="url(#mask0_3698_8551)">
<path d="M23.6966 30.7826C23.9049 30.7826 24.0959 30.7478 24.2695 30.6784C24.4431 30.6089 24.6168 30.4874 24.7904 30.3138L30.6758 24.3763C30.8147 24.2374 30.8928 24.0725 30.9102 23.8815C30.9275 23.6905 30.8494 23.5082 30.6758 23.3346C30.5022 23.161 30.3286 23.0742 30.1549 23.0742C29.9813 23.0742 29.8077 23.161 29.6341 23.3346L23.6966 29.3763L15.7799 21.4596H20.2591C20.4674 21.4596 20.6411 21.3902 20.7799 21.2513C20.9188 21.1124 20.9883 20.9388 20.9883 20.7305C20.9883 20.5221 20.9188 20.3485 20.7799 20.2096C20.6411 20.0707 20.4674 20.0013 20.2591 20.0013H14.8424C14.3911 20.0013 14.0178 20.1489 13.7227 20.444C13.4275 20.7391 13.2799 21.1124 13.2799 21.5638V26.9805C13.2799 27.1888 13.3494 27.3624 13.4883 27.5013C13.6272 27.6402 13.8008 27.7096 14.0091 27.7096C14.2174 27.7096 14.3911 27.6402 14.5299 27.5013C14.6688 27.3624 14.7383 27.1888 14.7383 26.9805V22.5013L22.6029 30.3659C22.7765 30.5395 22.9501 30.6523 23.1237 30.7044C23.2973 30.7565 23.4883 30.7826 23.6966 30.7826ZM11.3008 38.9596C10.398 38.9596 9.65148 38.6645 9.0612 38.0742C8.47092 37.4839 8.17578 36.7374 8.17578 35.8346V14.168C8.17578 13.2652 8.47092 12.5187 9.0612 11.9284C9.65148 11.3381 10.398 11.043 11.3008 11.043H32.9674C33.8702 11.043 34.6168 11.3381 35.207 11.9284C35.7973 12.5187 36.0924 13.2652 36.0924 14.168V23.9596L40.4674 19.5846C40.7105 19.3416 40.997 19.2808 41.3268 19.4023C41.6567 19.5239 41.8216 19.7582 41.8216 20.1055V29.8971C41.8216 30.2444 41.6567 30.4787 41.3268 30.6003C40.997 30.7218 40.7105 30.661 40.4674 30.418L36.0924 26.043V35.8346C36.0924 36.7374 35.7973 37.4839 35.207 38.0742C34.6168 38.6645 33.8702 38.9596 32.9674 38.9596H11.3008ZM11.3008 37.5013H32.9674C33.4536 37.5013 33.8529 37.3451 34.1654 37.0326C34.4779 36.7201 34.6341 36.3207 34.6341 35.8346V14.168C34.6341 13.6819 34.4779 13.2826 34.1654 12.9701C33.8529 12.6576 33.4536 12.5013 32.9674 12.5013H11.3008C10.8147 12.5013 10.4154 12.6576 10.1029 12.9701C9.79036 13.2826 9.63411 13.6819 9.63411 14.168V35.8346C9.63411 36.3207 9.79036 36.7201 10.1029 37.0326C10.4154 37.3451 10.8147 37.5013 11.3008 37.5013Z" fill="#1656A5"/>
</g>
</svg>
