<svg width="22" height="18" viewBox="0 0 22 18" fill="none" xmlns="http://www.w3.org/2000/svg">
<path d="M0.125 2.5C0.125 1.95833 0.302083 1.51042 0.65625 1.15625C1.01042 0.802083 1.45833 0.625 2 0.625H20C20.5417 0.625 20.9896 0.802083 21.3438 1.15625C21.6979 1.51042 21.875 1.95833 21.875 2.5V5.625C21.875 5.74896 21.8329 5.85281 21.7488 5.93656C21.6648 6.02052 21.5606 6.0625 21.4363 6.0625C21.3121 6.0625 21.2083 6.02052 21.125 5.93656C21.0417 5.85281 21 5.74896 21 5.625V2.5C21 2.25 20.8958 2.02083 20.6875 1.8125C20.4792 1.60417 20.25 1.5 20 1.5H2C1.75 1.5 1.52083 1.60417 1.3125 1.8125C1.10417 2.02083 1 2.25 1 2.5V5.625C1 5.74896 0.957917 5.85281 0.87375 5.93656C0.789792 6.02052 0.685625 6.0625 0.56125 6.0625C0.437084 6.0625 0.333333 6.02052 0.25 5.93656C0.166667 5.85281 0.125 5.74896 0.125 5.625V2.5ZM2 17.375C1.45833 17.375 1.01042 17.1979 0.65625 16.8438C0.302083 16.4896 0.125 16.0417 0.125 15.5V12.375C0.125 12.251 0.167083 12.1471 0.25125 12.0631C0.335208 11.9794 0.439375 11.9375 0.56375 11.9375C0.687916 11.9375 0.791667 11.9794 0.875 12.0631C0.958333 12.1471 1 12.251 1 12.375V15.5C1 15.75 1.10417 15.9792 1.3125 16.1875C1.52083 16.3958 1.75 16.5 2 16.5H20C20.25 16.5 20.4792 16.3958 20.6875 16.1875C20.8958 15.9792 21 15.75 21 15.5V12.375C21 12.251 21.0421 12.1471 21.1263 12.0631C21.2102 11.9794 21.3144 11.9375 21.4388 11.9375C21.5629 11.9375 21.6667 11.9794 21.75 12.0631C21.8333 12.1471 21.875 12.251 21.875 12.375V15.5C21.875 16.0417 21.6979 16.4896 21.3438 16.8438C20.9896 17.1979 20.5417 17.375 20 17.375H2ZM8.50062 14.4375C8.58354 14.4375 8.6625 14.4167 8.7375 14.375C8.8125 14.3333 8.86875 14.2708 8.90625 14.1875L13.5 5L15.5938 9.1875C15.6315 9.27083 15.6879 9.33333 15.7631 9.375C15.8383 9.41667 15.9173 9.4375 16 9.4375H21.4375C21.5615 9.4375 21.6653 9.39542 21.7491 9.31125C21.833 9.22729 21.875 9.12313 21.875 8.99875C21.875 8.87458 21.833 8.77083 21.7491 8.6875C21.6653 8.60417 21.5615 8.5625 21.4375 8.5625H16.2812L13.9063 3.8125C13.8729 3.74375 13.8229 3.69531 13.7563 3.66719C13.6896 3.63906 13.6094 3.625 13.5156 3.625C13.4219 3.625 13.3375 3.63906 13.2625 3.66719C13.1875 3.69531 13.1313 3.74375 13.0938 3.8125L8.5 13L6.40625 8.8125C6.36854 8.72917 6.31208 8.66667 6.23687 8.625C6.16167 8.58333 6.08271 8.5625 6 8.5625H0.5625C0.438542 8.5625 0.334583 8.60458 0.250625 8.68875C0.166875 8.77271 0.125 8.87687 0.125 9.00125C0.125 9.12542 0.166875 9.22917 0.250625 9.3125C0.334583 9.39583 0.438542 9.4375 0.5625 9.4375H5.71875L8.09375 14.1875C8.13146 14.2708 8.18802 14.3333 8.26344 14.375C8.33865 14.4167 8.41771 14.4375 8.50062 14.4375Z" fill="white"/>
</svg>
