<svg width="30" height="30" viewBox="0 0 30 30" fill="none" xmlns="http://www.w3.org/2000/svg">
<mask id="mask0_2051_6252" style="mask-type:alpha" maskUnits="userSpaceOnUse" x="0" y="0" width="30" height="30">
<rect width="30" height="30" fill="#D9D9D9"/>
</mask>
<g mask="url(#mask0_2051_6252)">
<path d="M13.0625 15.0625L14.9062 16.9062C15.0729 17.0938 15.2865 17.1875 15.5469 17.1875C15.8073 17.1875 16.0312 17.0938 16.2188 16.9062L20.8125 12.3438V15.0312C20.8125 15.1354 20.8542 15.2292 20.9375 15.3125C21.0208 15.3958 21.125 15.4375 21.25 15.4375C21.3542 15.4375 21.4531 15.3958 21.5469 15.3125C21.6406 15.2292 21.6875 15.125 21.6875 15V11.75C21.6875 11.5 21.5938 11.2813 21.4062 11.0938C21.2188 10.9063 21 10.8125 20.75 10.8125H17.4688C17.3646 10.8125 17.2708 10.8594 17.1875 10.9531C17.1042 11.0469 17.0625 11.1458 17.0625 11.25C17.0625 11.375 17.1042 11.4792 17.1875 11.5625C17.2708 11.6458 17.375 11.6875 17.5 11.6875H20.1562L15.5625 16.3438L13.7188 14.5C13.5312 14.3125 13.3073 14.2188 13.0469 14.2188C12.7865 14.2188 12.5729 14.3125 12.4062 14.5L8.9375 17.9375C8.85417 18.0417 8.8125 18.151 8.8125 18.2656C8.8125 18.3802 8.85417 18.4792 8.9375 18.5625C9.04167 18.6667 9.15104 18.7188 9.26562 18.7188C9.38021 18.7188 9.47917 18.6667 9.5625 18.5625L13.0625 15.0625ZM7.25 24.625C6.70833 24.625 6.26042 24.4479 5.90625 24.0938C5.55208 23.7396 5.375 23.2917 5.375 22.75V7.25C5.375 6.70833 5.55208 6.26042 5.90625 5.90625C6.26042 5.55208 6.70833 5.375 7.25 5.375H22.75C23.2917 5.375 23.7396 5.55208 24.0938 5.90625C24.4479 6.26042 24.625 6.70833 24.625 7.25V22.75C24.625 23.2917 24.4479 23.7396 24.0938 24.0938C23.7396 24.4479 23.2917 24.625 22.75 24.625H7.25ZM7.25 23.75H22.75C23 23.75 23.2292 23.6458 23.4375 23.4375C23.6458 23.2292 23.75 23 23.75 22.75V7.25C23.75 7 23.6458 6.77083 23.4375 6.5625C23.2292 6.35417 23 6.25 22.75 6.25H7.25C7 6.25 6.77083 6.35417 6.5625 6.5625C6.35417 6.77083 6.25 7 6.25 7.25V22.75C6.25 23 6.35417 23.2292 6.5625 23.4375C6.77083 23.6458 7 23.75 7.25 23.75Z" fill="#F9F9F9"/>
</g>
</svg>
