<svg width="20" height="23" viewBox="0 0 20 23" fill="none" xmlns="http://www.w3.org/2000/svg">
<path d="M5 14.3125C4.77083 14.3125 4.56771 14.224 4.39062 14.0469C4.21354 13.8698 4.125 13.6667 4.125 13.4375C4.125 13.2083 4.21354 13.0052 4.39062 12.8281C4.56771 12.651 4.77083 12.5625 5 12.5625C5.22917 12.5625 5.43229 12.651 5.60938 12.8281C5.78646 13.0052 5.875 13.2083 5.875 13.4375C5.875 13.6667 5.78646 13.8698 5.60938 14.0469C5.43229 14.224 5.22917 14.3125 5 14.3125ZM10 14.3125C9.77083 14.3125 9.56771 14.224 9.39062 14.0469C9.21354 13.8698 9.125 13.6667 9.125 13.4375C9.125 13.2083 9.21354 13.0052 9.39062 12.8281C9.56771 12.651 9.77083 12.5625 10 12.5625C10.2292 12.5625 10.4323 12.651 10.6094 12.8281C10.7865 13.0052 10.875 13.2083 10.875 13.4375C10.875 13.6667 10.7865 13.8698 10.6094 14.0469C10.4323 14.224 10.2292 14.3125 10 14.3125ZM15 14.3125C14.7708 14.3125 14.5677 14.224 14.3906 14.0469C14.2135 13.8698 14.125 13.6667 14.125 13.4375C14.125 13.2083 14.2135 13.0052 14.3906 12.8281C14.5677 12.651 14.7708 12.5625 15 12.5625C15.2292 12.5625 15.4323 12.651 15.6094 12.8281C15.7865 13.0052 15.875 13.2083 15.875 13.4375C15.875 13.6667 15.7865 13.8698 15.6094 14.0469C15.4323 14.224 15.2292 14.3125 15 14.3125ZM2.25 22.875C1.70833 22.875 1.26042 22.6979 0.90625 22.3438C0.552083 21.9896 0.375 21.5417 0.375 21V5.5C0.375 4.95833 0.552083 4.51042 0.90625 4.15625C1.26042 3.80208 1.70833 3.625 2.25 3.625H4.75V1.25C4.75 1.10417 4.79688 0.984375 4.89062 0.890625C4.98438 0.796875 5.10417 0.75 5.25 0.75C5.39583 0.75 5.51562 0.796875 5.60938 0.890625C5.70312 0.984375 5.75 1.10417 5.75 1.25V3.625H14.375V1.1875C14.375 1.0625 14.4167 0.958333 14.5 0.875C14.5833 0.791667 14.6875 0.75 14.8125 0.75C14.9375 0.75 15.0417 0.791667 15.125 0.875C15.2083 0.958333 15.25 1.0625 15.25 1.1875V3.625H17.75C18.2917 3.625 18.7396 3.80208 19.0938 4.15625C19.4479 4.51042 19.625 4.95833 19.625 5.5V21C19.625 21.5417 19.4479 21.9896 19.0938 22.3438C18.7396 22.6979 18.2917 22.875 17.75 22.875H2.25ZM2.25 22H17.75C18 22 18.2292 21.8958 18.4375 21.6875C18.6458 21.4792 18.75 21.25 18.75 21V10.5H1.25V21C1.25 21.25 1.35417 21.4792 1.5625 21.6875C1.77083 21.8958 2 22 2.25 22ZM1.25 9.625H18.75V5.5C18.75 5.25 18.6458 5.02083 18.4375 4.8125C18.2292 4.60417 18 4.5 17.75 4.5H2.25C2 4.5 1.77083 4.60417 1.5625 4.8125C1.35417 5.02083 1.25 5.25 1.25 5.5V9.625Z" fill="#F9F9F9"/>
</svg>
