<svg width="23" height="22" viewBox="0 0 23 22" fill="none" xmlns="http://www.w3.org/2000/svg">
<path d="M16.25 14.4063C15.5208 14.4063 14.901 14.151 14.3906 13.6406C13.8802 13.1302 13.625 12.5104 13.625 11.7813C13.625 11.0521 13.8802 10.4323 14.3906 9.92188C14.901 9.41146 15.5208 9.15625 16.25 9.15625C16.9792 9.15625 17.599 9.41146 18.1094 9.92188C18.6198 10.4323 18.875 11.0521 18.875 11.7813C18.875 12.5104 18.6198 13.1302 18.1094 13.6406C17.599 14.151 16.9792 14.4063 16.25 14.4063ZM16.25 13.5313C16.7292 13.5313 17.1406 13.3594 17.4844 13.0156C17.8281 12.6719 18 12.2604 18 11.7813C18 11.3021 17.8281 10.8906 17.4844 10.5469C17.1406 10.2031 16.7292 10.0313 16.25 10.0313C15.7708 10.0313 15.3594 10.2031 15.0156 10.5469C14.6719 10.8906 14.5 11.3021 14.5 11.7813C14.5 12.2604 14.6719 12.6719 15.0156 13.0156C15.3594 13.3594 15.7708 13.5313 16.25 13.5313ZM10.8125 21.375C10.5469 21.375 10.3243 21.2851 10.1447 21.1053C9.9649 20.9257 9.875 20.7031 9.875 20.4375V18.875C9.875 18.634 9.9326 18.4074 10.0478 18.1953C10.1628 17.983 10.324 17.8138 10.5313 17.6875C11.0729 17.3542 11.5469 17.1198 11.9531 16.9844C12.3594 16.849 12.8771 16.7266 13.5063 16.6172C13.7104 16.5807 13.9063 16.5848 14.0938 16.6294C14.2813 16.6742 14.4375 16.7769 14.5625 16.9375L16.25 19.1563L17.9063 16.9375C18.0313 16.7708 18.1875 16.6667 18.375 16.625C18.5625 16.5833 18.7608 16.5807 18.97 16.6172C19.615 16.7266 20.1335 16.8479 20.5256 16.9813C20.9175 17.1144 21.3985 17.3498 21.9688 17.6875C22.1771 17.8125 22.3333 17.9792 22.4375 18.1875C22.5417 18.3958 22.6042 18.6146 22.625 18.8438V20.4375C22.625 20.7031 22.5352 20.9257 22.3556 21.1053C22.1758 21.2851 21.9531 21.375 21.6875 21.375H10.8125ZM10.7188 20.5H16.1563L13.8125 17.375C13.2644 17.499 12.7316 17.6602 12.2141 17.8588C11.6964 18.0571 11.1979 18.2917 10.7188 18.5625V20.5ZM16.3438 20.5H21.75V18.5625C21.2708 18.2917 20.7724 18.0625 20.2547 17.875C19.7372 17.6875 19.2044 17.5313 18.6563 17.4063L16.3438 20.5ZM1.25 18.75V1.25V5.90625V5.40625V18.75ZM2.265 19.625C1.73417 19.625 1.28646 19.4414 0.921875 19.0741C0.557292 18.707 0.375 18.2656 0.375 17.75V2.25C0.375 1.73438 0.558646 1.29292 0.925938 0.925625C1.29302 0.558542 1.73438 0.375 2.25 0.375H17.75C18.2656 0.375 18.7071 0.558542 19.0744 0.925625C19.4415 1.29292 19.625 1.73438 19.625 2.25V6.375C19.4792 6.27083 19.3385 6.18229 19.2031 6.10938C19.0677 6.03646 18.9167 5.96875 18.75 5.90625V2.25C18.75 1.95833 18.6563 1.71875 18.4688 1.53125C18.2813 1.34375 18.0417 1.25 17.75 1.25H2.25C1.95833 1.25 1.71875 1.34375 1.53125 1.53125C1.34375 1.71875 1.25 1.95833 1.25 2.25V17.75C1.25 18.0417 1.34375 18.2813 1.53125 18.4688C1.71875 18.6563 1.95833 18.75 2.25 18.75H6.125V19.625H2.265ZM5 5.8125H14C14.2292 5.70833 14.4635 5.63542 14.7031 5.59375C14.9427 5.55208 15.1875 5.51042 15.4375 5.46875V5.375C15.4375 5.25104 15.3955 5.14719 15.3116 5.06344C15.2278 4.97948 15.124 4.9375 15 4.9375H5C4.87604 4.9375 4.77208 4.97958 4.68813 5.06375C4.60437 5.14771 4.5625 5.25187 4.5625 5.37625C4.5625 5.50042 4.60437 5.60417 4.68813 5.6875C4.77208 5.77083 4.87604 5.8125 5 5.8125ZM5 10.4375H10.0313C10.0729 10.2708 10.1146 10.1198 10.1563 9.98438C10.1979 9.84896 10.2396 9.70833 10.2813 9.5625H5C4.87604 9.5625 4.77208 9.60458 4.68813 9.68875C4.60437 9.77271 4.5625 9.87688 4.5625 10.0013C4.5625 10.1254 4.60437 10.2292 4.68813 10.3125C4.77208 10.3958 4.87604 10.4375 5 10.4375ZM5 15.0625H7.80969C8.0199 14.8958 8.23438 14.7344 8.45313 14.5781C8.67188 14.4219 8.89583 14.2917 9.125 14.1875H5C4.87604 14.1875 4.77208 14.2296 4.68813 14.3138C4.60437 14.3977 4.5625 14.5019 4.5625 14.6263C4.5625 14.7504 4.60437 14.8542 4.68813 14.9375C4.77208 15.0208 4.87604 15.0625 5 15.0625Z" fill="#F9F9F9"/>
</svg>
