<svg width="24" height="24" viewBox="0 0 24 24" fill="none" xmlns="http://www.w3.org/2000/svg">
<path d="M8.21875 15.5938C8.09479 15.5938 7.99083 15.5517 7.90687 15.4675C7.82312 15.3835 7.78125 15.2794 7.78125 15.155C7.78125 15.0308 7.82312 14.9271 7.90687 14.8438C7.99083 14.7604 8.09479 14.7188 8.21875 14.7188H11.4063C11.5302 14.7188 11.6342 14.7608 11.7181 14.845C11.8019 14.929 11.8438 15.0331 11.8438 15.1575C11.8438 15.2817 11.8019 15.3854 11.7181 15.4688C11.6342 15.5521 11.5302 15.5938 11.4063 15.5938H8.21875ZM7.5625 21.875C6.12729 21.875 4.90385 21.3854 3.89219 20.4062C2.88073 19.4271 2.375 18.2292 2.375 16.8125V5.4375C1.83333 5.4375 1.375 5.25521 1 4.89062C0.625 4.52604 0.4375 4.07292 0.4375 3.53125V2.0625C0.4375 1.52958 0.627188 1.07344 1.00656 0.694063C1.38615 0.314688 1.84229 0.125 2.375 0.125H12.7188C13.2602 0.125 13.7236 0.314688 14.1091 0.694063C14.4947 1.07344 14.6875 1.52958 14.6875 2.0625V3.53125C14.6875 4.07292 14.4947 4.52604 14.1091 4.89062C13.7236 5.25521 13.2602 5.4375 12.7188 5.4375V8.96875C12.7188 9.48438 12.5352 9.92573 12.1681 10.2928C11.8008 10.6601 11.3594 10.8438 10.8438 10.8438H8.21875C8.09479 10.8438 7.99083 10.8017 7.90687 10.7175C7.82312 10.6335 7.78125 10.5294 7.78125 10.405C7.78125 10.2808 7.82312 10.1771 7.90687 10.0938C7.99083 10.0104 8.09479 9.96875 8.21875 9.96875H11.8438V5.4375H3.25V16.8125C3.25 18 3.6701 18.9948 4.51031 19.7969C5.35031 20.599 6.37042 21 7.57063 21C8.00271 21 8.41667 20.9427 8.8125 20.8281C9.20833 20.7135 9.58333 20.5417 9.9375 20.3125C10.0417 20.25 10.151 20.2292 10.2656 20.25C10.3802 20.2708 10.4669 20.3333 10.5256 20.4375C10.5919 20.5417 10.6099 20.6551 10.5797 20.7778C10.5493 20.9007 10.481 20.9956 10.375 21.0625C9.95833 21.3125 9.5176 21.5104 9.05281 21.6562C8.58802 21.8021 8.09125 21.875 7.5625 21.875ZM2.375 4.5625H12.7188C13.0104 4.5625 13.2656 4.46354 13.4844 4.26562C13.7031 4.06771 13.8125 3.82292 13.8125 3.53125V2.0625C13.8125 1.77083 13.7031 1.52083 13.4844 1.3125C13.2656 1.10417 13.0104 1 12.7188 1H2.375C2.08333 1 1.83333 1.10417 1.625 1.3125C1.41667 1.52083 1.3125 1.77083 1.3125 2.0625V3.53125C1.3125 3.82292 1.41667 4.06771 1.625 4.26562C1.83333 4.46354 2.08333 4.5625 2.375 4.5625ZM17.0938 20.25C18.0938 20.25 18.9479 19.8958 19.6562 19.1875C20.3646 18.4792 20.7188 17.625 20.7188 16.625C20.7188 15.625 20.3646 14.7708 19.6562 14.0625C18.9479 13.3542 18.0938 13 17.0938 13C16.0938 13 15.2396 13.3542 14.5313 14.0625C13.8229 14.7708 13.4688 15.625 13.4688 16.625C13.4688 17.625 13.8229 18.4792 14.5313 19.1875C15.2396 19.8958 16.0938 20.25 17.0938 20.25ZM17.0938 21.125C15.8438 21.125 14.7813 20.6875 13.9063 19.8125C13.0313 18.9375 12.5938 17.875 12.5938 16.625C12.5938 15.375 13.0313 14.3125 13.9063 13.4375C14.7813 12.5625 15.8438 12.125 17.0938 12.125C18.3438 12.125 19.4062 12.5625 20.2812 13.4375C21.1562 14.3125 21.5938 15.375 21.5938 16.625C21.5938 17.1521 21.5052 17.6589 21.3281 18.1453C21.151 18.6318 20.8958 19.0833 20.5625 19.5L23.7813 22.7188C23.8646 22.8021 23.9062 22.8958 23.9062 23C23.9062 23.1042 23.8646 23.1979 23.7813 23.2812C23.6979 23.3646 23.5972 23.4062 23.4791 23.4062C23.3611 23.4062 23.264 23.3646 23.1875 23.2812L19.9688 20.0938C19.5521 20.4271 19.1005 20.6823 18.6141 20.8594C18.1276 21.0365 17.6208 21.125 17.0938 21.125Z" fill="white"/>
</svg>
