<svg width="20" height="16" viewBox="0 0 20 16" fill="none" xmlns="http://www.w3.org/2000/svg">
<path d="M2.1875 11.875C3.27083 11.375 4.34375 10.9896 5.40625 10.7188C6.46875 10.4479 7.53125 10.2917 8.59375 10.25C8.57292 10.3542 8.55208 10.4531 8.53125 10.5469C8.51042 10.6406 8.52083 10.7292 8.5625 10.8125C8.58333 10.8542 8.61458 10.8802 8.65625 10.8906C8.69792 10.901 8.71875 10.9271 8.71875 10.9688C8.71875 11.0104 8.70312 11.0469 8.67188 11.0781C8.64062 11.1094 8.60417 11.125 8.5625 11.125C7.54167 11.1667 6.53125 11.3125 5.53125 11.5625C4.53125 11.8125 3.5625 12.1667 2.625 12.625C2.27083 12.8125 1.99479 13.0365 1.79688 13.2969C1.59896 13.5573 1.5 13.8333 1.5 14.125V14.875H10.3125C10.4583 14.875 10.5677 14.92 10.6406 15.01C10.7135 15.1 10.75 15.199 10.75 15.3069C10.75 15.4148 10.7135 15.5156 10.6406 15.6094C10.5677 15.7031 10.4583 15.75 10.3125 15.75H1.5625C1.29167 15.75 1.06771 15.6615 0.890625 15.4844C0.713542 15.3073 0.625 15.0833 0.625 14.8125V14.125C0.625 13.6667 0.765625 13.2344 1.04688 12.8281C1.32812 12.4219 1.70833 12.1042 2.1875 11.875ZM9 7C8.07188 7 7.2774 6.66958 6.61656 6.00875C5.95552 5.34771 5.625 4.55312 5.625 3.625C5.625 2.69688 5.95552 1.90229 6.61656 1.24125C7.2774 0.580416 8.07188 0.25 9 0.25C9.92813 0.25 10.7227 0.580416 11.3838 1.24125C12.0446 1.90229 12.375 2.69688 12.375 3.625C12.375 4.55312 12.0446 5.34771 11.3838 6.00875C10.7227 6.66958 9.92813 7 9 7ZM9 6.125C9.6875 6.125 10.276 5.88021 10.7656 5.39062C11.2552 4.90104 11.5 4.3125 11.5 3.625C11.5 2.9375 11.2552 2.34896 10.7656 1.85938C10.276 1.36979 9.6875 1.125 9 1.125C8.3125 1.125 7.72396 1.36979 7.23438 1.85938C6.74479 2.34896 6.5 2.9375 6.5 3.625C6.5 4.3125 6.74479 4.90104 7.23438 5.39062C7.72396 5.88021 8.3125 6.125 9 6.125ZM15.7812 9.9375C16.1354 9.58333 16.4497 9.29688 16.7241 9.07812C16.9982 8.85938 17.3764 8.75 17.8584 8.75C18.4736 8.75 18.9635 8.95833 19.3281 9.375C19.6927 9.79167 19.875 10.2684 19.875 10.8053C19.875 11.0568 19.8281 11.3083 19.7344 11.56C19.6406 11.8117 19.492 12.0393 19.2884 12.2428L16.4375 15.0938C16.25 15.2812 16.0312 15.375 15.7812 15.375C15.5312 15.375 15.3125 15.2812 15.125 15.0938L12.2812 12.25C12.0521 12.0208 11.8958 11.7847 11.8125 11.5416C11.7292 11.2986 11.6875 11.0556 11.6875 10.8125C11.6875 10.2758 11.8774 9.79792 12.2572 9.37875C12.637 8.95958 13.1242 8.75 13.7188 8.75C14.1952 8.75 14.5695 8.85938 14.8416 9.07812C15.1139 9.29688 15.4271 9.58333 15.7812 9.9375Z" fill="white"/>
</svg>
