<svg width="24" height="18" viewBox="0 0 24 18" fill="none" xmlns="http://www.w3.org/2000/svg">
<path d="M15.4509 17.375C13.1093 17.375 11.1257 16.5624 9.50031 14.9372C7.8751 13.3118 7.0625 11.3282 7.0625 8.98656C7.0625 6.66219 7.8751 4.6875 9.50031 3.0625C11.1257 1.4375 13.1093 0.625 15.4509 0.625C17.7753 0.625 19.75 1.4375 21.375 3.0625C23 4.6875 23.8125 6.66219 23.8125 8.98656C23.8125 11.3282 23 13.3118 21.375 14.9372C19.75 16.5624 17.7753 17.375 15.4509 17.375ZM15.4375 16.5C17.5208 16.5 19.2917 15.7708 20.75 14.3125C22.2083 12.8542 22.9375 11.0833 22.9375 9C22.9375 6.91667 22.2083 5.14583 20.75 3.6875C19.2917 2.22917 17.5208 1.5 15.4375 1.5C13.3542 1.5 11.5833 2.22917 10.125 3.6875C8.66667 5.14583 7.9375 6.91667 7.9375 9C7.9375 11.0833 8.66667 12.8542 10.125 14.3125C11.5833 15.7708 13.3542 16.5 15.4375 16.5ZM15.875 8.84375V4.9375C15.875 4.81354 15.8329 4.70969 15.7488 4.62594C15.6648 4.54198 15.5606 4.5 15.4363 4.5C15.3121 4.5 15.2083 4.54198 15.125 4.62594C15.0417 4.70969 15 4.81354 15 4.9375V8.8125C15 8.92854 15.0208 9.04083 15.0625 9.14937C15.1042 9.25813 15.1798 9.36781 15.2894 9.47844L18.2812 12.5C18.3646 12.6042 18.4635 12.6562 18.5781 12.6562C18.6927 12.6562 18.8021 12.6042 18.9062 12.5C19.0104 12.3958 19.0625 12.2917 19.0625 12.1875C19.0625 12.0833 19.0104 11.9792 18.9062 11.875L15.875 8.84375ZM1.875 4.4375C1.75104 4.4375 1.64708 4.39542 1.56313 4.31125C1.47938 4.22729 1.4375 4.12313 1.4375 3.99875C1.4375 3.87458 1.47938 3.77083 1.56313 3.6875C1.64708 3.60417 1.75104 3.5625 1.875 3.5625H5.375C5.49896 3.5625 5.60292 3.60458 5.68688 3.68875C5.77063 3.77271 5.8125 3.87687 5.8125 4.00125C5.8125 4.12542 5.77063 4.22917 5.68688 4.3125C5.60292 4.39583 5.49896 4.4375 5.375 4.4375H1.875ZM0.625 9.4375C0.501042 9.4375 0.397187 9.39542 0.313437 9.31125C0.229479 9.22729 0.1875 9.12313 0.1875 8.99875C0.1875 8.87458 0.229479 8.77083 0.313437 8.6875C0.397187 8.60417 0.501042 8.5625 0.625 8.5625H5.375C5.49896 8.5625 5.60292 8.60458 5.68688 8.68875C5.77063 8.77271 5.8125 8.87687 5.8125 9.00125C5.8125 9.12542 5.77063 9.22917 5.68688 9.3125C5.60292 9.39583 5.49896 9.4375 5.375 9.4375H0.625ZM1.875 14.4375C1.75104 14.4375 1.64708 14.3954 1.56313 14.3113C1.47938 14.2273 1.4375 14.1231 1.4375 13.9988C1.4375 13.8746 1.47938 13.7708 1.56313 13.6875C1.64708 13.6042 1.75104 13.5625 1.875 13.5625H5.375C5.49896 13.5625 5.60292 13.6046 5.68688 13.6888C5.77063 13.7727 5.8125 13.8769 5.8125 14.0013C5.8125 14.1254 5.77063 14.2292 5.68688 14.3125C5.60292 14.3958 5.49896 14.4375 5.375 14.4375H1.875Z" fill="white"/>
</svg>
