<svg width="20" height="20" viewBox="0 0 20 20" fill="none" xmlns="http://www.w3.org/2000/svg">
<path d="M1.25072 19.625C0.877799 19.625 0.612695 19.4583 0.455404 19.125C0.298112 18.7917 0.334049 18.4792 0.563216 18.1875L7.87572 9.3125V1.25H6.00072C5.87676 1.25 5.7728 1.20792 5.68884 1.12375C5.60509 1.03979 5.56322 0.935626 5.56322 0.811251C5.56322 0.687084 5.60509 0.583333 5.68884 0.5C5.7728 0.416667 5.87676 0.375 6.00072 0.375H14.0007C14.1247 0.375 14.2285 0.417083 14.3123 0.501249C14.3962 0.585208 14.4382 0.689374 14.4382 0.813749C14.4382 0.937916 14.3962 1.04167 14.3123 1.125C14.2285 1.20833 14.1247 1.25 14.0007 1.25H12.1257V9.3125L19.4382 18.1875C19.6674 18.4792 19.7033 18.7917 19.546 19.125C19.3887 19.4583 19.1236 19.625 18.7507 19.625H1.25072ZM3.75072 17.5H16.2507L12.0007 12.5H8.00072L3.75072 17.5ZM1.25072 18.75H18.7507L11.2507 9.625V1.25H8.75072V9.625L1.25072 18.75Z" fill="#F9F9F9"/>
</svg>
