<svg width="26" height="18" viewBox="0 0 26 18" fill="none" xmlns="http://www.w3.org/2000/svg">
<path d="M2.75 17.625C2.22917 17.625 1.78646 17.4427 1.42188 17.0781C1.05729 16.7135 0.875 16.2708 0.875 15.75V11.5C0.875 10.9792 1.05729 10.5365 1.42188 10.1719C1.78646 9.80729 2.22917 9.625 2.75 9.625H3.375V3.625H3.0625C2.79167 3.625 2.56771 3.53646 2.39062 3.35938C2.21354 3.18229 2.125 2.95833 2.125 2.6875V1C2.125 0.729167 2.21354 0.505208 2.39062 0.328125C2.56771 0.151042 2.79167 0.0625 3.0625 0.0625H9.1875C9.45833 0.0625 9.68229 0.151042 9.85938 0.328125C10.0365 0.505208 10.125 0.729167 10.125 1V2.6875C10.125 2.95833 10.0365 3.18229 9.85938 3.35938C9.68229 3.53646 9.45833 3.625 9.1875 3.625H8.875V9.625H17.125V3.625H16.8125C16.5417 3.625 16.3177 3.53646 16.1406 3.35938C15.9635 3.18229 15.875 2.95833 15.875 2.6875V1C15.875 0.729167 15.9635 0.505208 16.1406 0.328125C16.3177 0.151042 16.5417 0.0625 16.8125 0.0625H22.9375C23.2083 0.0625 23.4323 0.151042 23.6094 0.328125C23.7865 0.505208 23.875 0.729167 23.875 1V2.6875C23.875 2.95833 23.7865 3.18229 23.6094 3.35938C23.4323 3.53646 23.2083 3.625 22.9375 3.625H22.625V9.625H23.25C23.7708 9.625 24.2135 9.80729 24.5781 10.1719C24.9427 10.5365 25.125 10.9792 25.125 11.5V15.75C25.125 16.2708 24.9427 16.7135 24.5781 17.0781C24.2135 17.4427 23.7708 17.625 23.25 17.625H2.75ZM16.75 2.75H23V0.9375H16.75V2.75ZM3 2.75H9.25V0.9375H3V2.75ZM18 9.625H21.75V3.625H18V9.625ZM4.25 9.625H8V3.625H4.25V9.625ZM2.75 16.75H23.25C23.5417 16.75 23.7812 16.6562 23.9688 16.4688C24.1562 16.2812 24.25 16.0417 24.25 15.75V11.5C24.25 11.2083 24.1562 10.9688 23.9688 10.7812C23.7812 10.5938 23.5417 10.5 23.25 10.5H2.75C2.45833 10.5 2.21875 10.5938 2.03125 10.7812C1.84375 10.9688 1.75 11.2083 1.75 11.5V15.75C1.75 16.0417 1.84375 16.2812 2.03125 16.4688C2.21875 16.6562 2.45833 16.75 2.75 16.75Z" fill="#F9F9F9"/>
</svg>
