<svg width="22" height="22" viewBox="0 0 22 22" fill="none" xmlns="http://www.w3.org/2000/svg">
<path d="M11.4375 10.8438L15.4375 14.8438C15.5208 14.9271 15.5573 15.026 15.5469 15.1406C15.5365 15.2552 15.4896 15.3542 15.4062 15.4375C15.3229 15.5208 15.2222 15.5625 15.1041 15.5625C14.9861 15.5625 14.889 15.5208 14.8125 15.4375L10.8438 11.4375C10.7396 11.3333 10.6667 11.2269 10.625 11.1181C10.5833 11.0096 10.5625 10.8973 10.5625 10.7813V6C10.5625 5.87604 10.6046 5.77219 10.6888 5.68844C10.7727 5.60448 10.8769 5.5625 11.0013 5.5625C11.1254 5.5625 11.2292 5.60448 11.3125 5.68844C11.3958 5.77219 11.4375 5.87604 11.4375 6V10.8438ZM14.5919 2.40625C14.364 2.40625 14.1719 2.3275 14.0156 2.17C13.8594 2.01271 13.7812 1.82 13.7812 1.59188C13.7812 1.36396 13.86 1.17188 14.0175 1.01563C14.1748 0.859375 14.3675 0.78125 14.5956 0.78125C14.8235 0.78125 15.0156 0.86 15.1719 1.0175C15.3281 1.17479 15.4062 1.3675 15.4062 1.59562C15.4062 1.82354 15.3275 2.01562 15.17 2.17188C15.0127 2.32812 14.82 2.40625 14.5919 2.40625ZM14.4981 21.2188C14.2702 21.2188 14.0781 21.14 13.9219 20.9825C13.7656 20.8252 13.6875 20.6325 13.6875 20.4044C13.6875 20.1765 13.7663 19.9844 13.9238 19.8281C14.081 19.6719 14.2738 19.5938 14.5019 19.5938C14.7298 19.5938 14.9219 19.6725 15.0781 19.83C15.2344 19.9873 15.3125 20.18 15.3125 20.4081C15.3125 20.636 15.2338 20.8281 15.0763 20.9844C14.919 21.1406 14.7262 21.2188 14.4981 21.2188ZM19.4981 6.40625C19.2702 6.40625 19.0781 6.3275 18.9219 6.17C18.7656 6.01271 18.6875 5.82 18.6875 5.59188C18.6875 5.36396 18.7663 5.17188 18.9237 5.01562C19.081 4.85938 19.2738 4.78125 19.5019 4.78125C19.7298 4.78125 19.9219 4.86 20.0781 5.0175C20.2344 5.17479 20.3125 5.3675 20.3125 5.59562C20.3125 5.82354 20.2338 6.01562 20.0763 6.17188C19.919 6.32812 19.7262 6.40625 19.4981 6.40625ZM19.4044 17.3125C19.1765 17.3125 18.9844 17.2337 18.8281 17.0763C18.6719 16.919 18.5938 16.7262 18.5938 16.4981C18.5938 16.2702 18.6725 16.0781 18.83 15.9219C18.9873 15.7656 19.18 15.6875 19.4081 15.6875C19.636 15.6875 19.8281 15.7662 19.9844 15.9237C20.1406 16.081 20.2188 16.2738 20.2188 16.5019C20.2188 16.7298 20.14 16.9219 19.9825 17.0781C19.8252 17.2344 19.6325 17.3125 19.4044 17.3125ZM21.0606 11.8125C20.8327 11.8125 20.6406 11.7338 20.4844 11.5763C20.3281 11.419 20.25 11.2263 20.25 10.9981C20.25 10.7702 20.3287 10.5781 20.4862 10.4219C20.6435 10.2656 20.8363 10.1875 21.0644 10.1875C21.2923 10.1875 21.4844 10.2663 21.6406 10.4237C21.7969 10.581 21.875 10.7738 21.875 11.0019C21.875 11.2298 21.7963 11.4219 21.6388 11.5781C21.4815 11.7344 21.2888 11.8125 21.0606 11.8125ZM0.125 10.9953C0.125 8.08177 1.125 5.57812 3.125 3.48438C5.125 1.39062 7.57292 0.270833 10.4688 0.125C10.6146 0.125 10.7396 0.167812 10.8438 0.253437C10.9479 0.338854 11 0.444895 11 0.571562C11 0.69052 10.9479 0.791667 10.8438 0.875C10.7396 0.958333 10.625 1 10.5 1C7.83333 1.125 5.58333 2.15104 3.75 4.07813C1.91667 6.00521 1 8.31229 1 10.9994C1 13.7081 1.91667 16.0208 3.75 17.9375C5.58333 19.8542 7.83333 20.875 10.5 21C10.625 21 10.7396 21.0439 10.8438 21.1316C10.9479 21.2193 11 21.3217 11 21.4388C11 21.5629 10.9479 21.6667 10.8438 21.75C10.7396 21.8333 10.6146 21.875 10.4688 21.875C7.57292 21.7292 5.125 20.6078 3.125 18.5109C1.125 16.4139 0.125 13.9086 0.125 10.9953Z" fill="#F9F9F9"/>
</svg>
