<svg width="69" height="50" viewBox="0 0 69 50" fill="none" xmlns="http://www.w3.org/2000/svg">
<path d="M34.5 9.33333C36.4444 6.27778 38.6944 3.95833 41.25 2.375C43.8056 0.791667 46.5556 0 49.5 0C53.4444 0 56.7639 1.34722 59.4583 4.04167C62.1528 6.73611 63.5 10.0556 63.5 14C63.5 14.3889 63.4861 14.75 63.4583 15.0833C63.4306 15.4167 63.3889 15.7778 63.3333 16.1667C63.3333 16.5 63.2222 16.7778 63 17C62.7778 17.2222 62.5 17.3333 62.1667 17.3333C61.8333 17.3333 61.5556 17.2222 61.3333 17C61.1111 16.7778 61 16.5 61 16.1667C61.0556 15.7778 61.0972 15.4167 61.125 15.0833C61.1528 14.75 61.1667 14.3889 61.1667 14C61.1667 10.6667 60.0417 7.88889 57.7917 5.66667C55.5417 3.44444 52.7778 2.33333 49.5 2.33333C47 2.33333 44.6944 2.98611 42.5833 4.29167C40.4722 5.59722 38.4444 7.66667 36.5 10.5C36.2222 10.8333 35.9028 11.0972 35.5417 11.2917C35.1806 11.4861 34.8056 11.5833 34.4167 11.5833C34.0278 11.5833 33.6667 11.4861 33.3333 11.2917C33 11.0972 32.6944 10.8333 32.4167 10.5C30.4722 7.66667 28.4583 5.59722 26.375 4.29167C24.2917 2.98611 22 2.33333 19.5 2.33333C16.2222 2.33333 13.4583 3.44444 11.2083 5.66667C8.95833 7.88889 7.83333 10.6667 7.83333 14C7.83333 14.3889 7.84722 14.75 7.875 15.0833C7.90278 15.4167 7.94444 15.7778 8 16.1667C8 16.5 7.88889 16.7778 7.66667 17C7.44444 17.2222 7.16667 17.3333 6.83333 17.3333C6.5 17.3333 6.22222 17.2222 6 17C5.77778 16.7778 5.66667 16.5 5.66667 16.1667C5.61111 15.7778 5.56944 15.4167 5.54167 15.0833C5.51389 14.75 5.5 14.3889 5.5 14C5.5 10.0556 6.84722 6.73611 9.54167 4.04167C12.2361 1.34722 15.5556 0 19.5 0C22.4444 0 25.1944 0.791667 27.75 2.375C30.3056 3.95833 32.5556 6.27778 34.5 9.33333ZM34.5 49.6667C33.9444 49.6667 33.4306 49.5417 32.9583 49.2917C32.4861 49.0417 32.0278 48.7222 31.5833 48.3333C30.6944 47.5556 28.9444 45.8889 26.3333 43.3333C23.7222 40.7778 21.5556 38.6944 19.8333 37.0833C19.5556 36.8056 19.4306 36.5278 19.4583 36.25C19.4861 35.9722 19.6111 35.7222 19.8333 35.5C20.0556 35.2778 20.3056 35.1528 20.5833 35.125C20.8611 35.0972 21.1389 35.2222 21.4167 35.5C23.1389 37.2222 25.0833 39.0972 27.25 41.125C29.4167 43.1528 31.8333 45.3889 34.5 47.8333C37.1667 45.3889 39.5833 43.1667 41.75 41.1667C43.9167 39.1667 45.8611 37.2778 47.5833 35.5C47.8611 35.2222 48.1389 35.0972 48.4167 35.125C48.6944 35.1528 48.9444 35.2778 49.1667 35.5C49.3889 35.7222 49.5139 35.9861 49.5417 36.2917C49.5694 36.5972 49.4444 36.8889 49.1667 37.1667C47.4444 38.7778 45.2639 40.8472 42.625 43.375C39.9861 45.9028 38.2778 47.5556 37.5 48.3333C37.0556 48.7778 36.5972 49.1111 36.125 49.3333C35.6528 49.5556 35.1111 49.6667 34.5 49.6667ZM31.3333 36.8333C31.5556 36.8333 31.7361 36.7639 31.875 36.625C32.0139 36.4861 32.1389 36.3056 32.25 36.0833L38.1667 18.3333L43.0833 25.75C43.3611 26.0833 43.6667 26.3472 44 26.5417C44.3333 26.7361 44.7222 26.8333 45.1667 26.8333H67.8333C68.1667 26.8333 68.4444 26.7222 68.6667 26.5C68.8889 26.2778 69 26 69 25.6667C69 25.3333 68.8889 25.0556 68.6667 24.8333C68.4444 24.6111 68.1667 24.5 67.8333 24.5H45L38.75 15.0833C38.6389 14.9167 38.4861 14.7917 38.2917 14.7083C38.0972 14.625 37.8889 14.5833 37.6667 14.5833C37.4444 14.5833 37.25 14.6528 37.0833 14.7917C36.9167 14.9306 36.8056 15.1111 36.75 15.3333L30.8333 33.1667L25.75 25.5833C25.4722 25.25 25.1667 24.9861 24.8333 24.7917C24.5 24.5972 24.1111 24.5 23.6667 24.5H1.16667C0.833333 24.5 0.555556 24.6111 0.333333 24.8333C0.111111 25.0556 0 25.3333 0 25.6667C0 26 0.111111 26.2778 0.333333 26.5C0.555556 26.7222 0.833333 26.8333 1.16667 26.8333H23.8333L30.1667 36.3333C30.2778 36.5556 30.4444 36.6944 30.6667 36.75C30.8889 36.8056 31.1111 36.8333 31.3333 36.8333Z" fill="#1656A5"/>
</svg>
