<svg width="36" height="30" viewBox="0 0 36 30" fill="none" xmlns="http://www.w3.org/2000/svg">
<path d="M24.9839 19.125C23.8297 19.125 22.8446 18.7212 22.0286 17.9135C21.2127 17.1056 20.8047 16.1247 20.8047 14.9708C20.8047 13.8167 21.2085 12.8316 22.0161 12.0156C22.8241 11.1997 23.805 10.7917 24.9589 10.7917C26.113 10.7917 27.0981 11.1955 27.9141 12.0031C28.73 12.8111 29.138 13.792 29.138 14.9458C29.138 16.1 28.7342 17.0851 27.9266 17.901C27.1186 18.717 26.1377 19.125 24.9839 19.125ZM16.1172 29.5417C15.6745 29.5417 15.3035 29.3918 15.0042 29.0922C14.7045 28.7929 14.5547 28.4219 14.5547 27.9792V27.6667C14.5547 27.2958 14.6502 26.9427 14.8411 26.6073C15.0321 26.2719 15.2839 26 15.5964 25.7917C17.02 24.9931 18.508 24.3767 20.0604 23.9427C21.6128 23.5087 23.2498 23.2917 24.9714 23.2917C26.6929 23.2917 28.3299 23.5087 29.8823 23.9427C31.4347 24.3767 32.9227 24.9931 34.3464 25.7917C34.6589 26 34.9106 26.2719 35.1016 26.6073C35.2925 26.9427 35.388 27.2958 35.388 27.6667V27.9792C35.388 28.4219 35.2384 28.7929 34.9391 29.0922C34.6394 29.3918 34.2682 29.5417 33.8255 29.5417H16.1172ZM16.013 27.25V28.0833H33.9297V27.25C32.5061 26.4514 31.0391 25.8351 29.5286 25.401C28.0182 24.967 26.4991 24.75 24.9714 24.75C23.4436 24.75 21.9245 24.967 20.4141 25.401C18.9036 25.8351 17.4366 26.4514 16.013 27.25ZM24.9714 17.6667C25.7005 17.6667 26.3342 17.3976 26.8724 16.8594C27.4106 16.3212 27.6797 15.6875 27.6797 14.9583C27.6797 14.2292 27.4106 13.5955 26.8724 13.0573C26.3342 12.5191 25.7005 12.25 24.9714 12.25C24.2422 12.25 23.6085 12.5191 23.0703 13.0573C22.5321 13.5955 22.263 14.2292 22.263 14.9583C22.263 15.6875 22.5321 16.3212 23.0703 16.8594C23.6085 17.3976 24.2422 17.6667 24.9714 17.6667ZM13.8776 18.8125H1.3776C1.17101 18.8125 0.997743 18.7424 0.857813 18.6021C0.718229 18.4622 0.648438 18.2885 0.648438 18.0812C0.648438 17.8743 0.718229 17.7014 0.857813 17.5625C0.997743 17.4236 1.17101 17.3542 1.3776 17.3542H13.8776C14.0842 17.3542 14.2575 17.4243 14.3974 17.5646C14.537 17.7045 14.6068 17.8781 14.6068 18.0854C14.6068 18.2924 14.537 18.4653 14.3974 18.6042C14.2575 18.7431 14.0842 18.8125 13.8776 18.8125ZM22.2109 2.14583H1.3776C1.17101 2.14583 0.997743 2.0757 0.857813 1.93542C0.718229 1.79549 0.648438 1.62188 0.648438 1.41458C0.648438 1.20764 0.718229 1.03472 0.857813 0.895833C0.997743 0.756944 1.17101 0.6875 1.3776 0.6875H22.2109C22.4175 0.6875 22.5906 0.757638 22.7302 0.897916C22.8701 1.03785 22.9401 1.21146 22.9401 1.41875C22.9401 1.62569 22.8701 1.79861 22.7302 1.9375C22.5906 2.07639 22.4175 2.14583 22.2109 2.14583ZM16.7422 10.4792H1.3776C1.17101 10.4792 0.997743 10.409 0.857813 10.2688C0.718229 10.1288 0.648438 9.95521 0.648438 9.74792C0.648438 9.54097 0.718229 9.36806 0.857813 9.22917C0.997743 9.09028 1.17101 9.02083 1.3776 9.02083H17.7318C17.5582 9.26389 17.3846 9.49826 17.2109 9.72396C17.0373 9.94965 16.8811 10.2014 16.7422 10.4792Z" fill="#1656A5"/>
</svg>
