<svg width="40" height="40" viewBox="0 0 40 40" fill="none" xmlns="http://www.w3.org/2000/svg">
<path d="M13.6953 26.6562C13.4887 26.6562 13.3154 26.5861 13.1755 26.4458C13.0359 26.3059 12.9661 26.1323 12.9661 25.925C12.9661 25.7181 13.0359 25.5451 13.1755 25.4062C13.3154 25.2674 13.4887 25.1979 13.6953 25.1979H19.0078C19.2144 25.1979 19.3877 25.2681 19.5276 25.4083C19.6672 25.5483 19.737 25.7219 19.737 25.9292C19.737 26.1361 19.6672 26.309 19.5276 26.4479C19.3877 26.5868 19.2144 26.6562 19.0078 26.6562H13.6953ZM12.6016 37.125C10.2095 37.125 8.17049 36.309 6.48438 34.6771C4.79861 33.0451 3.95573 31.0486 3.95573 28.6875V9.72917C3.05295 9.72917 2.28906 9.42535 1.66406 8.81771C1.03906 8.21007 0.726562 7.45486 0.726562 6.55208V4.10417C0.726562 3.21597 1.04271 2.45573 1.675 1.82344C2.30764 1.19115 3.06788 0.875 3.95573 0.875H21.1953C22.0977 0.875 22.8701 1.19115 23.5125 1.82344C24.1552 2.45573 24.4766 3.21597 24.4766 4.10417V6.55208C24.4766 7.45486 24.1552 8.21007 23.5125 8.81771C22.8701 9.42535 22.0977 9.72917 21.1953 9.72917V15.6146C21.1953 16.474 20.8894 17.2095 20.2776 17.8214C19.6655 18.4335 18.9297 18.7396 18.0703 18.7396H13.6953C13.4887 18.7396 13.3154 18.6694 13.1755 18.5292C13.0359 18.3892 12.9661 18.2156 12.9661 18.0083C12.9661 17.8014 13.0359 17.6285 13.1755 17.4896C13.3154 17.3507 13.4887 17.2812 13.6953 17.2812H19.737V9.72917H5.41406V28.6875C5.41406 30.6667 6.11424 32.3247 7.51458 33.6615C8.91458 34.9983 10.6148 35.6667 12.6151 35.6667C13.3352 35.6667 14.0252 35.5712 14.6849 35.3802C15.3446 35.1892 15.9696 34.9028 16.5599 34.5208C16.7335 34.4167 16.9158 34.3819 17.1068 34.4167C17.2977 34.4514 17.4422 34.5556 17.5401 34.7292C17.6505 34.9028 17.6806 35.0918 17.6302 35.2964C17.5795 35.5012 17.4658 35.6594 17.2891 35.7708C16.5946 36.1875 15.8601 36.5174 15.0854 36.7604C14.3108 37.0035 13.4828 37.125 12.6016 37.125ZM3.95573 8.27083H21.1953C21.6814 8.27083 22.1068 8.1059 22.4714 7.77604C22.8359 7.44618 23.0182 7.03819 23.0182 6.55208V4.10417C23.0182 3.61806 22.8359 3.20139 22.4714 2.85417C22.1068 2.50694 21.6814 2.33333 21.1953 2.33333H3.95573C3.46962 2.33333 3.05295 2.50694 2.70573 2.85417C2.35851 3.20139 2.1849 3.61806 2.1849 4.10417V6.55208C2.1849 7.03819 2.35851 7.44618 2.70573 7.77604C3.05295 8.1059 3.46962 8.27083 3.95573 8.27083ZM28.487 34.4167C30.1536 34.4167 31.5773 33.8264 32.7578 32.6458C33.9384 31.4653 34.5286 30.0417 34.5286 28.375C34.5286 26.7083 33.9384 25.2847 32.7578 24.1042C31.5773 22.9236 30.1536 22.3333 28.487 22.3333C26.8203 22.3333 25.3967 22.9236 24.2161 24.1042C23.0356 25.2847 22.4453 26.7083 22.4453 28.375C22.4453 30.0417 23.0356 31.4653 24.2161 32.6458C25.3967 33.8264 26.8203 34.4167 28.487 34.4167ZM28.487 35.875C26.4036 35.875 24.6328 35.1458 23.1745 33.6875C21.7161 32.2292 20.987 30.4583 20.987 28.375C20.987 26.2917 21.7161 24.5208 23.1745 23.0625C24.6328 21.6042 26.4036 20.875 28.487 20.875C30.5703 20.875 32.3411 21.6042 33.7995 23.0625C35.2578 24.5208 35.987 26.2917 35.987 28.375C35.987 29.2535 35.8394 30.0981 35.5443 30.9089C35.2491 31.7196 34.8238 32.4722 34.2682 33.1667L39.6328 38.5312C39.7717 38.6701 39.8411 38.8264 39.8411 39C39.8411 39.1736 39.7717 39.3299 39.6328 39.4687C39.4939 39.6076 39.326 39.6771 39.1292 39.6771C38.9326 39.6771 38.7707 39.6076 38.6432 39.4687L33.2786 34.1562C32.5842 34.7118 31.8316 35.1371 31.0208 35.4323C30.2101 35.7274 29.3654 35.875 28.487 35.875Z" fill="#1656A5"/>
</svg>
