<svg width="50" height="50" viewBox="0 0 50 50" fill="none" xmlns="http://www.w3.org/2000/svg">
<mask id="mask0_2174_1110" style="mask-type:alpha" maskUnits="userSpaceOnUse" x="0" y="0" width="50" height="50">
<rect width="50" height="50" fill="#D9D9D9"/>
</mask>
<g mask="url(#mask0_2174_1110)">
<path d="M21.7734 25.1048L24.8464 28.1777C25.1241 28.4902 25.48 28.6465 25.9141 28.6465C26.3481 28.6465 26.7214 28.4902 27.0339 28.1777L34.6901 20.5736V25.0527C34.6901 25.2263 34.7596 25.3826 34.8984 25.5215C35.0373 25.6604 35.2109 25.7298 35.4193 25.7298C35.5929 25.7298 35.7578 25.6604 35.9141 25.5215C36.0703 25.3826 36.1484 25.209 36.1484 25.0007V19.584C36.1484 19.1673 35.9922 18.8027 35.6797 18.4902C35.3672 18.1777 35.0026 18.0215 34.5859 18.0215H29.1172C28.9436 18.0215 28.7873 18.0996 28.6484 18.2559C28.5096 18.4121 28.4401 18.577 28.4401 18.7507C28.4401 18.959 28.5096 19.1326 28.6484 19.2715C28.7873 19.4104 28.9609 19.4798 29.1693 19.4798H33.5964L25.9401 27.2402L22.8672 24.1673C22.5547 23.8548 22.1814 23.6986 21.7474 23.6986C21.3134 23.6986 20.9575 23.8548 20.6797 24.1673L14.8984 29.8965C14.7595 30.0701 14.6901 30.2524 14.6901 30.4434C14.6901 30.6343 14.7595 30.7993 14.8984 30.9382C15.072 31.1118 15.2543 31.1986 15.4453 31.1986C15.6363 31.1986 15.8012 31.1118 15.9401 30.9382L21.7734 25.1048ZM12.0859 41.0423C11.1832 41.0423 10.4366 40.7472 9.84635 40.1569C9.25608 39.5666 8.96094 38.8201 8.96094 37.9173V12.084C8.96094 11.1812 9.25608 10.4347 9.84635 9.8444C10.4366 9.25412 11.1832 8.95898 12.0859 8.95898H37.9193C38.8221 8.95898 39.5686 9.25412 40.1589 9.8444C40.7491 10.4347 41.0443 11.1812 41.0443 12.084V37.9173C41.0443 38.8201 40.7491 39.5666 40.1589 40.1569C39.5686 40.7472 38.8221 41.0423 37.9193 41.0423H12.0859ZM12.0859 39.584H37.9193C38.3359 39.584 38.7179 39.4104 39.0651 39.0632C39.4123 38.7159 39.5859 38.334 39.5859 37.9173V12.084C39.5859 11.6673 39.4123 11.2854 39.0651 10.9382C38.7179 10.5909 38.3359 10.4173 37.9193 10.4173H12.0859C11.6693 10.4173 11.2873 10.5909 10.9401 10.9382C10.5929 11.2854 10.4193 11.6673 10.4193 12.084V37.9173C10.4193 38.334 10.5929 38.7159 10.9401 39.0632C11.2873 39.4104 11.6693 39.584 12.0859 39.584Z" fill="#1656A5"/>
</g>
</svg>
