<svg width="39" height="33" viewBox="0 0 39 33" fill="none" xmlns="http://www.w3.org/2000/svg">
<path d="M33.4818 24.1882C33.6207 24.0493 33.7856 23.9798 33.9766 23.9798C34.1675 23.9798 34.3325 24.0493 34.4714 24.1882L37.8047 27.5215C37.9436 27.6729 38.013 27.8496 38.013 28.0517C38.013 28.2538 37.9436 28.4243 37.8047 28.5632C37.6658 28.702 37.4953 28.7715 37.2932 28.7715C37.0911 28.7715 36.9144 28.702 36.763 28.5632L33.4297 25.2298C33.2908 25.0909 33.23 24.9173 33.2474 24.709C33.2648 24.5007 33.3429 24.327 33.4818 24.1882ZM34.7318 0.240756C34.8707 0.386937 34.9401 0.560548 34.9401 0.76159C34.9401 0.962631 34.8707 1.1326 34.7318 1.27148L31.3984 4.60482C31.2595 4.74371 31.0946 4.81315 30.9036 4.81315C30.7127 4.81315 30.5477 4.74006 30.4089 4.59388C30.27 4.4477 30.2005 4.27409 30.2005 4.07305C30.2005 3.872 30.27 3.70204 30.4089 3.56315L33.6901 0.229818C33.8415 0.0909288 34.0182 0.0214844 34.2203 0.0214844C34.4224 0.0214844 34.5929 0.0945758 34.7318 0.240756ZM3.28438 0.281901C3.43056 0.143012 3.60417 0.0735677 3.80521 0.0735677C4.00625 0.0735677 4.17622 0.143012 4.3151 0.281901L7.64844 3.56315C7.78733 3.71454 7.85677 3.89128 7.85677 4.09336C7.85677 4.29544 7.78368 4.46593 7.6375 4.60482C7.49132 4.74371 7.31771 4.81315 7.11667 4.81315C6.91562 4.81315 6.74566 4.74371 6.60677 4.60482L3.27344 1.27148C3.13455 1.1326 3.0651 0.967665 3.0651 0.776693C3.0651 0.58572 3.13819 0.42079 3.28438 0.281901ZM4.52344 24.2402C4.66233 24.3791 4.73177 24.5441 4.73177 24.735C4.73177 24.926 4.66233 25.0909 4.52344 25.2298L1.1901 28.5632C1.05122 28.702 0.886285 28.7715 0.695312 28.7715C0.50434 28.7715 0.33941 28.6984 0.200521 28.5522C0.0616319 28.406 -0.0078125 28.2324 -0.0078125 28.0314C-0.0078125 27.8303 0.0616319 27.6604 0.200521 27.5215L3.48177 24.1882C3.62066 24.0493 3.79427 23.9885 4.0026 24.0059C4.21094 24.0232 4.38455 24.1013 4.52344 24.2402ZM10.0443 29.9173L19.0026 24.5527L28.013 30.0215L25.6693 19.8652L33.5339 13.0944L23.1693 12.1569L19.0026 2.57357L14.888 12.1048L4.52344 12.9902L12.388 19.8652L10.0443 29.9173ZM19.0026 26.3236L9.36719 32.1048C9.19358 32.1743 9.04601 32.2003 8.92448 32.1829C8.80295 32.1656 8.67274 32.1222 8.53385 32.0527C8.39497 31.9833 8.2908 31.8704 8.22135 31.7142C8.15191 31.5579 8.15191 31.393 8.22135 31.2194L10.7734 20.4382L2.28385 13.0944C2.14497 12.977 2.05816 12.8435 2.02344 12.6939C1.98872 12.5442 2.00608 12.4 2.07552 12.2611C2.14497 12.1222 2.23056 12.0071 2.33229 11.9158C2.43437 11.8248 2.57448 11.7663 2.7526 11.7402L13.8984 10.8027L18.2734 0.542318C18.3429 0.368707 18.4384 0.247179 18.5599 0.177734C18.6814 0.10829 18.829 0.0735677 19.0026 0.0735677C19.1762 0.0735677 19.3238 0.10829 19.4453 0.177734C19.5668 0.247179 19.6623 0.368707 19.7318 0.542318L24.1589 10.8027L35.3047 11.7402C35.4905 11.7659 35.6365 11.8237 35.7427 11.9137C35.849 12.004 35.9286 12.1197 35.9818 12.2611C36.0512 12.4 36.0686 12.5442 36.0339 12.6939C35.9991 12.8435 35.9123 12.977 35.7734 13.0944L27.2839 20.4382L29.8359 31.2715C29.9054 31.4451 29.9054 31.6013 29.8359 31.7402C29.7665 31.8791 29.6623 31.9833 29.5234 32.0527C29.3845 32.1222 29.2543 32.1656 29.1328 32.1829C29.0113 32.2003 28.8637 32.1743 28.6901 32.1048L19.0026 26.3236Z" fill="#1656A5"/>
</svg>
