<svg width="34" height="34" viewBox="0 0 34 34" fill="none" xmlns="http://www.w3.org/2000/svg">
<path d="M13.7734 17.1042L16.8464 20.1771C17.1241 20.4896 17.48 20.6458 17.9141 20.6458C18.3481 20.6458 18.7214 20.4896 19.0339 20.1771L26.6901 12.5729V17.0521C26.6901 17.2257 26.7596 17.382 26.8984 17.5208C27.0373 17.6597 27.2109 17.7292 27.4193 17.7292C27.5929 17.7292 27.7578 17.6597 27.9141 17.5208C28.0703 17.382 28.1484 17.2083 28.1484 17V11.5833C28.1484 11.1667 27.9922 10.8021 27.6797 10.4896C27.3672 10.1771 27.0026 10.0208 26.5859 10.0208H21.1172C20.9436 10.0208 20.7873 10.099 20.6484 10.2552C20.5096 10.4115 20.4401 10.5764 20.4401 10.75C20.4401 10.9583 20.5096 11.132 20.6484 11.2708C20.7873 11.4097 20.9609 11.4792 21.1693 11.4792H25.5964L17.9401 19.2396L14.8672 16.1667C14.5547 15.8542 14.1814 15.6979 13.7474 15.6979C13.3134 15.6979 12.9575 15.8542 12.6797 16.1667L6.89844 21.8958C6.75955 22.0695 6.6901 22.2517 6.6901 22.4427C6.6901 22.6337 6.75955 22.7986 6.89844 22.9375C7.07205 23.1111 7.25434 23.1979 7.44531 23.1979C7.63629 23.1979 7.80122 23.1111 7.9401 22.9375L13.7734 17.1042ZM4.08594 33.0417C3.18316 33.0417 2.43663 32.7465 1.84635 32.1563C1.25608 31.566 0.960938 30.8195 0.960938 29.9167V4.08334C0.960938 3.18057 1.25608 2.43404 1.84635 1.84376C2.43663 1.25348 3.18316 0.958344 4.08594 0.958344H29.9193C30.8221 0.958344 31.5686 1.25348 32.1589 1.84376C32.7491 2.43404 33.0443 3.18057 33.0443 4.08334V29.9167C33.0443 30.8195 32.7491 31.566 32.1589 32.1563C31.5686 32.7465 30.8221 33.0417 29.9193 33.0417H4.08594ZM4.08594 31.5833H29.9193C30.3359 31.5833 30.7179 31.4097 31.0651 31.0625C31.4123 30.7153 31.5859 30.3333 31.5859 29.9167V4.08334C31.5859 3.66668 31.4123 3.28473 31.0651 2.93751C30.7179 2.59029 30.3359 2.41668 29.9193 2.41668H4.08594C3.66927 2.41668 3.28733 2.59029 2.9401 2.93751C2.59288 3.28473 2.41927 3.66668 2.41927 4.08334V29.9167C2.41927 30.3333 2.59288 30.7153 2.9401 31.0625C3.28733 31.4097 3.66927 31.5833 4.08594 31.5833Z" fill="#1656A5"/>
</svg>
