<svg width="36" height="36" viewBox="0 0 36 36" fill="none" xmlns="http://www.w3.org/2000/svg">
<path d="M18 34.0417L21.75 30.3438C21.8889 30.2049 22.0625 30.1267 22.2708 30.1094C22.4792 30.092 22.6528 30.1701 22.7917 30.3438C22.9306 30.4826 22.9913 30.6563 22.974 30.8646C22.9566 31.0729 22.8785 31.2465 22.7396 31.3854L19.0938 35.0313C18.9201 35.2049 18.7465 35.3264 18.5729 35.3958C18.3993 35.4653 18.2083 35.5 18 35.5C17.7917 35.5 17.6007 35.4653 17.4271 35.3958C17.2535 35.3264 17.0799 35.2049 16.9063 35.0313L13.2604 31.3854C13.1215 31.2465 13.0434 31.0816 13.026 30.8906C13.0087 30.6997 13.0868 30.5174 13.2604 30.3438C13.434 30.1701 13.6076 30.0833 13.7813 30.0833C13.9549 30.0833 14.1285 30.1701 14.3021 30.3438L18 34.0417ZM1.95833 18L5.65625 21.6979C5.79514 21.8368 5.87326 22.0017 5.89063 22.1927C5.90799 22.3837 5.82986 22.566 5.65625 22.7396C5.48264 22.9132 5.30903 23 5.13542 23C4.96181 23 4.7882 22.9132 4.61458 22.7396L0.96875 19.0938C0.795139 18.9201 0.673611 18.7465 0.604167 18.5729C0.534722 18.3993 0.5 18.2083 0.5 18C0.5 17.7917 0.534722 17.6007 0.604167 17.4271C0.673611 17.2535 0.795139 17.0799 0.96875 16.9063L4.66667 13.2083C4.80556 13.0694 4.96181 13 5.13542 13C5.30903 13 5.48264 13.0694 5.65625 13.2083C5.82986 13.3472 5.90799 13.5208 5.89063 13.7292C5.87326 13.9375 5.79514 14.1111 5.65625 14.25L1.95833 18ZM34.0938 18L30.3438 14.1979C30.2049 14.059 30.1441 13.8941 30.1615 13.7031C30.1788 13.5122 30.257 13.3472 30.3958 13.2083C30.5347 13.0694 30.6997 13 30.8906 13C31.0816 13 31.2465 13.0694 31.3854 13.2083L35.0313 16.9063C35.2049 17.0799 35.3264 17.2535 35.3958 17.4271C35.4653 17.6007 35.5 17.7917 35.5 18C35.5 18.2083 35.4653 18.3993 35.3958 18.5729C35.3264 18.7465 35.2049 18.9201 35.0313 19.0938L31.3854 22.7396C31.2465 22.8785 31.0729 22.9566 30.8646 22.974C30.6563 22.9913 30.4826 22.9132 30.3438 22.7396C30.2049 22.6007 30.1441 22.4271 30.1615 22.2188C30.1788 22.0104 30.257 21.8368 30.3958 21.6979L34.0938 18ZM18 1.90625L14.25 5.65625C14.1111 5.79514 13.9462 5.86458 13.7552 5.86458C13.5642 5.86458 13.3993 5.79514 13.2604 5.65625C13.0868 5.51736 13.0087 5.34375 13.026 5.13542C13.0434 4.92708 13.1215 4.75347 13.2604 4.61458L16.9063 0.96875C17.0799 0.795139 17.2535 0.673611 17.4271 0.604167C17.6007 0.534722 17.7917 0.5 18 0.5C18.2083 0.5 18.3993 0.534722 18.5729 0.604167C18.7465 0.673611 18.9201 0.795139 19.0938 0.96875L22.7917 4.66667C22.9306 4.80556 22.9913 4.97049 22.974 5.16146C22.9566 5.35243 22.8785 5.51736 22.7396 5.65625C22.6007 5.79514 22.4444 5.86458 22.2708 5.86458C22.0972 5.86458 21.941 5.79514 21.8021 5.65625L18 1.90625Z" fill="#1656A5"/>
</svg>
