<svg width="34" height="36" viewBox="0 0 34 36" fill="none" xmlns="http://www.w3.org/2000/svg">
<path d="M20.025 35.125C17.0087 35.125 14.4392 34.0746 12.3167 31.9739C10.1941 29.8733 9.13281 27.3125 9.13281 24.2917V23.25C6.59809 23.0764 4.45399 22.0521 2.70052 20.1771C0.947049 18.3021 0.0703125 16.0625 0.0703125 13.4583V3.87499C0.0703125 3.43228 0.220139 3.0611 0.519792 2.76145C0.819098 2.46214 1.1901 2.31249 1.63281 2.31249H6.32031V0.958323C6.32031 0.751726 6.39045 0.578637 6.53073 0.439054C6.67066 0.299123 6.84427 0.229156 7.05156 0.229156C7.25851 0.229156 7.43142 0.299123 7.57031 0.439054C7.7092 0.578637 7.77865 0.751726 7.77865 0.958323V5.12499C7.77865 5.33159 7.70851 5.50468 7.56823 5.64426C7.4283 5.78419 7.25469 5.85416 7.0474 5.85416C6.84045 5.85416 6.66753 5.78419 6.52865 5.64426C6.38976 5.50468 6.32031 5.33159 6.32031 5.12499V3.77082H1.52865V13.4583C1.52865 15.75 2.34462 17.7118 3.97656 19.3437C5.60851 20.9757 7.57031 21.7917 9.86198 21.7917C12.1536 21.7917 14.1155 20.9757 15.7474 19.3437C17.3793 17.7118 18.1953 15.75 18.1953 13.4583V3.77082H13.4036V5.12499C13.4036 5.33159 13.3335 5.50468 13.1932 5.64426C13.0533 5.78419 12.8797 5.85416 12.6724 5.85416C12.4655 5.85416 12.2925 5.78419 12.1536 5.64426C12.0148 5.50468 11.9453 5.33159 11.9453 5.12499V0.958323C11.9453 0.751726 12.0155 0.578637 12.1557 0.439054C12.2957 0.299123 12.4693 0.229156 12.6766 0.229156C12.8835 0.229156 13.0564 0.299123 13.1953 0.439054C13.3342 0.578637 13.4036 0.751726 13.4036 0.958323V2.31249H18.0911C18.5339 2.31249 18.905 2.46214 19.2047 2.76145C19.504 3.0611 19.6536 3.43228 19.6536 3.87499V13.4583C19.6536 16.0625 18.7769 18.3021 17.0234 20.1771C15.27 22.0521 13.1259 23.0764 10.5911 23.25V24.2917C10.5911 26.8958 11.5076 29.1094 13.3406 30.9323C15.1736 32.7552 17.3995 33.6667 20.0182 33.6667C22.6224 33.6667 24.8359 32.7552 26.6589 30.9323C28.4818 29.1094 29.3932 26.8958 29.3932 24.2917V21.1146C28.4905 20.941 27.7439 20.4941 27.1536 19.7739C26.5634 19.0538 26.2682 18.2333 26.2682 17.3125C26.2682 16.242 26.6436 15.3319 27.3943 14.5823C28.145 13.833 29.0564 13.4583 30.1286 13.4583C31.2009 13.4583 32.1102 13.833 32.8568 14.5823C33.6033 15.3319 33.9766 16.242 33.9766 17.3125C33.9766 18.2333 33.6814 19.0538 33.0911 19.7739C32.5009 20.4941 31.7543 20.941 30.8516 21.1146V24.2917C30.8516 27.3125 29.8012 29.8733 27.7005 31.9739C25.5998 34.0746 23.0413 35.125 20.025 35.125ZM30.1224 19.7083C30.7821 19.7083 31.3464 19.4739 31.8151 19.0052C32.2839 18.5364 32.5182 17.9722 32.5182 17.3125C32.5182 16.6528 32.2839 16.0885 31.8151 15.6198C31.3464 15.151 30.7821 14.9167 30.1224 14.9167C29.4627 14.9167 28.8984 15.151 28.4297 15.6198C27.9609 16.0885 27.7266 16.6528 27.7266 17.3125C27.7266 17.9722 27.9609 18.5364 28.4297 19.0052C28.8984 19.4739 29.4627 19.7083 30.1224 19.7083Z" fill="#1656A5"/>
</svg>
