<svg width="23" height="14" viewBox="0 0 23 14" fill="none" xmlns="http://www.w3.org/2000/svg">
<path d="M7.77083 7.10418L10.8438 10.1771C11.1215 10.4896 11.4774 10.6458 11.9115 10.6458C12.3455 10.6458 12.7188 10.4896 13.0313 10.1771L20.6875 2.57293V7.05209C20.6875 7.22571 20.7569 7.38196 20.8958 7.52084C21.0347 7.65973 21.2083 7.72918 21.4167 7.72918C21.5903 7.72918 21.7552 7.65973 21.9115 7.52084C22.0677 7.38196 22.1458 7.20834 22.1458 7.00001V1.58334C22.1458 1.16668 21.9896 0.802094 21.6771 0.489594C21.3646 0.177093 21 0.0208435 20.5833 0.0208435H15.1146C14.941 0.0208435 14.7847 0.0989685 14.6458 0.255219C14.5069 0.411469 14.4375 0.576399 14.4375 0.75001C14.4375 0.958344 14.5069 1.13195 14.6458 1.27084C14.7847 1.40973 14.9583 1.47918 15.1667 1.47918H19.5938L11.9375 9.23959L8.86458 6.16668C8.55208 5.85418 8.17882 5.69793 7.74479 5.69793C7.31077 5.69793 6.95486 5.85418 6.67708 6.16668L0.895834 11.8958C0.756945 12.0695 0.6875 12.2517 0.6875 12.4427C0.6875 12.6337 0.756945 12.7986 0.895834 12.9375C1.06945 13.1111 1.25174 13.1979 1.44271 13.1979C1.63368 13.1979 1.79861 13.1111 1.9375 12.9375L7.77083 7.10418Z" fill="#1656A5"/>
</svg>
