<svg width="42" height="24" viewBox="0 0 42 24" fill="none" xmlns="http://www.w3.org/2000/svg">
<path d="M29.3307 22.4167C32.2127 22.4167 34.6693 21.401 36.7005 19.3698C38.7318 17.3385 39.7474 14.8819 39.7474 12C39.7474 9.11806 38.7318 6.66146 36.7005 4.63021C34.6693 2.59896 32.2127 1.58333 29.3307 1.58333C27.8724 1.58333 26.5182 1.85243 25.2682 2.39063C24.0182 2.92882 22.9245 3.66667 21.987 4.60417C22.7856 5.61111 23.4106 6.74826 23.862 8.01563C24.3134 9.28299 24.5391 10.6111 24.5391 12C24.5391 13.3889 24.3134 14.717 23.862 15.9844C23.4106 17.2517 22.7856 18.3889 21.987 19.3958C22.9245 20.3333 24.0182 21.0712 25.2682 21.6094C26.5182 22.1476 27.8724 22.4167 29.3307 22.4167ZM20.9974 18.25C21.6571 17.3819 22.1693 16.4184 22.5339 15.3594C22.8984 14.3003 23.0807 13.1806 23.0807 12C23.0807 10.8194 22.8984 9.69965 22.5339 8.64063C22.1693 7.5816 21.6571 6.61806 20.9974 5.75C20.3377 6.61806 19.8255 7.5816 19.4609 8.64063C19.0964 9.69965 18.9141 10.8194 18.9141 12C18.9141 13.1806 19.0964 14.3003 19.4609 15.3594C19.8255 16.4184 20.3377 17.3819 20.9974 18.25ZM12.6641 22.4167C14.1224 22.4167 15.4766 22.1476 16.7266 21.6094C17.9766 21.0712 19.0703 20.3333 20.0078 19.3958C19.2092 18.3889 18.5842 17.2517 18.1328 15.9844C17.6814 14.717 17.4557 13.3889 17.4557 12C17.4557 10.6111 17.6814 9.28299 18.1328 8.01563C18.5842 6.74826 19.2092 5.61111 20.0078 4.60417C19.0703 3.66667 17.9766 2.92882 16.7266 2.39063C15.4766 1.85243 14.1224 1.58333 12.6641 1.58333C9.78212 1.58333 7.32552 2.59896 5.29427 4.63021C3.26302 6.66146 2.2474 9.11806 2.2474 12C2.2474 14.8819 3.26302 17.3385 5.29427 19.3698C7.32552 21.401 9.78212 22.4167 12.6641 22.4167ZM12.6641 23.875C9.36545 23.875 6.56163 22.7205 4.2526 20.4115C1.94358 18.1024 0.789062 15.2986 0.789062 12C0.789062 8.70139 1.94358 5.89757 4.2526 3.58854C6.56163 1.27951 9.36545 0.125 12.6641 0.125C14.296 0.125 15.8238 0.428819 17.2474 1.03646C18.671 1.6441 19.921 2.48611 20.9974 3.5625C22.0738 2.48611 23.3238 1.6441 24.7474 1.03646C26.171 0.428819 27.6988 0.125 29.3307 0.125C32.6293 0.125 35.4332 1.27951 37.7422 3.58854C40.0512 5.89757 41.2057 8.70139 41.2057 12C41.2057 15.2986 40.0512 18.1024 37.7422 20.4115C35.4332 22.7205 32.6293 23.875 29.3307 23.875C27.6988 23.875 26.171 23.5712 24.7474 22.9635C23.3238 22.3559 22.0738 21.5139 20.9974 20.4375C19.921 21.5139 18.671 22.3559 17.2474 22.9635C15.8238 23.5712 14.296 23.875 12.6641 23.875Z" fill="#1656A5"/>
</svg>
