<svg width="34" height="34" viewBox="0 0 34 34" fill="none" xmlns="http://www.w3.org/2000/svg">
<path d="M14.9193 20.959C16.5859 20.959 18.0096 20.3687 19.1901 19.1882C20.3707 18.0076 20.9609 16.584 20.9609 14.9173C20.9609 13.2507 20.3707 11.827 19.1901 10.6465C18.0096 9.46593 16.5859 8.87565 14.9193 8.87565C13.2526 8.87565 11.829 9.46593 10.6484 10.6465C9.46788 11.827 8.8776 13.2507 8.8776 14.9173C8.8776 16.584 9.46788 18.0076 10.6484 19.1882C11.829 20.3687 13.2526 20.959 14.9193 20.959ZM14.9193 22.4173C12.8359 22.4173 11.0651 21.6882 9.60677 20.2298C8.14844 18.7715 7.41927 17.0007 7.41927 14.9173C7.41927 12.834 8.14844 11.0632 9.60677 9.60482C11.0651 8.14649 12.8359 7.41732 14.9193 7.41732C17.0026 7.41732 18.7734 8.14649 20.2318 9.60482C21.6901 11.0632 22.4193 12.834 22.4193 14.9173C22.4193 15.8201 22.2717 16.6708 21.9766 17.4694C21.6814 18.268 21.2561 19.0145 20.7005 19.709L26.0651 25.0215C26.204 25.1604 26.2821 25.3253 26.2995 25.5163C26.3168 25.7073 26.2387 25.8895 26.0651 26.0632C25.8915 26.2368 25.7179 26.3236 25.5443 26.3236C25.3707 26.3236 25.1971 26.2368 25.0234 26.0632L19.7109 20.6986C19.0165 21.2541 18.27 21.6795 17.4714 21.9746C16.6727 22.2698 15.8221 22.4173 14.9193 22.4173ZM4.08594 33.0423C3.18316 33.0423 2.43663 32.7472 1.84635 32.1569C1.25608 31.5666 0.960938 30.8201 0.960938 29.9173V23.9798C0.960938 23.7715 1.03038 23.5979 1.16927 23.459C1.30816 23.3201 1.48177 23.2507 1.6901 23.2507C1.89844 23.2507 2.07205 23.3201 2.21094 23.459C2.34983 23.5979 2.41927 23.7715 2.41927 23.9798V29.9173C2.41927 30.334 2.59288 30.7159 2.9401 31.0632C3.28733 31.4104 3.66927 31.584 4.08594 31.584H10.0234C10.2318 31.584 10.4054 31.6534 10.5443 31.7923C10.6832 31.9312 10.7526 32.1048 10.7526 32.3132C10.7526 32.5215 10.6832 32.6951 10.5443 32.834C10.4054 32.9729 10.2318 33.0423 10.0234 33.0423H4.08594ZM29.9193 33.0423H23.9818C23.7734 33.0423 23.5998 32.9729 23.4609 32.834C23.3221 32.6951 23.2526 32.5215 23.2526 32.3132C23.2526 32.1048 23.3221 31.9312 23.4609 31.7923C23.5998 31.6534 23.7734 31.584 23.9818 31.584H29.9193C30.3359 31.584 30.7179 31.4104 31.0651 31.0632C31.4123 30.7159 31.5859 30.334 31.5859 29.9173V23.9798C31.5859 23.7715 31.6554 23.5979 31.7943 23.459C31.9332 23.3201 32.1068 23.2507 32.3151 23.2507C32.5234 23.2507 32.6971 23.3201 32.8359 23.459C32.9748 23.5979 33.0443 23.7715 33.0443 23.9798V29.9173C33.0443 30.8201 32.7491 31.5666 32.1589 32.1569C31.5686 32.7472 30.8221 33.0423 29.9193 33.0423ZM0.960938 10.0215V4.08398C0.960938 3.18121 1.25608 2.43468 1.84635 1.8444C2.43663 1.25412 3.18316 0.958984 4.08594 0.958984H10.0234C10.2318 0.958984 10.4054 1.02843 10.5443 1.16732C10.6832 1.30621 10.7526 1.47982 10.7526 1.68815C10.7526 1.89648 10.6832 2.0701 10.5443 2.20898C10.4054 2.34787 10.2318 2.41732 10.0234 2.41732H4.08594C3.66927 2.41732 3.28733 2.59093 2.9401 2.93815C2.59288 3.28537 2.41927 3.66732 2.41927 4.08398V10.0215C2.41927 10.2298 2.34983 10.4034 2.21094 10.5423C2.07205 10.6812 1.89844 10.7507 1.6901 10.7507C1.48177 10.7507 1.30816 10.6812 1.16927 10.5423C1.03038 10.4034 0.960938 10.2298 0.960938 10.0215ZM31.5859 10.0215V4.08398C31.5859 3.66732 31.4123 3.28537 31.0651 2.93815C30.7179 2.59093 30.3359 2.41732 29.9193 2.41732H23.9818C23.7734 2.41732 23.5998 2.34787 23.4609 2.20898C23.3221 2.0701 23.2526 1.89648 23.2526 1.68815C23.2526 1.47982 23.3221 1.30621 23.4609 1.16732C23.5998 1.02843 23.7734 0.958984 23.9818 0.958984H29.9193C30.8221 0.958984 31.5686 1.25412 32.1589 1.8444C32.7491 2.43468 33.0443 3.18121 33.0443 4.08398V10.0215C33.0443 10.2298 32.9748 10.4034 32.8359 10.5423C32.6971 10.6812 32.5234 10.7507 32.3151 10.7507C32.1068 10.7507 31.9332 10.6812 31.7943 10.5423C31.6554 10.4034 31.5859 10.2298 31.5859 10.0215Z" fill="#1656A5"/>
</svg>
