<svg width="34" height="34" viewBox="0 0 34 34" fill="none" xmlns="http://www.w3.org/2000/svg">
<path d="M12.0734 33.0423C11.6095 33.0423 11.23 32.8925 10.9349 32.5928C10.6398 32.2935 10.4922 31.9225 10.4922 31.4798V23.5111H2.52344C2.08073 23.5111 1.70972 23.3612 1.41042 23.0616C1.11076 22.7623 0.960938 22.3913 0.960938 21.9486V12.1236C0.960938 11.6597 1.11076 11.2802 1.41042 10.985C1.70972 10.6899 2.08073 10.5423 2.52344 10.5423H10.4922V2.52148C10.4922 2.07878 10.642 1.7076 10.9417 1.40794C11.241 1.10864 11.612 0.958984 12.0547 0.958984H21.8797C22.3436 0.958984 22.7231 1.10864 23.0182 1.40794C23.3134 1.7076 23.4609 2.07878 23.4609 2.52148V10.5423H31.4818C31.9245 10.5423 32.2957 10.692 32.5953 10.9913C32.8946 11.2909 33.0443 11.6621 33.0443 12.1048V21.9298C33.0443 22.3937 32.8946 22.7732 32.5953 23.0684C32.2957 23.3635 31.9245 23.5111 31.4818 23.5111H23.4609V31.4798C23.4609 31.9225 23.3113 32.2935 23.012 32.5928C22.7123 32.8925 22.3411 33.0423 21.8984 33.0423H12.0734ZM11.9505 31.584H22.0026V22.0527H31.5859V12.0007H22.0026V2.41732H11.9505V12.0007H2.41927V22.0527H11.9505V31.584Z" fill="#1656A5"/>
</svg>
