<svg width="37" height="36" viewBox="0 0 37 36" fill="none" xmlns="http://www.w3.org/2000/svg">
<path d="M25.4505 32.7285L21.6484 28.8743C21.5095 28.7355 21.4401 28.5705 21.4401 28.3796C21.4401 28.1886 21.5095 28.0237 21.6484 27.8848C21.7873 27.7459 21.9578 27.6764 22.1599 27.6764C22.362 27.6764 22.5387 27.7459 22.6901 27.8848L26.5964 31.791L34.9297 23.4577C35.0686 23.3188 35.2335 23.2493 35.4245 23.2493C35.6155 23.2493 35.7804 23.3188 35.9193 23.4577C36.0582 23.5966 36.1276 23.7615 36.1276 23.9525C36.1276 24.1434 36.0582 24.3084 35.9193 24.4473L27.6901 32.7285C27.3752 33.041 27.0014 33.1973 26.5687 33.1973C26.1358 33.1973 25.763 33.041 25.4505 32.7285ZM20.5026 35.1243C17.4818 35.1243 14.9123 34.074 12.7943 31.9733C10.6762 29.8726 9.61719 27.3118 9.61719 24.291V23.2493C7.08246 23.0757 4.93837 22.0514 3.1849 20.1764C1.43142 18.3014 0.554688 16.0618 0.554688 13.4577V3.87435C0.554688 3.43164 0.704514 3.06046 1.00417 2.76081C1.30347 2.4615 1.67448 2.31185 2.11719 2.31185H6.80469V0.957682C6.80469 0.751085 6.87483 0.577996 7.0151 0.438413C7.15504 0.298482 7.32865 0.228516 7.53594 0.228516C7.74288 0.228516 7.9158 0.298482 8.05469 0.438413C8.19358 0.577996 8.26302 0.751085 8.26302 0.957682V5.12435C8.26302 5.33095 8.19288 5.50403 8.0526 5.64362C7.91267 5.78355 7.73906 5.85352 7.53177 5.85352C7.32483 5.85352 7.15191 5.78355 7.01302 5.64362C6.87413 5.50403 6.80469 5.33095 6.80469 5.12435V3.77018H2.01302V13.4577C2.01302 15.7493 2.82899 17.7112 4.46094 19.3431C6.09288 20.975 8.05469 21.791 10.3464 21.791C12.638 21.791 14.5998 20.975 16.2318 19.3431C17.8637 17.7112 18.6797 15.7493 18.6797 13.4577V3.77018H13.888V5.12435C13.888 5.33095 13.8179 5.50403 13.6776 5.64362C13.5377 5.78355 13.3641 5.85352 13.1568 5.85352C12.9498 5.85352 12.7769 5.78355 12.638 5.64362C12.4991 5.50403 12.4297 5.33095 12.4297 5.12435V0.957682C12.4297 0.751085 12.4998 0.577996 12.6401 0.438413C12.78 0.298482 12.9536 0.228516 13.1609 0.228516C13.3679 0.228516 13.5408 0.298482 13.6797 0.438413C13.8186 0.577996 13.888 0.751085 13.888 0.957682V2.31185H18.5755C19.0182 2.31185 19.3894 2.4615 19.6891 2.76081C19.9884 3.06046 20.138 3.43164 20.138 3.87435V13.4577C20.138 16.0618 19.2613 18.3014 17.5078 20.1764C15.7543 22.0514 13.6102 23.0757 11.0755 23.2493V24.291C11.0755 26.8952 11.9957 29.1087 13.8359 30.9316C15.6762 32.7546 17.8984 33.666 20.5026 33.666C20.7092 33.666 20.8823 33.7362 21.0219 33.8764C21.1618 34.0164 21.2318 34.19 21.2318 34.3973C21.2318 34.6042 21.1618 34.7771 21.0219 34.916C20.8823 35.0549 20.7092 35.1243 20.5026 35.1243Z" fill="#1656A5"/>
</svg>
