<svg width="34" height="34" viewBox="0 0 34 34" fill="none" xmlns="http://www.w3.org/2000/svg">
<path d="M4.08594 33.0423C3.18316 33.0423 2.43663 32.7472 1.84635 32.1569C1.25608 31.5666 0.960938 30.8201 0.960938 29.9173V23.9798C0.960938 23.7715 1.03038 23.5979 1.16927 23.459C1.30816 23.3201 1.48177 23.2507 1.6901 23.2507C1.89844 23.2507 2.07205 23.3201 2.21094 23.459C2.34983 23.5979 2.41927 23.7715 2.41927 23.9798V29.9173C2.41927 30.334 2.59288 30.7159 2.9401 31.0632C3.28733 31.4104 3.66927 31.584 4.08594 31.584H10.0234C10.2318 31.584 10.4054 31.6534 10.5443 31.7923C10.6832 31.9312 10.7526 32.1048 10.7526 32.3132C10.7526 32.5215 10.6832 32.6951 10.5443 32.834C10.4054 32.9729 10.2318 33.0423 10.0234 33.0423H4.08594ZM29.9193 33.0423H23.9818C23.7734 33.0423 23.5998 32.9729 23.4609 32.834C23.3221 32.6951 23.2526 32.5215 23.2526 32.3132C23.2526 32.1048 23.3221 31.9312 23.4609 31.7923C23.5998 31.6534 23.7734 31.584 23.9818 31.584H29.9193C30.3359 31.584 30.7179 31.4104 31.0651 31.0632C31.4123 30.7159 31.5859 30.334 31.5859 29.9173V23.9798C31.5859 23.7715 31.6554 23.5979 31.7943 23.459C31.9332 23.3201 32.1068 23.2507 32.3151 23.2507C32.5234 23.2507 32.6971 23.3201 32.8359 23.459C32.9748 23.5979 33.0443 23.7715 33.0443 23.9798V29.9173C33.0443 30.8201 32.7491 31.5666 32.1589 32.1569C31.5686 32.7472 30.8221 33.0423 29.9193 33.0423ZM0.960938 4.08398C0.960938 3.18121 1.25608 2.43468 1.84635 1.8444C2.43663 1.25412 3.18316 0.958984 4.08594 0.958984H10.0234C10.2318 0.958984 10.4054 1.02843 10.5443 1.16732C10.6832 1.30621 10.7526 1.47982 10.7526 1.68815C10.7526 1.89648 10.6832 2.0701 10.5443 2.20898C10.4054 2.34787 10.2318 2.41732 10.0234 2.41732H4.08594C3.66927 2.41732 3.28733 2.59093 2.9401 2.93815C2.59288 3.28537 2.41927 3.66732 2.41927 4.08398V10.0215C2.41927 10.2298 2.34983 10.4034 2.21094 10.5423C2.07205 10.6812 1.89844 10.7507 1.6901 10.7507C1.48177 10.7507 1.30816 10.6812 1.16927 10.5423C1.03038 10.4034 0.960938 10.2298 0.960938 10.0215V4.08398ZM33.0443 4.08398V10.0215C33.0443 10.2298 32.9748 10.4034 32.8359 10.5423C32.6971 10.6812 32.5234 10.7507 32.3151 10.7507C32.1068 10.7507 31.9332 10.6812 31.7943 10.5423C31.6554 10.4034 31.5859 10.2298 31.5859 10.0215V4.08398C31.5859 3.66732 31.4123 3.28537 31.0651 2.93815C30.7179 2.59093 30.3359 2.41732 29.9193 2.41732H23.9818C23.7734 2.41732 23.5998 2.34787 23.4609 2.20898C23.3221 2.0701 23.2526 1.89648 23.2526 1.68815C23.2526 1.47982 23.3221 1.30621 23.4609 1.16732C23.5998 1.02843 23.7734 0.958984 23.9818 0.958984H29.9193C30.8221 0.958984 31.5686 1.25412 32.1589 1.8444C32.7491 2.43468 33.0443 3.18121 33.0443 4.08398ZM17.1068 27.3652C17.4887 27.3652 17.8099 27.235 18.0703 26.9746C18.3307 26.7142 18.4609 26.393 18.4609 26.0111C18.4609 25.6291 18.3307 25.3079 18.0703 25.0475C17.8099 24.7871 17.4887 24.6569 17.1068 24.6569C16.7248 24.6569 16.4036 24.7871 16.1432 25.0475C15.8828 25.3079 15.7526 25.6291 15.7526 26.0111C15.7526 26.393 15.8828 26.7142 16.1432 26.9746C16.4036 27.235 16.7248 27.3652 17.1068 27.3652ZM17.1068 8.0944C18.2179 8.0944 19.1727 8.4503 19.9714 9.16211C20.77 9.87392 21.1693 10.768 21.1693 11.8444C21.1693 12.5736 20.9609 13.242 20.5443 13.8496C20.1276 14.4572 19.6415 15.0041 19.0859 15.4902C18.1832 16.3236 17.5148 17.0961 17.0807 17.8079C16.6467 18.5198 16.395 19.275 16.3255 20.0736C16.2908 20.2819 16.3429 20.4555 16.4818 20.5944C16.6207 20.7333 16.7943 20.8027 17.0026 20.8027C17.2109 20.8027 17.3846 20.7333 17.5234 20.5944C17.6623 20.4555 17.7491 20.2819 17.7839 20.0736C17.888 19.4833 18.0964 18.9538 18.4089 18.485C18.7214 18.0163 19.2248 17.4347 19.9193 16.7402C20.9262 15.7333 21.6293 14.8739 22.0286 14.1621C22.428 13.4503 22.6276 12.6777 22.6276 11.8444C22.6276 10.3166 22.1241 9.06662 21.1172 8.0944C20.1102 7.12218 18.8082 6.63607 17.2109 6.63607C16.0998 6.63607 15.0755 6.8878 14.138 7.39128C13.2005 7.89475 12.4366 8.6326 11.8464 9.60482C11.7422 9.77843 11.7248 9.9694 11.7943 10.1777C11.8637 10.3861 12.0026 10.525 12.2109 10.5944C12.3846 10.6638 12.5755 10.6725 12.7839 10.6204C12.9922 10.5684 13.1658 10.4555 13.3047 10.2819C13.7908 9.6569 14.3464 9.13607 14.9714 8.7194C15.5964 8.30274 16.3082 8.0944 17.1068 8.0944Z" fill="#1656A5"/>
</svg>
