<svg width="55" height="56" viewBox="0 0 55 56" fill="none" xmlns="http://www.w3.org/2000/svg">
<path d="M31.9275 55.8333C27.1014 55.8333 22.9903 54.1528 19.5942 50.7917C16.1981 47.4306 14.5 43.3333 14.5 38.5V36.8333C10.4444 36.5556 7.01389 34.9167 4.20833 31.9167C1.40278 28.9167 0 25.3333 0 21.1667V5.83333C0 5.125 0.239723 4.53111 0.719167 4.05167C1.19806 3.57278 1.79167 3.33333 2.5 3.33333H10V1.16667C10 0.836111 10.1122 0.559169 10.3367 0.335836C10.5606 0.111947 10.8383 0 11.17 0C11.5011 0 11.7778 0.111947 12 0.335836C12.2222 0.559169 12.3333 0.836111 12.3333 1.16667V7.83333C12.3333 8.16389 12.2211 8.44083 11.9967 8.66416C11.7728 8.88805 11.495 9 11.1633 9C10.8322 9 10.5556 8.88805 10.3333 8.66416C10.1111 8.44083 10 8.16389 10 7.83333V5.66667H2.33333V21.1667C2.33333 24.8333 3.63889 27.9722 6.25 30.5833C8.86111 33.1944 12 34.5 15.6667 34.5C19.3333 34.5 22.4722 33.1944 25.0833 30.5833C27.6944 27.9722 29 24.8333 29 21.1667V5.66667H21.3333V7.83333C21.3333 8.16389 21.2211 8.44083 20.9967 8.66416C20.7728 8.88805 20.495 9 20.1633 9C19.8322 9 19.5556 8.88805 19.3333 8.66416C19.1111 8.44083 19 8.16389 19 7.83333V1.16667C19 0.836111 19.1122 0.559169 19.3367 0.335836C19.5606 0.111947 19.8383 0 20.17 0C20.5011 0 20.7778 0.111947 21 0.335836C21.2222 0.559169 21.3333 0.836111 21.3333 1.16667V3.33333H28.8333C29.5417 3.33333 30.1356 3.57278 30.615 4.05167C31.0939 4.53111 31.3333 5.125 31.3333 5.83333V21.1667C31.3333 25.3333 29.9306 28.9167 27.125 31.9167C24.3194 34.9167 20.8889 36.5556 16.8333 36.8333V38.5C16.8333 42.6667 18.2997 46.2083 21.2325 49.125C24.1653 52.0417 27.7267 53.5 31.9167 53.5C36.0833 53.5 39.625 52.0417 42.5417 49.125C45.4583 46.2083 46.9167 42.6667 46.9167 38.5V33.4167C45.4722 33.1389 44.2778 32.4239 43.3333 31.2717C42.3889 30.1194 41.9167 28.8067 41.9167 27.3333C41.9167 25.6206 42.5172 24.1644 43.7183 22.965C44.9194 21.7661 46.3778 21.1667 48.0933 21.1667C49.8089 21.1667 51.2639 21.7661 52.4583 22.965C53.6528 24.1644 54.25 25.6206 54.25 27.3333C54.25 28.8067 53.7778 30.1194 52.8333 31.2717C51.8889 32.4239 50.6944 33.1389 49.25 33.4167V38.5C49.25 43.3333 47.5694 47.4306 44.2083 50.7917C40.8472 54.1528 36.7536 55.8333 31.9275 55.8333ZM48.0833 31.1667C49.1389 31.1667 50.0417 30.7917 50.7917 30.0417C51.5417 29.2917 51.9167 28.3889 51.9167 27.3333C51.9167 26.2778 51.5417 25.375 50.7917 24.625C50.0417 23.875 49.1389 23.5 48.0833 23.5C47.0278 23.5 46.125 23.875 45.375 24.625C44.625 25.375 44.25 26.2778 44.25 27.3333C44.25 28.3889 44.625 29.2917 45.375 30.0417C46.125 30.7917 47.0278 31.1667 48.0833 31.1667Z" fill="#1656A5"/>
</svg>
