<svg width="51" height="50" viewBox="0 0 51 50" fill="none" xmlns="http://www.w3.org/2000/svg">
<path d="M1.58333 20.5833C1.36111 20.3611 1.25 20.0972 1.25 19.7917C1.25 19.4861 1.36111 19.1944 1.58333 18.9167L9.5 11L4.58333 6.16667L2.08333 8.66667C1.80556 8.94445 1.51389 9.08334 1.20833 9.08334C0.902778 9.08334 0.638889 8.94445 0.416667 8.66667C0.138889 8.44445 0 8.18056 0 7.875C0 7.56945 0.138889 7.27778 0.416667 7L7.08333 0.416667C7.30555 0.138889 7.56944 0 7.875 0C8.18055 0 8.47222 0.138889 8.75 0.416667C8.97222 0.638889 9.08333 0.902778 9.08333 1.20833C9.08333 1.51389 8.97222 1.77778 8.75 2L6.16667 4.58333L11.0833 9.41667L19 1.5C19.2778 1.22222 19.5694 1.08333 19.875 1.08333C20.1806 1.08333 20.4444 1.22222 20.6667 1.5C20.9444 1.72222 21.0833 1.98611 21.0833 2.29167C21.0833 2.59722 20.9444 2.88889 20.6667 3.16667L18.9167 4.91667L41 27C42 28 42.5 29.1945 42.5 30.5833C42.5 31.9722 42 33.1389 41 34.0833L38.4167 36.6667L50.0833 48.3333C50.3055 48.5556 50.3611 48.7917 50.25 49.0417C50.1389 49.2917 49.9444 49.4167 49.6667 49.4167H48.8333C48.5 49.4167 48.1944 49.3611 47.9167 49.25C47.6389 49.1389 47.3611 48.9445 47.0833 48.6667L36.75 38.3333L34.1667 40.9167C33.2222 41.8611 32.0555 42.3333 30.6667 42.3333C29.2778 42.3333 28.0833 41.8611 27.0833 40.9167L5 18.8333L3.25 20.5833C2.97222 20.8611 2.69444 21 2.41667 21C2.13889 21 1.86111 20.8611 1.58333 20.5833ZM6.58333 17.25L28.6667 39.3333C29.2222 39.8333 29.8611 40.0833 30.5833 40.0833C31.3055 40.0833 31.9444 39.8333 32.5 39.3333L39.3333 32.4167C39.8889 31.9167 40.1667 31.2917 40.1667 30.5417C40.1667 29.7917 39.8889 29.1667 39.3333 28.6667L34.6667 23.9167L29.4167 29.1667C29.1389 29.4445 28.8611 29.5833 28.5833 29.5833C28.3055 29.5833 28.0555 29.4722 27.8333 29.25C27.5555 29.0278 27.4167 28.7639 27.4167 28.4583C27.4167 28.1528 27.5555 27.8611 27.8333 27.5833L33.0833 22.3333L25.5 14.8333L20.25 20.0833C20.0278 20.3056 19.7639 20.4167 19.4583 20.4167C19.1528 20.4167 18.8611 20.3056 18.5833 20.0833C18.3611 19.8056 18.25 19.5139 18.25 19.2083C18.25 18.9028 18.3611 18.6389 18.5833 18.4167L23.8333 13.1667L17.25 6.58333L6.58333 17.25Z" fill="#1656A5"/>
</svg>
