<svg width="23" height="33" viewBox="0 0 23 33" fill="none" xmlns="http://www.w3.org/2000/svg">
<path d="M8.64063 26.8125C7.85938 26.8125 7.19531 26.5391 6.64844 25.9922C6.10156 25.4453 5.82812 24.7812 5.82812 24V19.9688C4.26563 18.9688 3.03906 17.6719 2.14844 16.0781C1.25781 14.4844 0.8125 12.7656 0.8125 10.9219C0.8125 7.95312 1.85156 5.42188 3.92969 3.32813C6.00781 1.23438 8.53125 0.1875 11.5 0.1875C14.4688 0.1875 16.9922 1.22656 19.0703 3.30469C21.1484 5.38281 22.1875 7.90625 22.1875 10.875C22.1875 12.75 21.7422 14.4844 20.8516 16.0781C19.9609 17.6719 18.7344 18.9688 17.1719 19.9688V24C17.1719 24.7812 16.8984 25.4453 16.3516 25.9922C15.8047 26.5391 15.1406 26.8125 14.3594 26.8125H8.64063ZM8.64063 25.5H14.3594C14.7969 25.5 15.1563 25.3594 15.4375 25.0781C15.7188 24.7969 15.8594 24.4375 15.8594 24V19.9688C15.8594 19.7188 15.9141 19.5078 16.0234 19.3359C16.1328 19.1641 16.2813 19 16.4688 18.8438L16.8438 18.5625C18.0938 17.6562 19.0781 16.5312 19.7969 15.1875C20.5156 13.8438 20.875 12.4063 20.875 10.875C20.875 8.28125 19.9609 6.07031 18.1328 4.24219C16.3047 2.41406 14.0938 1.5 11.5 1.5C8.90625 1.5 6.69531 2.41406 4.86719 4.24219C3.03906 6.07031 2.125 8.28125 2.125 10.875C2.125 12.4063 2.48438 13.8438 3.20312 15.1875C3.92188 16.5312 4.90625 17.6562 6.15625 18.5625L6.53125 18.8438C6.71875 19 6.86719 19.1641 6.97656 19.3359C7.08594 19.5078 7.14063 19.7188 7.14063 19.9688V24C7.14063 24.4375 7.28125 24.7969 7.5625 25.0781C7.84375 25.3594 8.20313 25.5 8.64063 25.5ZM8.17188 32.8125C7.98438 32.8125 7.82813 32.75 7.70313 32.625C7.57813 32.5 7.51563 32.3438 7.51563 32.1563C7.51563 31.9688 7.57813 31.8125 7.70313 31.6875C7.82813 31.5625 7.98438 31.5 8.17188 31.5H14.8281C15.0156 31.5 15.1719 31.5625 15.2969 31.6875C15.4219 31.8125 15.4844 31.9688 15.4844 32.1563C15.4844 32.3438 15.4219 32.5 15.2969 32.625C15.1719 32.75 15.0156 32.8125 14.8281 32.8125H8.17188Z" fill="#1656A5"/>
</svg>
