<svg width="33" height="31" viewBox="0 0 33 31" fill="none" xmlns="http://www.w3.org/2000/svg">
<path d="M29.625 9.4375C30.1562 9.4375 30.6016 9.25781 30.9609 8.89844C31.3203 8.53906 31.5 8.09375 31.5 7.5625C31.5 7.03125 31.3203 6.58594 30.9609 6.22656C30.6016 5.86719 30.1562 5.6875 29.625 5.6875C29.0938 5.6875 28.6484 5.86719 28.2891 6.22656C27.9297 6.58594 27.75 7.03125 27.75 7.5625C27.75 8.09375 27.9297 8.53906 28.2891 8.89844C28.6484 9.25781 29.0938 9.4375 29.625 9.4375ZM29.6217 10.75C28.7177 10.75 27.9609 10.4456 27.3516 9.83688C26.7422 9.22813 26.4375 8.47375 26.4375 7.57375C26.4375 6.69125 26.7419 5.9375 27.3506 5.3125C27.9594 4.6875 28.7138 4.375 29.6138 4.375C30.4963 4.375 31.25 4.68516 31.875 5.30547C32.5 5.92609 32.8125 6.67953 32.8125 7.56578C32.8125 8.46984 32.5023 9.22656 31.882 9.83594C31.2614 10.4453 30.508 10.75 29.6217 10.75ZM16.5 7.5625C17.2812 7.5625 17.9453 7.29688 18.4922 6.76562C19.0391 6.23438 19.3125 5.5625 19.3125 4.75C19.3125 3.96875 19.0391 3.30469 18.4922 2.75781C17.9453 2.21094 17.2812 1.9375 16.5 1.9375C15.6875 1.9375 15.0156 2.21094 14.4844 2.75781C13.9531 3.30469 13.6875 3.96875 13.6875 4.75C13.6875 5.5625 13.9531 6.23438 14.4844 6.76562C15.0156 7.29688 15.6875 7.5625 16.5 7.5625ZM16.5028 8.875C15.3447 8.875 14.3672 8.47875 13.5703 7.68625C12.7734 6.89344 12.375 5.91969 12.375 4.765C12.375 3.63 12.7712 2.65625 13.5637 1.84375C14.3566 1.03125 15.3303 0.625 16.485 0.625C17.62 0.625 18.5938 1.02734 19.4062 1.83203C20.2188 2.63703 20.625 3.60875 20.625 4.74719C20.625 5.90531 20.2227 6.88281 19.418 7.67969C18.613 8.47656 17.6413 8.875 16.5028 8.875ZM7.6875 17.0781C7.6875 18.2656 8.21875 19.5469 9.28125 20.9219C10.3438 22.2969 12.4531 24.4219 15.6094 27.2969L16.5 28.0938L17.4844 27.1563C20.4219 24.5 22.4609 22.4464 23.6016 20.9955C24.7422 19.5445 25.3125 18.2388 25.3125 17.0781C25.3125 15.9934 24.9519 15.0739 24.2306 14.3195C23.5097 13.5648 22.6203 13.1875 21.5625 13.1875C20.9344 13.1875 20.3398 13.3281 19.7789 13.6094C19.218 13.8906 18.7344 14.2656 18.3281 14.7344L16.5 16.9375L14.625 14.7344C14.2188 14.2656 13.7422 13.8906 13.1953 13.6094C12.6484 13.3281 12.0625 13.1875 11.4375 13.1875C10.3319 13.1875 9.43047 13.5648 8.73328 14.3195C8.03609 15.0739 7.6875 15.9934 7.6875 17.0781ZM6.375 17.0781C6.375 15.7344 6.88281 14.5312 7.89844 13.4688C8.91406 12.4062 10.0938 11.875 11.4375 11.875C12.3438 11.875 13.1797 12.0938 13.9453 12.5312C14.7109 12.9688 15.3594 13.5312 15.8906 14.2188L16.5 14.9219L17.1094 14.1719C17.6719 13.5156 18.3281 12.9688 19.0781 12.5312C19.8281 12.0938 20.6563 11.875 21.5625 11.875C22.875 11.875 24.0469 12.4081 25.0781 13.4744C26.1094 14.5406 26.625 15.7419 26.625 17.0781C26.625 18.4844 26.0625 19.9375 24.9375 21.4375C23.8125 22.9375 21.6562 25.1406 18.4688 28.0469L16.5 29.875L14.625 28.1875C11.3125 25.125 9.10938 22.8672 8.01563 21.4141C6.92188 19.9609 6.375 18.5156 6.375 17.0781ZM3.375 9.4375C3.90625 9.4375 4.35156 9.25781 4.71094 8.89844C5.07031 8.53906 5.25 8.09375 5.25 7.5625C5.25 7.03125 5.07031 6.58594 4.71094 6.22656C4.35156 5.86719 3.90625 5.6875 3.375 5.6875C2.84375 5.6875 2.39844 5.86719 2.03906 6.22656C1.67969 6.58594 1.5 7.03125 1.5 7.5625C1.5 8.09375 1.67969 8.53906 2.03906 8.89844C2.39844 9.25781 2.84375 9.4375 3.375 9.4375ZM16.6406 30.8125V29.5H31.5V17.875C31.5 17.4688 31.3516 17.1172 31.0547 16.8203C30.7578 16.5234 30.4063 16.375 30 16.375H26.1562V15.0625H30C30.7734 15.0625 31.4356 15.3378 31.9866 15.8884C32.5372 16.4394 32.8125 17.1016 32.8125 17.875V29.403C32.8125 29.8114 32.6778 30.1484 32.4084 30.4141C32.1388 30.6797 31.8047 30.8125 31.4062 30.8125H16.6406ZM1.5 29.5H16.6406V30.8125H1.59375C1.19531 30.8125 0.861407 30.6777 0.592031 30.408C0.322344 30.1386 0.1875 29.8047 0.1875 29.4062V17.8905C0.1875 17.0989 0.457031 16.4297 0.996094 15.8828C1.53516 15.3359 2.20312 15.0625 3 15.0625H6.84375V16.375H3C2.5625 16.375 2.20312 16.5234 1.92188 16.8203C1.64062 17.1172 1.5 17.4688 1.5 17.875V29.5ZM3.37172 10.75C2.46766 10.75 1.71094 10.4456 1.10156 9.83688C0.492188 9.22813 0.1875 8.47375 0.1875 7.57375C0.1875 6.69125 0.491875 5.9375 1.10062 5.3125C1.70937 4.6875 2.46375 4.375 3.36375 4.375C4.24625 4.375 5 4.68516 5.625 5.30547C6.25 5.92609 6.5625 6.67953 6.5625 7.56578C6.5625 8.46984 6.25234 9.22656 5.63203 9.83594C5.01141 10.4453 4.25797 10.75 3.37172 10.75Z" fill="#1656A5"/>
</svg>
