<svg width="33" height="33" viewBox="0 0 33 33" fill="none" xmlns="http://www.w3.org/2000/svg">
<path d="M16.508 32.8125C14.2527 32.8125 12.1319 32.3845 10.1456 31.5286C8.15938 30.6727 6.43172 29.5109 4.96266 28.0434C3.49328 26.5759 2.33016 24.8505 1.47328 22.867C0.616093 20.8833 0.1875 18.7636 0.1875 16.508C0.1875 14.2527 0.615469 12.1319 1.47141 10.1456C2.32734 8.15938 3.48906 6.43172 4.95656 4.96266C6.42406 3.49328 8.14953 2.33016 10.133 1.47328C12.1167 0.616093 14.2364 0.1875 16.492 0.1875C18.7473 0.1875 20.8681 0.615469 22.8544 1.47141C24.8406 2.32734 26.5683 3.48906 28.0373 4.95656C29.5067 6.42406 30.6698 8.14953 31.5267 10.133C32.3839 12.1167 32.8125 14.2364 32.8125 16.492C32.8125 18.7473 32.3845 20.8681 31.5286 22.8544C30.6727 24.8406 29.5109 26.5683 28.0434 28.0373C26.5759 29.5067 24.8505 30.6698 22.867 31.5267C20.8833 32.3839 18.7636 32.8125 16.508 32.8125ZM16.5 31.5C20.6875 31.5 24.2344 30.0469 27.1406 27.1406C30.0469 24.2344 31.5 20.6875 31.5 16.5C31.5 12.3125 30.0469 8.76562 27.1406 5.85938C24.2344 2.95312 20.6875 1.5 16.5 1.5C12.3125 1.5 8.76562 2.95312 5.85938 5.85938C2.95312 8.76562 1.5 12.3125 1.5 16.5C1.5 20.6875 2.95312 24.2344 5.85938 27.1406C8.76562 30.0469 12.3125 31.5 16.5 31.5ZM16.5113 25.3125C14.0663 25.3125 11.9844 24.4569 10.2656 22.7456C8.54688 21.0341 7.6875 18.9559 7.6875 16.5113C7.6875 14.0663 8.54313 11.9844 10.2544 10.2656C11.9659 8.54688 14.0441 7.6875 16.4888 7.6875C18.9338 7.6875 21.0156 8.54313 22.7344 10.2544C24.4531 11.9659 25.3125 14.0441 25.3125 16.4888C25.3125 18.9338 24.4569 21.0156 22.7456 22.7344C21.0341 24.4531 18.9559 25.3125 16.5113 25.3125ZM16.5 24C18.5625 24 20.3281 23.2656 21.7969 21.7969C23.2656 20.3281 24 18.5625 24 16.5C24 14.4375 23.2656 12.6719 21.7969 11.2031C20.3281 9.73438 18.5625 9 16.5 9C14.4375 9 12.6719 9.73438 11.2031 11.2031C9.73438 12.6719 9 14.4375 9 16.5C9 18.5625 9.73438 20.3281 11.2031 21.7969C12.6719 23.2656 14.4375 24 16.5 24ZM16.5 17.8125C16.1562 17.8125 15.8516 17.6797 15.5859 17.4141C15.3203 17.1484 15.1875 16.8438 15.1875 16.5C15.1875 16.1562 15.3203 15.8516 15.5859 15.5859C15.8516 15.3203 16.1562 15.1875 16.5 15.1875C16.8438 15.1875 17.1484 15.3203 17.4141 15.5859C17.6797 15.8516 17.8125 16.1562 17.8125 16.5C17.8125 16.8438 17.6797 17.1484 17.4141 17.4141C17.1484 17.6797 16.8438 17.8125 16.5 17.8125Z" fill="#1656A5"/>
</svg>
