<svg width="39" height="28" viewBox="0 0 39 28" fill="none" xmlns="http://www.w3.org/2000/svg">
<path d="M19.5 5.3125C20.5938 3.59375 21.8594 2.28906 23.2969 1.39844C24.7344 0.507813 26.2812 0.0625 27.9375 0.0625C30.1562 0.0625 32.0234 0.820312 33.5391 2.33594C35.0547 3.85156 35.8125 5.71875 35.8125 7.9375C35.8125 8.15625 35.8047 8.35938 35.7891 8.54688C35.7734 8.73438 35.75 8.9375 35.7187 9.15625C35.7187 9.34375 35.6562 9.5 35.5312 9.625C35.4062 9.75 35.25 9.8125 35.0625 9.8125C34.875 9.8125 34.7187 9.75 34.5937 9.625C34.4687 9.5 34.4062 9.34375 34.4062 9.15625C34.4375 8.9375 34.4609 8.73438 34.4766 8.54688C34.4922 8.35938 34.5 8.15625 34.5 7.9375C34.5 6.0625 33.8672 4.5 32.6016 3.25C31.3359 2 29.7812 1.375 27.9375 1.375C26.5312 1.375 25.2344 1.74219 24.0469 2.47656C22.8594 3.21094 21.7187 4.375 20.625 5.96875C20.4687 6.15625 20.2891 6.30469 20.0859 6.41406C19.8828 6.52344 19.6719 6.57813 19.4531 6.57813C19.2344 6.57813 19.0312 6.52344 18.8437 6.41406C18.6562 6.30469 18.4844 6.15625 18.3281 5.96875C17.2344 4.375 16.1016 3.21094 14.9297 2.47656C13.7578 1.74219 12.4687 1.375 11.0625 1.375C9.21875 1.375 7.66406 2 6.39844 3.25C5.13281 4.5 4.5 6.0625 4.5 7.9375C4.5 8.15625 4.50781 8.35938 4.52344 8.54688C4.53906 8.73438 4.5625 8.9375 4.59375 9.15625C4.59375 9.34375 4.53125 9.5 4.40625 9.625C4.28125 9.75 4.125 9.8125 3.9375 9.8125C3.75 9.8125 3.59375 9.75 3.46875 9.625C3.34375 9.5 3.28125 9.34375 3.28125 9.15625C3.25 8.9375 3.22656 8.73438 3.21094 8.54688C3.19531 8.35938 3.1875 8.15625 3.1875 7.9375C3.1875 5.71875 3.94531 3.85156 5.46094 2.33594C6.97656 0.820312 8.84375 0.0625 11.0625 0.0625C12.7187 0.0625 14.2656 0.507813 15.7031 1.39844C17.1406 2.28906 18.4062 3.59375 19.5 5.3125ZM19.5 28C19.1875 28 18.8984 27.9297 18.6328 27.7891C18.3672 27.6484 18.1094 27.4688 17.8594 27.25C17.3594 26.8125 16.375 25.875 14.9062 24.4375C13.4375 23 12.2188 21.8281 11.25 20.9219C11.0938 20.7656 11.0234 20.6094 11.0391 20.4531C11.0547 20.2969 11.125 20.1563 11.25 20.0313C11.375 19.9063 11.5156 19.8359 11.6719 19.8203C11.8281 19.8047 11.9844 19.875 12.1406 20.0313C13.1094 21 14.2031 22.0547 15.4219 23.1953C16.6406 24.3359 18 25.5938 19.5 26.9688C21 25.5938 22.3594 24.3438 23.5781 23.2188C24.7969 22.0938 25.8906 21.0313 26.8594 20.0313C27.0156 19.875 27.1719 19.8047 27.3281 19.8203C27.4844 19.8359 27.625 19.9063 27.75 20.0313C27.875 20.1563 27.9453 20.3047 27.9609 20.4766C27.9766 20.6484 27.9062 20.8125 27.75 20.9688C26.7812 21.875 25.5547 23.0391 24.0703 24.4609C22.5859 25.8828 21.625 26.8125 21.1875 27.25C20.9375 27.5 20.6797 27.6875 20.4141 27.8125C20.1484 27.9375 19.8438 28 19.5 28ZM17.7188 20.7812C17.8438 20.7812 17.9453 20.7422 18.0234 20.6641C18.1016 20.5859 18.1719 20.4844 18.2344 20.3594L21.5625 10.375L24.3281 14.5469C24.4844 14.7344 24.6562 14.8828 24.8437 14.9922C25.0312 15.1016 25.25 15.1562 25.5 15.1562H38.25C38.4375 15.1562 38.5938 15.0938 38.7188 14.9688C38.8438 14.8438 38.9062 14.6875 38.9062 14.5C38.9062 14.3125 38.8438 14.1563 38.7188 14.0313C38.5938 13.9063 38.4375 13.8438 38.25 13.8438H25.4062L21.8906 8.54688C21.8281 8.45312 21.7422 8.38281 21.6328 8.33594C21.5234 8.28906 21.4062 8.26562 21.2812 8.26562C21.1562 8.26562 21.0469 8.30469 20.9531 8.38281C20.8594 8.46094 20.7969 8.5625 20.7656 8.6875L17.4375 18.7188L14.5781 14.4531C14.4219 14.2656 14.25 14.1172 14.0625 14.0078C13.875 13.8984 13.6562 13.8438 13.4062 13.8438H0.75C0.5625 13.8438 0.40625 13.9063 0.28125 14.0313C0.15625 14.1563 0.09375 14.3125 0.09375 14.5C0.09375 14.6875 0.15625 14.8438 0.28125 14.9688C0.40625 15.0938 0.5625 15.1562 0.75 15.1562H13.5L17.0625 20.5C17.125 20.625 17.2187 20.7031 17.3437 20.7344C17.4687 20.7656 17.5938 20.7812 17.7188 20.7812Z" fill="#1656A5"/>
</svg>
