<svg width="35" height="30" viewBox="0 0 35 30" fill="none" xmlns="http://www.w3.org/2000/svg">
<path d="M30.5313 21.9688C30.6563 21.8438 30.8047 21.7812 30.9766 21.7812C31.1484 21.7812 31.2969 21.8438 31.4219 21.9688L34.4219 24.9688C34.5469 25.105 34.6094 25.2641 34.6094 25.4459C34.6094 25.6278 34.5469 25.7812 34.4219 25.9062C34.2969 26.0312 34.1434 26.0938 33.9616 26.0938C33.7797 26.0938 33.6206 26.0312 33.4844 25.9062L30.4844 22.9062C30.3594 22.7812 30.3047 22.625 30.3203 22.4375C30.3359 22.25 30.4063 22.0938 30.5313 21.9688ZM31.6563 0.416095C31.7813 0.547657 31.8438 0.703907 31.8438 0.884845C31.8438 1.06578 31.7813 1.21875 31.6563 1.34375L28.6562 4.34375C28.5312 4.46875 28.3828 4.53125 28.2109 4.53125C28.0391 4.53125 27.8906 4.46547 27.7656 4.33391C27.6406 4.20234 27.5781 4.04609 27.5781 3.86516C27.5781 3.68422 27.6406 3.53125 27.7656 3.40625L30.7188 0.40625C30.855 0.28125 31.0141 0.21875 31.1959 0.21875C31.3778 0.21875 31.5313 0.284532 31.6563 0.416095ZM3.35359 0.453125C3.48516 0.328125 3.64141 0.265625 3.82234 0.265625C4.00328 0.265625 4.15625 0.328125 4.28125 0.453125L7.28125 3.40625C7.40625 3.5425 7.46875 3.70156 7.46875 3.88344C7.46875 4.06531 7.40297 4.21875 7.27141 4.34375C7.13984 4.46875 6.98359 4.53125 6.80266 4.53125C6.62172 4.53125 6.46875 4.46875 6.34375 4.34375L3.34375 1.34375C3.21875 1.21875 3.15625 1.07031 3.15625 0.898438C3.15625 0.726562 3.22203 0.578125 3.35359 0.453125ZM4.46875 22.0156C4.59375 22.1406 4.65625 22.2891 4.65625 22.4609C4.65625 22.6328 4.59375 22.7812 4.46875 22.9062L1.46875 25.9062C1.34375 26.0312 1.19531 26.0938 1.02344 26.0938C0.851562 26.0938 0.703125 26.028 0.578125 25.8964C0.453125 25.7648 0.390625 25.6086 0.390625 25.4277C0.390625 25.2467 0.453125 25.0938 0.578125 24.9688L3.53125 21.9688C3.65625 21.8438 3.8125 21.7891 4 21.8047C4.1875 21.8203 4.34375 21.8906 4.46875 22.0156ZM9.4375 27.125L17.5 22.2969L25.6094 27.2188L23.5 18.0781L30.5781 11.9844L21.25 11.1406L17.5 2.51562L13.7969 11.0938L4.46875 11.8906L11.5469 18.0781L9.4375 27.125ZM17.5 23.8906L8.82812 29.0938C8.67188 29.1563 8.53906 29.1797 8.42969 29.1641C8.32031 29.1484 8.20312 29.1094 8.07812 29.0469C7.95312 28.9844 7.85938 28.8828 7.79688 28.7422C7.73438 28.6016 7.73438 28.4531 7.79688 28.2969L10.0938 18.5938L2.45312 11.9844C2.32812 11.8787 2.25 11.7586 2.21875 11.6239C2.1875 11.4892 2.20312 11.3594 2.26562 11.2344C2.32812 11.1094 2.40516 11.0058 2.49672 10.9236C2.58859 10.8417 2.71469 10.7891 2.875 10.7656L12.9062 9.92188L16.8438 0.6875C16.9063 0.53125 16.9922 0.421875 17.1016 0.359375C17.2109 0.296875 17.3438 0.265625 17.5 0.265625C17.6562 0.265625 17.7891 0.296875 17.8984 0.359375C18.0078 0.421875 18.0938 0.53125 18.1562 0.6875L22.1406 9.92188L32.1719 10.7656C32.3391 10.7887 32.4705 10.8408 32.5661 10.9217C32.6617 11.003 32.7334 11.1072 32.7812 11.2344C32.8438 11.3594 32.8594 11.4892 32.8281 11.6239C32.7969 11.7586 32.7188 11.8787 32.5938 11.9844L24.9531 18.5938L27.25 28.3438C27.3125 28.5 27.3125 28.6406 27.25 28.7656C27.1875 28.8906 27.0938 28.9844 26.9688 29.0469C26.8438 29.1094 26.7266 29.1484 26.6172 29.1641C26.5078 29.1797 26.375 29.1563 26.2188 29.0938L17.5 23.8906Z" fill="#1656A5"/>
</svg>
