<svg width="37" height="33" viewBox="0 0 37 33" fill="none" xmlns="http://www.w3.org/2000/svg">
<path d="M17.8421 31.3594C18.1233 31.3594 18.4124 31.2969 18.7093 31.1719C19.0061 31.0469 19.2483 30.8906 19.4358 30.7031L33.8265 16.3125C34.3265 15.8125 34.7171 15.3125 34.9983 14.8125C35.2796 14.3125 35.4202 13.75 35.4202 13.125C35.4202 12.5 35.2796 11.8906 34.9983 11.2969C34.7171 10.7031 34.3265 10.1563 33.8265 9.65625L27.0765 2.90625C26.5765 2.40625 26.0765 2.03906 25.5765 1.80469C25.0765 1.57031 24.514 1.45312 23.889 1.45312C23.264 1.45312 22.6936 1.57031 22.178 1.80469C21.6624 2.03906 21.1702 2.40625 20.7015 2.90625L18.7327 4.875L22.2015 8.34375C22.5452 8.6875 22.803 9.07812 22.9749 9.51562C23.1468 9.95312 23.2327 10.3906 23.2327 10.8281C23.2327 11.7031 22.9515 12.4219 22.389 12.9844C21.8265 13.5469 21.1077 13.8281 20.2327 13.8281C19.7952 13.8281 19.3655 13.7656 18.9436 13.6406C18.5218 13.5156 18.139 13.2813 17.7952 12.9375L15.264 10.4062C14.9827 10.125 14.6233 9.98438 14.1858 9.98438C13.7483 9.98438 13.389 10.125 13.1077 10.4062L6.12333 17.3906C5.90458 17.6094 5.74051 17.8594 5.63114 18.1406C5.52176 18.4219 5.46708 18.7031 5.46708 18.9844C5.46708 19.4844 5.62333 19.8906 5.93583 20.2031C6.24833 20.5156 6.65458 20.6719 7.15458 20.6719C7.43583 20.6719 7.72489 20.6094 8.02176 20.4844C8.31864 20.3594 8.56083 20.2031 8.74833 20.0156L14.0921 14.6719C14.2171 14.5469 14.3655 14.4766 14.5374 14.4609C14.7093 14.4453 14.8733 14.5156 15.0296 14.6719C15.1858 14.8281 15.264 14.9844 15.264 15.1406C15.264 15.2969 15.1858 15.4531 15.0296 15.6094L9.68583 20.9531C9.46708 21.1719 9.30301 21.4219 9.19364 21.7031C9.08426 21.9844 9.02958 22.2656 9.02958 22.5469C9.02958 23.0156 9.19364 23.4141 9.52176 23.7422C9.84989 24.0703 10.2483 24.2344 10.7171 24.2344C10.9983 24.2344 11.2874 24.1719 11.5843 24.0469C11.8811 23.9219 12.1233 23.7656 12.3108 23.5781L18.2171 17.6719C18.3421 17.5469 18.4905 17.4766 18.6624 17.4609C18.8343 17.4453 18.9983 17.5156 19.1546 17.6719C19.3108 17.8281 19.389 17.9844 19.389 18.1406C19.389 18.2969 19.3108 18.4531 19.1546 18.6094L13.2483 24.5156C13.0608 24.7031 12.9046 24.9453 12.7796 25.2422C12.6546 25.5391 12.5921 25.8281 12.5921 26.1094C12.5921 26.5781 12.7561 26.9766 13.0843 27.3047C13.4124 27.6328 13.8108 27.7969 14.2796 27.7969C14.5608 27.7969 14.8421 27.7422 15.1233 27.6328C15.4046 27.5234 15.6546 27.3594 15.8733 27.1406L21.7796 21.2344C21.9046 21.1094 22.053 21.0391 22.2249 21.0234C22.3968 21.0078 22.5608 21.0781 22.7171 21.2344C22.8733 21.3906 22.9515 21.5469 22.9515 21.7031C22.9515 21.8594 22.8733 22.0156 22.7171 22.1719L16.8108 28.0781C16.5921 28.2969 16.428 28.5625 16.3186 28.875C16.2093 29.1875 16.1546 29.4688 16.1546 29.7188C16.1546 30.2188 16.3265 30.6172 16.6702 30.9141C17.014 31.2109 17.4046 31.3594 17.8421 31.3594ZM17.8421 32.6719C16.9358 32.6719 16.1702 32.3281 15.5452 31.6406C14.9202 30.9531 14.6858 30.1094 14.8421 29.1094C13.7796 29.1719 12.8968 28.8906 12.1936 28.2656C11.4905 27.6406 11.1858 26.7344 11.2796 25.5469C10.0921 25.6094 9.1702 25.3125 8.51395 24.6562C7.8577 24 7.59208 23.1094 7.71708 21.9844C6.71708 22.0469 5.87333 21.8203 5.18583 21.3047C4.49833 20.7891 4.15458 20.0156 4.15458 18.9844C4.15458 18.5469 4.24051 18.1016 4.41239 17.6484C4.58426 17.1953 4.84208 16.7969 5.18583 16.4531L12.2171 9.42188C12.7483 8.89063 13.4046 8.625 14.1858 8.625C14.9671 8.625 15.6233 8.89063 16.1546 9.42188L18.639 11.9062C18.8265 12.0938 19.053 12.25 19.3186 12.375C19.5843 12.5 19.889 12.5625 20.2327 12.5625C20.6702 12.5625 21.0608 12.4062 21.4046 12.0938C21.7483 11.7812 21.9202 11.375 21.9202 10.875C21.9202 10.5312 21.8577 10.2266 21.7327 9.96094C21.6077 9.69531 21.4515 9.46875 21.264 9.28125L14.889 2.90625C14.389 2.40625 13.8811 2.03906 13.3655 1.80469C12.8499 1.57031 12.2796 1.45312 11.6546 1.45312C11.0296 1.45312 10.4749 1.57031 9.99051 1.80469C9.50614 2.03906 9.01395 2.40625 8.51395 2.90625L3.07645 8.34375C2.3577 9.0625 1.90458 9.94531 1.71708 10.9922C1.52958 12.0391 1.65458 13.0312 2.09208 13.9688C2.15458 14.125 2.14676 14.2891 2.06864 14.4609C1.99051 14.6328 1.87333 14.75 1.71708 14.8125C1.56083 14.875 1.38895 14.8672 1.20145 14.7891C1.01395 14.7109 0.888951 14.5938 0.826451 14.4375C0.357701 13.2188 0.217076 11.9766 0.404576 10.7109C0.592076 9.44531 1.1702 8.32812 2.13895 7.35938L7.52958 1.96875C8.15458 1.34375 8.80301 0.882812 9.47489 0.585938C10.1468 0.289062 10.889 0.140625 11.7015 0.140625C12.514 0.140625 13.2483 0.289062 13.9046 0.585938C14.5608 0.882812 15.2015 1.34375 15.8265 1.96875L17.7952 3.9375L19.764 1.96875C20.389 1.34375 21.0296 0.882812 21.6858 0.585938C22.3421 0.289062 23.0765 0.140625 23.889 0.140625C24.7015 0.140625 25.4436 0.289062 26.1155 0.585938C26.7874 0.882812 27.4358 1.34375 28.0608 1.96875L34.764 8.67188C35.389 9.29688 35.8733 9.99219 36.2171 10.7578C36.5608 11.5234 36.7327 12.3125 36.7327 13.125C36.7327 13.9375 36.5608 14.6719 36.2171 15.3281C35.8733 15.9844 35.389 16.625 34.764 17.25L20.3733 31.6406C19.9983 32.0156 19.5999 32.2812 19.178 32.4375C18.7561 32.5938 18.3108 32.6719 17.8421 32.6719Z" fill="#1656A5"/>
</svg>
