<svg width="39" height="33" viewBox="0 0 39 33" fill="none" xmlns="http://www.w3.org/2000/svg">
<path d="M34.4779 24.1862C34.6168 24.0473 34.7817 23.9779 34.9727 23.9779C35.1636 23.9779 35.3286 24.0473 35.4674 24.1862L38.8008 27.5195C38.9397 27.6709 39.0091 27.8477 39.0091 28.0497C39.0091 28.2518 38.9397 28.4223 38.8008 28.5612C38.6619 28.7001 38.4914 28.7695 38.2893 28.7695C38.0872 28.7695 37.9105 28.7001 37.7591 28.5612L34.4258 25.2279C34.2869 25.089 34.2261 24.9154 34.2435 24.707C34.2608 24.4987 34.339 24.3251 34.4779 24.1862ZM35.7279 0.238803C35.8668 0.384984 35.9362 0.558595 35.9362 0.759637C35.9362 0.960678 35.8668 1.13064 35.7279 1.26953L32.3945 4.60286C32.2556 4.74175 32.0907 4.8112 31.8997 4.8112C31.7088 4.8112 31.5438 4.73811 31.4049 4.59193C31.2661 4.44575 31.1966 4.27213 31.1966 4.07109C31.1966 3.87005 31.2661 3.70009 31.4049 3.5612L34.6862 0.227865C34.8376 0.0889757 35.0143 0.0195312 35.2164 0.0195312C35.4185 0.0195312 35.589 0.0926227 35.7279 0.238803ZM4.28047 0.279948C4.42665 0.141059 4.60026 0.0716146 4.8013 0.0716146C5.00234 0.0716146 5.17231 0.141059 5.3112 0.279948L8.64453 3.5612C8.78342 3.71259 8.85286 3.88932 8.85286 4.09141C8.85286 4.29349 8.77977 4.46398 8.63359 4.60286C8.48741 4.74175 8.3138 4.8112 8.11276 4.8112C7.91172 4.8112 7.74175 4.74175 7.60286 4.60286L4.26953 1.26953C4.13064 1.13064 4.0612 0.965712 4.0612 0.77474C4.0612 0.583767 4.13429 0.418837 4.28047 0.279948ZM5.51953 24.2383C5.65842 24.3772 5.72786 24.5421 5.72786 24.7331C5.72786 24.924 5.65842 25.089 5.51953 25.2279L2.1862 28.5612C2.04731 28.7001 1.88238 28.7695 1.69141 28.7695C1.50043 28.7695 1.3355 28.6964 1.19661 28.5503C1.05773 28.4041 0.988281 28.2305 0.988281 28.0294C0.988281 27.8284 1.05773 27.6584 1.19661 27.5195L4.47786 24.1862C4.61675 24.0473 4.79036 23.9865 4.9987 24.0039C5.20703 24.0213 5.38064 24.0994 5.51953 24.2383ZM11.0404 29.9154L19.9987 24.5508L29.0091 30.0195L26.6654 19.8633L34.5299 13.0924L24.1654 12.1549L19.9987 2.57161L15.8841 12.1029L5.51953 12.9883L13.3841 19.8633L11.0404 29.9154ZM19.9987 26.3216L10.3633 32.1029C10.1897 32.1723 10.0421 32.1983 9.92057 32.181C9.79904 32.1636 9.66884 32.1202 9.52995 32.0508C9.39106 31.9813 9.28689 31.8685 9.21745 31.7122C9.148 31.556 9.148 31.3911 9.21745 31.2174L11.7695 20.4362L3.27995 13.0924C3.14106 12.9751 3.05425 12.8416 3.01953 12.6919C2.98481 12.5423 3.00217 12.398 3.07161 12.2591C3.14106 12.1202 3.22665 12.0051 3.32839 11.9138C3.43047 11.8228 3.57057 11.7643 3.7487 11.7383L14.8945 10.8008L19.2695 0.540365C19.339 0.366753 19.4345 0.245226 19.556 0.175781C19.6775 0.106337 19.8251 0.0716146 19.9987 0.0716146C20.1723 0.0716146 20.3199 0.106337 20.4414 0.175781C20.5629 0.245226 20.6584 0.366753 20.7279 0.540365L25.1549 10.8008L36.3008 11.7383C36.4865 11.764 36.6325 11.8218 36.7388 11.9117C36.8451 12.002 36.9247 12.1178 36.9779 12.2591C37.0473 12.398 37.0647 12.5423 37.0299 12.6919C36.9952 12.8416 36.9084 12.9751 36.7695 13.0924L28.2799 20.4362L30.832 31.2695C30.9015 31.4431 30.9015 31.5994 30.832 31.7383C30.7626 31.8772 30.6584 31.9813 30.5195 32.0508C30.3806 32.1202 30.2504 32.1636 30.1289 32.181C30.0074 32.1983 29.8598 32.1723 29.6862 32.1029L19.9987 26.3216Z" fill="#1656A5"/>
</svg>
