<svg width="32" height="35" viewBox="0 0 32 35" fill="none" xmlns="http://www.w3.org/2000/svg">
<path d="M7.41797 25.7487H5.1263C4.26693 25.7487 3.53134 25.4426 2.91953 24.8305C2.30738 24.2187 2.0013 23.4831 2.0013 22.6237V7.6237H1.27214C1.06554 7.6237 0.892275 7.55356 0.752344 7.41328C0.612761 7.27335 0.542969 7.09974 0.542969 6.89245C0.542969 6.6855 0.612761 6.51259 0.752344 6.3737C0.892275 6.23481 1.06554 6.16536 1.27214 6.16536H7.41797V2.41536H5.54297C5.33637 2.41536 5.16311 2.34523 5.02318 2.20495C4.88359 2.06502 4.8138 1.89141 4.8138 1.68412C4.8138 1.47717 4.88359 1.30425 5.02318 1.16536C5.16311 1.02648 5.33637 0.957031 5.54297 0.957031H10.7513C10.9579 0.957031 11.1312 1.02717 11.2711 1.16745C11.4107 1.30738 11.4805 1.48099 11.4805 1.68828C11.4805 1.89522 11.4107 2.06814 11.2711 2.20703C11.1312 2.34592 10.9579 2.41536 10.7513 2.41536H8.8763V6.16536H15.0221C15.2287 6.16536 15.402 6.2355 15.5419 6.37578C15.6815 6.51571 15.7513 6.68932 15.7513 6.89661C15.7513 7.10356 15.6815 7.27648 15.5419 7.41536C15.402 7.55425 15.2287 7.6237 15.0221 7.6237H14.293V22.6237C14.293 23.4831 13.9871 24.2187 13.3753 24.8305C12.7631 25.4426 12.0273 25.7487 11.168 25.7487H8.8763V33.8216C8.8763 33.9779 8.80686 34.0951 8.66797 34.1732C8.52908 34.2513 8.39019 34.2383 8.2513 34.1341L7.70964 33.7174C7.61936 33.648 7.54818 33.5598 7.49609 33.4529C7.44401 33.3463 7.41797 33.2261 7.41797 33.0924V25.7487ZM25.8435 33.457C24.1501 33.457 22.7044 32.8553 21.5065 31.6518C20.3086 30.448 19.7096 29.0011 19.7096 27.3112V13.3529C19.7096 11.6629 20.3126 10.2161 21.5185 9.01224C22.7244 7.80877 24.174 7.20703 25.8674 7.20703C27.5608 7.20703 29.0065 7.80877 30.2044 9.01224C31.4023 10.2161 32.0013 11.6629 32.0013 13.3529V27.3112C32.0013 29.0011 31.3983 30.448 30.1924 31.6518C28.9865 32.8553 27.5369 33.457 25.8435 33.457ZM5.1263 24.2904H11.168C11.6541 24.2904 12.0534 24.1341 12.3659 23.8216C12.6784 23.5091 12.8346 23.1098 12.8346 22.6237V19.707H8.66797C8.47352 19.707 8.30339 19.6341 8.15755 19.4883C8.01172 19.3424 7.9388 19.1723 7.9388 18.9779C7.9388 18.7834 8.01172 18.6133 8.15755 18.4674C8.30339 18.3216 8.47352 18.2487 8.66797 18.2487H12.8346V13.6654H8.66797C8.47352 13.6654 8.30339 13.5924 8.15755 13.4466C8.01172 13.3008 7.9388 13.1306 7.9388 12.9362C7.9388 12.7418 8.01172 12.5716 8.15755 12.4258C8.30339 12.2799 8.47352 12.207 8.66797 12.207H12.8346V7.6237H3.45964V22.6237C3.45964 23.1098 3.61589 23.5091 3.92839 23.8216C4.24089 24.1341 4.64019 24.2904 5.1263 24.2904ZM25.8815 8.66536C24.5794 8.66536 23.4683 9.11675 22.5482 10.0195C21.628 10.9223 21.168 12.0334 21.168 13.3529V14.707H30.543V13.3529C30.543 12.0334 30.0916 10.9223 29.1888 10.0195C28.286 9.11675 27.1836 8.66536 25.8815 8.66536ZM21.168 24.4987H30.543V16.1654H21.168V24.4987ZM25.8555 31.9987C27.1749 31.9987 28.286 31.5397 29.1888 30.6216C30.0916 29.7036 30.543 28.6001 30.543 27.3112V25.957H21.168V27.3112C21.168 28.6001 21.627 29.7036 22.5451 30.6216C23.4631 31.5397 24.5666 31.9987 25.8555 31.9987Z" fill="#1656A5"/>
</svg>
