<svg width="50" height="50" viewBox="0 0 50 50" fill="none" xmlns="http://www.w3.org/2000/svg">
<mask id="mask0_5126_18432" style="mask-type:alpha" maskUnits="userSpaceOnUse" x="0" y="0" width="50" height="50">
<rect width="50" height="50" fill="#D9D9D9"/>
</mask>
<g mask="url(#mask0_5126_18432)">
<path d="M24.2715 13.8535L12.6048 25.5202C12.4659 25.6591 12.301 25.7372 12.11 25.7546C11.9191 25.7719 11.7368 25.6938 11.5632 25.5202C11.3895 25.3466 11.3027 25.173 11.3027 24.9993C11.3027 24.8257 11.3895 24.6521 11.5632 24.4785L23.9069 12.1348C24.0805 11.9612 24.2541 11.8396 24.4277 11.7702C24.6013 11.7007 24.7923 11.666 25.0007 11.666C25.209 11.666 25.4 11.7007 25.5736 11.7702C25.7472 11.8396 25.9208 11.9612 26.0944 12.1348L38.4382 24.4785C38.577 24.6174 38.6552 24.7823 38.6725 24.9733C38.6899 25.1643 38.6118 25.3466 38.4382 25.5202C38.2645 25.6938 38.0909 25.7806 37.9173 25.7806C37.7437 25.7806 37.5701 25.6938 37.3965 25.5202L25.7298 13.8535V38.2285C25.7298 38.4368 25.6604 38.6105 25.5215 38.7493C25.3826 38.8882 25.209 38.9577 25.0007 38.9577C24.7923 38.9577 24.6187 38.8882 24.4798 38.7493C24.3409 38.6105 24.2715 38.4368 24.2715 38.2285V13.8535Z" fill="#1656A5"/>
</g>
</svg>
