<svg width="50" height="50" viewBox="0 0 50 50" fill="none" xmlns="http://www.w3.org/2000/svg">
<mask id="mask0_5126_18450" style="mask-type:alpha" maskUnits="userSpaceOnUse" x="0" y="0" width="50" height="50">
<rect width="50" height="50" fill="#D9D9D9"/>
</mask>
<g mask="url(#mask0_5126_18450)">
<path d="M25 18.4382C23.5417 18.4382 22.309 17.9347 21.3021 16.9277C20.2951 15.9208 19.7917 14.6882 19.7917 13.2298C19.7917 11.7715 20.2951 10.5388 21.3021 9.5319C22.309 8.52496 23.5417 8.02148 25 8.02148C26.4583 8.02148 27.691 8.52496 28.6979 9.5319C29.7049 10.5388 30.2083 11.7715 30.2083 13.2298C30.2083 14.6882 29.7049 15.9208 28.6979 16.9277C27.691 17.9347 26.4583 18.4382 25 18.4382ZM25 16.9798C26.0417 16.9798 26.9271 16.6152 27.6562 15.8861C28.3854 15.1569 28.75 14.2715 28.75 13.2298C28.75 12.1882 28.3854 11.3027 27.6562 10.5736C26.9271 9.8444 26.0417 9.47982 25 9.47982C23.9583 9.47982 23.0729 9.8444 22.3437 10.5736C21.6146 11.3027 21.25 12.1882 21.25 13.2298C21.25 14.2715 21.6146 15.1569 22.3437 15.8861C23.0729 16.6152 23.9583 16.9798 25 16.9798ZM23.9062 40.0527L13.9583 30.1048C13.4722 29.6187 13.1076 29.0545 12.8646 28.4121C12.6215 27.7697 12.5 27.0779 12.5 26.3366C12.5 24.8783 13.0023 23.6487 14.0068 22.648C15.0113 21.647 16.2451 21.1465 17.7083 21.1465C18.4184 21.1465 19.0733 21.2767 19.6729 21.5371C20.2729 21.7975 20.8333 22.1882 21.3542 22.709L25 26.3548L28.6458 22.709C29.1319 22.2229 29.6875 21.8409 30.3125 21.5632C30.9375 21.2854 31.6047 21.1465 32.3141 21.1465C33.7575 21.1465 34.9826 21.647 35.9896 22.648C36.9965 23.6487 37.5 24.8783 37.5 26.3366C37.5 27.0779 37.3785 27.7697 37.1354 28.4121C36.8924 29.0545 36.5278 29.6187 36.0417 30.1048L26.0938 40.0527C25.9201 40.2263 25.7465 40.3479 25.5729 40.4173C25.3993 40.4868 25.2083 40.5215 25 40.5215C24.7917 40.5215 24.6007 40.4868 24.4271 40.4173C24.2535 40.3479 24.0799 40.2263 23.9062 40.0527ZM25 39.0632L35 29.0632C35.3819 28.6812 35.651 28.2645 35.8073 27.8132C35.9635 27.3618 36.0417 26.8843 36.0417 26.3809C36.0417 25.3739 35.6771 24.4928 34.9479 23.7376C34.2188 22.9824 33.3314 22.6048 32.2859 22.6048C31.8036 22.6048 31.3622 22.6807 30.9615 22.8324C30.5611 22.9845 30.1712 23.2559 29.7917 23.6465L25 28.4382L20.3125 23.7507C20.0458 23.4642 19.7014 23.2015 19.2792 22.9626C18.8569 22.7241 18.341 22.6048 17.7313 22.6048C16.6743 22.6048 15.7812 22.9781 15.0521 23.7246C14.3229 24.4711 13.9583 25.3421 13.9583 26.3376C13.9583 26.8352 14.0365 27.3184 14.1927 27.7871C14.349 28.2559 14.6181 28.6812 15 29.0632L25 39.0632Z" fill="#1656A5"/>
</g>
</svg>
