<svg width="50" height="50" viewBox="0 0 50 50" fill="none" xmlns="http://www.w3.org/2000/svg">
<mask id="mask0_5126_18444" style="mask-type:alpha" maskUnits="userSpaceOnUse" x="0" y="0" width="50" height="50">
<rect width="50" height="50" fill="#D9D9D9"/>
</mask>
<g mask="url(#mask0_5126_18444)">
<path d="M24.8952 41.6673C23.7226 41.6673 22.5849 41.5441 21.4822 41.2975C20.3794 41.0513 19.3813 40.7366 18.4879 40.3533C17.2039 39.8057 16.1625 39.135 15.3639 38.3413C14.5653 37.5472 14.166 36.6626 14.166 35.6876V26.0355C14.166 25.172 14.4903 24.3772 15.1389 23.6512C15.7879 22.9248 16.6231 22.2824 17.6447 21.7241C18.6936 21.1654 19.8605 20.7385 21.1452 20.4434C22.4299 20.1482 23.7146 20.0007 24.9993 20.0007C26.2841 20.0007 27.5688 20.1482 28.8535 20.4434C30.1382 20.7385 31.3051 21.1649 32.354 21.7225C33.4033 22.2805 34.2454 22.922 34.8801 23.647C35.5152 24.3724 35.8327 25.1673 35.8327 26.0319V35.696C35.8327 36.1699 35.7297 36.6291 35.5238 37.0736C35.3179 37.518 35.0228 37.9347 34.6384 38.3236C34.254 38.7125 33.7928 39.0805 33.2546 39.4277C32.7164 39.775 32.1348 40.0875 31.5098 40.3652C31.5445 40.2256 31.5966 39.835 31.666 39.1934C31.666 37.575 31.0943 36.1939 29.9509 35.0501C28.8079 33.906 27.4351 33.334 25.8327 33.334C24.6271 33.334 23.5619 33.6465 22.6369 34.2715C21.7119 34.8965 21.0237 35.7125 20.5723 36.7194C21.4403 36.9972 22.2457 37.1708 22.9884 37.2402C23.7308 37.3097 24.3822 37.3444 24.9426 37.3444C25.419 37.3444 25.8044 37.327 26.0988 37.2923C26.3929 37.2576 26.582 37.2402 26.666 37.2402V41.5631C26.3535 41.6326 26.0497 41.6673 25.7546 41.6673H24.8952ZM29.9848 32.5007C30.8973 32.5007 31.6834 32.1756 32.3431 31.5257C33.0028 30.876 33.3327 30.0947 33.3327 29.1819C33.3327 28.2694 33.0042 27.4833 32.3473 26.8236C31.69 26.1638 30.9 25.834 29.9775 25.834C29.0546 25.834 28.2719 26.1625 27.6296 26.8194C26.9872 27.4767 26.666 28.2666 26.666 29.1892C26.666 30.1121 26.991 30.8947 27.641 31.5371C28.2907 32.1795 29.0719 32.5007 29.9848 32.5007ZM24.9993 18.334C26.3882 18.334 27.5688 17.8479 28.541 16.8757C29.5132 15.9034 29.9994 14.7159 29.9994 13.3131C29.9994 11.9381 29.5125 10.7645 28.5389 9.79232C27.5653 8.8201 26.383 8.33398 24.9921 8.33398C23.5733 8.33398 22.3865 8.8201 21.4316 9.79232C20.4768 10.7645 19.9993 11.9451 19.9993 13.334C19.9993 14.7229 20.4785 15.9034 21.4368 16.8757C22.3952 17.8479 23.5827 18.334 24.9993 18.334Z" fill="#1656A5"/>
</g>
</svg>
