<svg width="50" height="50" viewBox="0 0 50 50" fill="none" xmlns="http://www.w3.org/2000/svg">
<mask id="mask0_5126_18426" style="mask-type:alpha" maskUnits="userSpaceOnUse" x="0" y="0" width="50" height="50">
<rect width="50" height="50" fill="#D9D9D9"/>
</mask>
<g mask="url(#mask0_5126_18426)">
<path d="M25.4694 30C27.2402 30 28.7767 29.4271 30.0788 28.2813C31.3809 27.1354 32.0319 25.7292 32.0319 24.0625C32.0319 22.6736 31.5979 21.4844 30.7298 20.4948C29.8618 19.5052 28.768 19.0104 27.4486 19.0104C26.3722 19.0104 25.4347 19.3576 24.6361 20.0521C23.8375 20.7465 23.4382 21.603 23.4382 22.6214C23.4382 23.0613 23.525 23.5069 23.6986 23.9583C23.8722 24.4097 24.15 24.809 24.5319 25.1563C24.7402 25.3646 24.9486 25.4601 25.1569 25.4427C25.3652 25.4254 25.5388 25.3472 25.6777 25.2083C25.8166 25.0694 25.9034 24.9132 25.9382 24.7396C25.9729 24.566 25.9034 24.3924 25.7298 24.2188C25.5562 24.0451 25.3739 23.8021 25.1829 23.4896C24.992 23.1771 24.8965 22.8819 24.8965 22.6042C24.8965 22.1181 25.1135 21.6493 25.5475 21.1979C25.9816 20.7465 26.6152 20.5208 27.4486 20.5208C28.2819 20.5208 29.0111 20.842 29.6361 21.4844C30.2611 22.1267 30.5736 23.0035 30.5736 24.1146C30.5736 25.2951 30.1048 26.3281 29.1673 27.2135C28.2298 28.099 27.0145 28.5417 25.5215 28.5417C23.8548 28.5417 22.4138 27.8819 21.1986 26.5625C19.9833 25.2431 19.3757 23.5764 19.3757 21.5625C19.3757 20.6868 19.5232 19.8342 19.8184 19.0047C20.1135 18.1752 20.5562 17.4132 21.1465 16.7188C21.2854 16.5451 21.3722 16.3542 21.4069 16.1458C21.4416 15.9375 21.3722 15.7465 21.1986 15.5729C21.025 15.3993 20.834 15.3212 20.6257 15.3385C20.4173 15.3559 20.2437 15.4514 20.1048 15.625C19.4104 16.4236 18.8635 17.328 18.4642 18.338C18.0649 19.3481 17.8652 20.4056 17.8652 21.5104C17.8652 23.8368 18.5944 25.8333 20.0527 27.5C21.5111 29.1667 23.3166 30 25.4694 30ZM15.209 35.625C13.2298 33.8194 11.6934 31.8142 10.5996 29.6094C9.50586 27.4045 8.95898 25.1611 8.95898 22.8792C8.95898 18.4333 10.5185 14.6545 13.6376 11.5427C16.7571 8.4309 20.5448 6.875 25.0007 6.875C28.577 6.875 31.8323 7.97743 34.7663 10.1823C37.7003 12.3872 39.6013 15.2257 40.4694 18.6979L42.4652 26.6104C42.593 27.0993 42.5007 27.5434 42.1882 27.9427C41.8757 28.342 41.459 28.5417 40.9382 28.5417H36.8757V35.8333C36.8757 36.6927 36.5698 37.4283 35.9579 38.0401C35.3458 38.6523 34.61 38.9583 33.7507 38.9583H28.5423V42.3958C28.5423 42.6024 28.4722 42.7757 28.3319 42.9156C28.192 43.0552 28.0184 43.125 27.8111 43.125C27.6041 43.125 27.4312 43.0552 27.2923 42.9156C27.1534 42.7757 27.084 42.6024 27.084 42.3958V39.088C27.084 38.6196 27.2338 38.2379 27.5335 37.9427C27.8328 37.6476 28.2038 37.5 28.6465 37.5H33.7507C34.2368 37.5 34.6361 37.3438 34.9486 37.0313C35.2611 36.7188 35.4173 36.3194 35.4173 35.8333V28.6458C35.4173 28.2031 35.5671 27.8319 35.8668 27.5323C36.1661 27.233 36.5371 27.0833 36.9798 27.0833H41.0423L39.0632 19.0104C38.2645 15.816 36.5458 13.2378 33.9069 11.276C31.268 9.31424 28.2993 8.33333 25.0007 8.33333C20.9729 8.33333 17.5354 9.74462 14.6882 12.5672C11.8409 15.3898 10.4173 18.8222 10.4173 22.8646C10.4173 24.9389 10.8427 26.9096 11.6934 28.7766C12.5441 30.6436 13.7507 32.3031 15.3132 33.7552L16.6673 35V42.3958C16.6673 42.6024 16.5972 42.7757 16.4569 42.9156C16.317 43.0552 16.1434 43.125 15.9361 43.125C15.7291 43.125 15.5562 43.0552 15.4173 42.9156C15.2784 42.7757 15.209 42.6024 15.209 42.3958V35.625Z" fill="#1656A5"/>
</g>
</svg>
