<svg width="50" height="50" viewBox="0 0 50 50" fill="none" xmlns="http://www.w3.org/2000/svg">
<mask id="mask0_5126_18456" style="mask-type:alpha" maskUnits="userSpaceOnUse" x="0" y="0" width="50" height="50">
<rect width="50" height="50" fill="#D9D9D9"/>
</mask>
<g mask="url(#mask0_5126_18456)">
<path d="M7.39495 34.7402C7.22133 34.5666 7.14321 34.393 7.16057 34.2194C7.17793 34.0458 7.25606 33.8895 7.39495 33.7507L17.1345 23.9069C17.7248 23.2819 18.454 22.9694 19.322 22.9694C20.1901 22.9694 20.9366 23.2819 21.5616 23.9069L26.5095 28.8548C26.822 29.1673 27.204 29.3236 27.6554 29.3236C28.1068 29.3236 28.5061 29.1673 28.8533 28.8548L40.7283 17.1361H34.0616C33.8533 17.1361 33.6797 17.0666 33.5408 16.9277C33.4019 16.7888 33.3324 16.6152 33.3324 16.4069C33.3324 16.1986 33.4019 16.025 33.5408 15.8861C33.6797 15.7472 33.8533 15.6777 34.0616 15.6777H41.5616C42.013 15.6777 42.3863 15.8253 42.6814 16.1204C42.9765 16.4156 43.1241 16.7888 43.1241 17.2402V24.7402C43.1241 24.9486 43.0547 25.1222 42.9158 25.2611C42.7769 25.4 42.6033 25.4694 42.3949 25.4694C42.1866 25.4694 42.013 25.4086 41.8741 25.2871C41.7352 25.1656 41.6658 25.0007 41.6658 24.7923V18.1777L29.8429 30.0007C29.2526 30.5909 28.5234 30.8861 27.6554 30.8861C26.7873 30.8861 26.0581 30.5909 25.4679 30.0007L20.5199 25.0527C20.2074 24.7402 19.8081 24.584 19.322 24.584C18.8359 24.584 18.4366 24.7402 18.1241 25.0527L8.43661 34.7402C8.263 34.9138 8.08939 35.0007 7.91578 35.0007C7.74217 35.0007 7.56856 34.9138 7.39495 34.7402Z" fill="#1656A5"/>
</g>
</svg>
