<svg width="50" height="50" viewBox="0 0 50 50" fill="none" xmlns="http://www.w3.org/2000/svg">
<mask id="mask0_5126_18420" style="mask-type:alpha" maskUnits="userSpaceOnUse" x="0" y="0" width="50" height="50">
<rect width="50" height="50" fill="#D9D9D9"/>
</mask>
<g mask="url(#mask0_5126_18420)">
<path d="M21.8229 36.4583C20.9549 36.4583 20.217 36.1545 19.6094 35.5469C19.0017 34.9392 18.6979 34.2014 18.6979 33.3333V28.8542C16.9618 27.7431 15.599 26.3021 14.6094 24.5313C13.6198 22.7604 13.125 20.8507 13.125 18.8021C13.125 15.5035 14.2795 12.691 16.5885 10.3646C18.8976 8.03819 21.7014 6.875 25 6.875C28.2986 6.875 31.1024 8.02951 33.4115 10.3385C35.7205 12.6476 36.875 15.4514 36.875 18.75C36.875 20.8333 36.3802 22.7604 35.3906 24.5313C34.401 26.3021 33.0382 27.7431 31.3021 28.8542V33.3333C31.3021 34.2014 30.9983 34.9392 30.3906 35.5469C29.783 36.1545 29.0451 36.4583 28.1771 36.4583H21.8229ZM21.8229 35H28.1771C28.6632 35 29.0625 34.8438 29.375 34.5313C29.6875 34.2188 29.8438 33.8194 29.8438 33.3333V28.8542C29.8438 28.5764 29.9045 28.342 30.026 28.151C30.1476 27.9601 30.3125 27.7778 30.5208 27.6042L30.9375 27.2917C32.3264 26.2847 33.4201 25.0347 34.2188 23.5417C35.0174 22.0486 35.4167 20.4514 35.4167 18.75C35.4167 15.8681 34.401 13.4115 32.3698 11.3802C30.3385 9.34896 27.8819 8.33333 25 8.33333C22.1181 8.33333 19.6615 9.34896 17.6302 11.3802C15.599 13.4115 14.5833 15.8681 14.5833 18.75C14.5833 20.4514 14.9826 22.0486 15.7813 23.5417C16.5799 25.0347 17.6736 26.2847 19.0625 27.2917L19.4792 27.6042C19.6875 27.7778 19.8524 27.9601 19.974 28.151C20.0955 28.342 20.1563 28.5764 20.1563 28.8542V33.3333C20.1563 33.8194 20.3125 34.2188 20.625 34.5313C20.9375 34.8438 21.3368 35 21.8229 35ZM21.3021 43.125C21.0938 43.125 20.9201 43.0556 20.7813 42.9167C20.6424 42.7778 20.5729 42.6042 20.5729 42.3958C20.5729 42.1875 20.6424 42.0139 20.7813 41.875C20.9201 41.7361 21.0938 41.6667 21.3021 41.6667H28.6979C28.9063 41.6667 29.0799 41.7361 29.2188 41.875C29.3576 42.0139 29.4271 42.1875 29.4271 42.3958C29.4271 42.6042 29.3576 42.7778 29.2188 42.9167C29.0799 43.0556 28.9063 43.125 28.6979 43.125H21.3021Z" fill="#1656A5"/>
</g>
</svg>
